{
.appVersion = "3343";
.formatVersion = 3;
axes = (
{
default = 400;
name = Weight;
tag = wght;
}
);
customParameters = (
{
name = vendorID;
value = RSMS;
},
{
name = panose;
value = (
2,
0,
5,
3,
0,
0,
0,
2,
0,
4
);
},
{
name = unicodeRanges;
value = (
0,
1,
2,
3,
4,
5,
6,
7,
9,
29,
30,
31,
32,
33,
34,
35,
36,
37,
38,
39,
40,
45,
47,
57,
60,
64
);
},
{
name = fsType;
value = (
);
},
{
name = glyphOrder;
value = (
.notdef,
.null,
uni0041,
uni00C4,
uni00C3,
uni00C0,
uni00C1,
uni00C2,
uni00C5,
uni01FA,
uniEE02,
uni0100,
uni0102,
uni0104,
uni01CD,
uni01DE,
uni01E0,
uni0200,
uni0202,
uni0226,
uni1E00,
uni1EA0,
uni1EA2,
uni1EA4,
uni1EA6,
uni1EA8,
uni1EAA,
uni1EAC,
uni1EAE,
uni1EB0,
uni1EB2,
uni1EB4,
uni1EB6,
uni0391,
uni0386,
uni1F08,
uni1F09,
uni1F0A,
uni1F0B,
uni1F0C,
uni1F0D,
uni1F0E,
uni1F0F,
uni1FB8,
uni1FB9,
uni1FBA,
uni023A,
uni1FBB,
uni0410,
uni04D0,
uni04D2,
uni1F88,
uni1F89,
uni1F8A,
uni1F8B,
uni1F8C,
uni1F8D,
uni1F8E,
uni1F8F,
uni1FBC,
uni039B,
uni00C6,
uni01E2,
uni01FC,
uni04D4,
uni0042,
uni1E02,
uni1E04,
uni1E06,
uni0243,
uni0181,
uni0412,
uni0392,
uni0043,
uni0187,
uni00C7,
uni0106,
uni0108,
uni010A,
uni010C,
uni1E08,
uni023B,
uni0186,
uni03F9,
uni0044,
uni018A,
uni010E,
uni1E0A,
uni1E0C,
uni1E0E,
uni1E10,
uni1E12,
uni0189,
uni01F2,
uni01C5,
uni0045,
uni00C8,
uni00C9,
uni00CA,
uni00CB,
uni0112,
uni0114,
uni0116,
uni0118,
uni011A,
uni0204,
uni0206,
uni0228,
uni1E14,
uni1E16,
uni1E18,
uni1E1A,
uni1E1C,
uni1EB8,
uni1EBA,
uni1EBC,
uni1EBE,
uni1EC0,
uni1EC2,
uni1EC4,
uni1EC6,
uni0246,
uni018E,
uni0395,
uni0388,
uni1F18,
uni1F19,
uni1F1A,
uni1F1B,
uni1F1C,
uni1F1D,
uni1FC8,
uni1FC9,
uni0415,
uni0400,
uni0401,
uni04D6,
uni0046,
uni0191,
uni1E1E,
uni2132,
uni0047,
uni01E4,
uni0193,
uni011C,
uni011E,
uni0120,
uni0122,
uni01E6,
uni01F4,
uni1E20,
uniE002,
uniE003,
uniE004,
uniE005,
uniE006,
uniE007,
uniE008,
uniE009,
uniE00A,
uniE00B,
uni0048,
uni1E28,
uni0124,
uni021E,
uni1E22,
uni1E24,
uni1E26,
uni1E2A,
uni0126,
uni04C7,
uni04A2,
uni04C9,
uni04A4,
uni01F6,

glyphs = (
{
glyphname = uni0041;
kernLeft = uni0041;
kernRight = uni0041;
lastChange = "2025-08-19 14:18:24 +0000";
layers = (
{
layerId = m01;
shapes = (
{
closed = 1;
nodes = (
(820,2048,l),
(1588,0,l),
(1860,0,l),
(1092,2048,l)
);
},
{
closed = 1;
nodes = (
(804,2048,l),
(36,0,l),
(308,0,l),
(1076,2048,l)
);
},
{
closed = 1;
nodes = (
(372,576,l),
(1540,576,l),
(1540,801,l),
(372,801,l)
);
}
);
width = 1896;
},
{
layerId = "F2C6FA2E-D08A-4B94-92D2-D7CA5820546A";
shapes = (
{
closed = 1;
nodes = (
(833,2048,l),
(1600,0,l),
(1667,0,l),
(900,2048,l)
);
},
{
closed = 1;
nodes = (
(813,2048,l),
(46,0,l),
(113,0,l),
(880,2048,l)
);
},
{
closed = 1;
nodes = (
(336,643,l),
(1377,643,l),
(1377,702,l),
(336,702,l)
);
}
);
width = 1713;
},
{
layerId = "F8E60EAC-58E2-4CB8-A8B6-FD6FE89414CC";
shapes = (
{
closed = 1;
nodes = (
(1391,2048,l),
(2177,0,l),
(3136,0,l),
(2352,2048,l)
);
},
{
closed = 1;
nodes = (
(816,2048,l),
(32,0,l),
(991,0,l),
(1775,2048,l)
);
},
{
closed = 1;
nodes = (
(912,352,l),
(2336,352,l),
(2336,992,l),
(912,992,l)
);
}
);
width = 3168;
}
);
note = uni0041;
unicode = 65;
},
{
glyphname = uni0042;
kernLeft = uni0042;
kernRight = uni0042;
lastChange = "2025-07-22 19:32:11 +0000";
layers = (
{
layerId = m01;
shapes = (
{
closed = 1;
nodes = (
(336,1137,l),
(336,1824,l),
(907,1824,l),
(1097,1824,o),
(1251,1670,o),
(1251,1480,c),
(1251,1290,o),
(1097,1137,o),
(907,1137,c)
);
},
{
closed = 1;
nodes = (
(124,2048,l),
(124,992,l),
(991,992,l),
(1284,992,o),
(1520,1228,o),
(1520,1519,c),
(1520,1812,o),
(1284,2048,o),
(991,2048,c)
);
},
{
closed = 1;
nodes = (
(363,225,l),
(363,929,l),
(988,929,l),
(1186,929,o),
(1348,771,o),
(1348,577,c),
(1348,383,o),
(1186,225,o),
(988,225,c)
);
},
{
closed = 1;
nodes = (
(124,1056,l),
(124,0,l),
(1092,0,l),
(1384,0,o),
(1619,236,o),
(1619,529,c),
(1619,820,o),
(1384,1056,o),
(1092,1056,c)
);
},
{
closed = 1;
nodes = (
(124,0,l),
(381,0,l),
(381,2048,l),
(124,2048,l)
);
}
);
width = 1699;
},
{
layerId = "F2C6FA2E-D08A-4B94-92D2-D7CA5820546A";
shapes = (
{
closed = 1;
nodes = (
(224,1088,l),
(224,1984,l),
(885,1984,l),
(1132,1984,o),
(1333,1784,o),
(1333,1536,c),
(1333,1288,o),
(1132,1088,o),
(885,1088,c)
);
},
{
closed = 1;
nodes = (
(160,2048,l),
(160,1024,l),
(880,1024,l),
(1164,1024,o),
(1391,1254,o),
(1391,1536,c),
(1391,1818,o),
(1164,2048,o),
(880,2048,c)
);
},
{
closed = 1;
nodes = (
(206,64,l),
(206,1024,l),
(912,1024,l),
(1177,1024,o),
(1403,810,o),
(1405,544,c),
(1403,278,o),
(1177,64,o),
(912,64,c)
);
},
{
closed = 1;
nodes = (
(160,1088,l),
(160,0,l),
(928,0,l),
(1228,0,o),
(1472,243,o),
(1472,544,c),
(1472,844,o),
(1228,1088,o),
(928,1088,c)
);
},
{
closed = 1;
nodes = (
(160,0,l),
(224,0,l),
(224,2048,l),
(160,2048,l)
);
}
);
width = 1580;
},
{
layerId = "F8E60EAC-58E2-4CB8-A8B6-FD6FE89414CC";
shapes = (
{
closed = 1;
nodes = (
(994,1295,l),
(994,1512,l),
(1563,1512,l),
(1613,1512,o),
(1652,1452,o),
(1652,1404,c),
(1652,1356,o),
(1613,1295,o),
(1563,1295,c)
);
},
{
closed = 1;
nodes = (
(66,2048,l),
(66,1024,l),
(1940,1024,l),
(2222,1024,o),
(2451,1253,o),
(2451,1537,c),
(2451,1819,o),
(2222,2048,o),
(1940,2048,c)
);
},
{
closed = 1;
nodes = (
(1026,584,l),
(1026,816,l),
(1635,816,l),
(1689,816,o),
(1731,753,o),
(1731,700,c),
(1731,648,o),
(1689,584,o),
(1635,584,c)
);
},
{
closed = 1;
nodes = (
(66,1089,l),
(66,0,l),
(2036,0,l),
(2336,0,o),
(2580,244,o),
(2580,544,c),
(2580,845,o),
(2336,1089,o),
(2036,1089,c)
);
},
{
closed = 1;
nodes = (
(66,0,l),
(1026,0,l),
(1026,2048,l),
(66,2048,l)
);
}
);
width = 2612;
}
);
note = uni0042;
unicode = 66;
},
{
glyphname = uni0043;
kernLeft = uni0043;
kernRight = uni0043;
lastChange = "2025-08-19 09:03:17 +0000";
layers = (
{
layerId = m01;
shapes = (
{
closed = 1;
nodes = (
(414,2075,o),
(84,1685,o),
(84,1029,c),
(84,370,o),
(414,-20,o),
(997,-20,c),
(1462,-20,o),
(1765,228,o),
(1869,663,c),
(1564,663,l),
(1485,366,o),
(1292,203,o),
(997,203,c),
(595,203,o),
(385,503,o),
(385,1029,c),
(385,1552,o),
(595,1852,o),
(997,1852,c),
(1292,1852,o),
(1485,1689,o),
(1564,1392,c),
(1869,1392,l),
(1765,1828,o),
(1462,2075,o),
(997,2075,c)
);
}
);
width = 1945;
},
{
layerId = "F2C6FA2E-D08A-4B94-92D2-D7CA5820546A";
shapes = (
{
closed = 1;
nodes = (
(373,2074,o),
(102,1604,o),
(102,1026,c),
(102,447,o),
(373,-23,o),
(948,-23,c),
(1400,-23,o),
(1666,266,o),
(1760,671,c),
(1697,671,l),
(1608,291,o),
(1366,34,o),
(952,34,c),
(418,34,o),
(174,472,o),
(174,1026,c),
(174,1579,o),
(418,2017,o),
(952,2017,c),
(1366,2017,o),
(1608,1760,o),
(1697,1380,c),
(1760,1380,l),
(1666,1785,o),
(1400,2074,o),
(948,2074,c)
);
}
);
width = 1860;
},
{
layerId = "F8E60EAC-58E2-4CB8-A8B6-FD6FE89414CC";
shapes = (
{
closed = 1;
nodes = (
(456,2075,o),
(62,1606,o),
(62,1027,c),
(62,449,o),
(456,-20,o),
(1295,-20,c),
(2073,-20,o),
(2468,383,o),
(2521,904,c),
(1593,904,l),
(1564,726,o),
(1465,596,o),
(1294,596,c),
(1085,596,o),
(987,789,o),
(987,1027,c),
(987,1266,o),
(1085,1459,o),
(1294,1459,c),
(1458,1459,o),
(1554,1341,o),
(1589,1174,c),
(2519,1174,l),
(2456,1683,o),
(2061,2075,o),
(1295,2075,c)
);
}
);
width = 2581;
}
);
note = uni0043;
unicode = 67;
},
{
glyphname = uni0044;
kernLeft = uni0042;
kernRight = uni0186;
lastChange = "2025-05-18 20:32:43 +0000";
layers = (
{
layerId = m01;
shapes = (
{
closed = 1;
nodes = (
(913,0,ls),
(1398,0,o),
(1791,378,o),
(1791,1024,cs),
(1791,1670,o),
(1398,2048,o),
(913,2048,cs),
(124,2048,l),
(124,0,l)
);
},
{
closed = 1;
nodes = (
(380,1828,l),
(825,1828,ls),
(1209,1828,o),
(1500,1609,o),
(1500,1024,cs),
(1500,439,o),
(1209,224,o),
(825,224,cs),
(380,224,l)
);
}
);
width = 1875;
},
{
layerId = "F2C6FA2E-D08A-4B94-92D2-D7CA5820546A";
shapes = (
{
closed = 1;
nodes = (
(848,0,ls),
(1333,0,o),
(1726,378,o),
(1726,1024,cs),
(1726,1670,o),
(1333,2048,o),
(848,2048,cs),
(160,2048,l),
(160,0,l)
);
},
{
closed = 1;
nodes = (
(224,1985,l),
(848,1985,ls),
(1242,1985,o),
(1663,1670,o),
(1663,1024,cs),
(1663,377,o),
(1240,63,o),
(845,63,cs),
(224,63,l)
);
}
);
width = 1828;
},
{
layerId = "F8E60EAC-58E2-4CB8-A8B6-FD6FE89414CC";
shapes = (
{
closed = 1;
nodes = (
(1637,0,ls),
(2192,0,o),
(2641,378,o),
(2641,1024,cs),
(2641,1670,o),
(2192,2048,o),
(1637,2048,cs),
(66,2048,l),
(66,0,l)
);
},
{
closed = 1;
nodes = (
(1027,1411,l),
(1288,1411,ls),
(1513,1411,o),
(1684,1304,o),
(1684,1025,cs),
(1684,745,o),
(1513,640,o),
(1288,640,cs),
(1027,640,l)
);
}
);
width = 2703;
}
);
note = uni0044;
unicode = 68;
},
{
glyphname = uni0045;
kernLeft = uni0042;
kernRight = uni00C6;
lastChange = "2025-06-08 18:50:33 +0000";
layers = (
{
layerId = m01;
shapes = (
{
closed = 1;
nodes = (
(124,0,l),
(379,0,l),
(379,2048,l),
(124,2048,l)
);
},
{
closed = 1;
nodes = (
(192,1823,l),
(1375,1823,l),
(1375,2048,l),
(192,2048,l)
);
},
{
closed = 1;
nodes = (
(187,0,l),
(1375,0,l),
(1375,225,l),
(187,225,l)
);
},
{
closed = 1;
nodes = (
(172,911,l),
(1355,911,l),
(1355,1137,l),
(172,1137,l)
);
}
);
width = 1467;
},
{
layerId = "F2C6FA2E-D08A-4B94-92D2-D7CA5820546A";
shapes = (
{
closed = 1;
nodes = (
(160,0,l),
(224,0,l),
(224,2048,l),
(160,2048,l)
);
},
{
closed = 1;
nodes = (
(165,2000,l),
(1365,2000,l),
(1365,2048,l),
(165,2048,l)
);
},
{
closed = 1;
nodes = (
(229,0,l),
(1365,0,l),
(1365,48,l),
(229,48,l)
);
},
{
closed = 1;
nodes = (
(229,1009,l),
(1345,1009,l),
(1345,1056,l),
(229,1056,l)
);
}
);
width = 1467;
},
{
layerId = "F8E60EAC-58E2-4CB8-A8B6-FD6FE89414CC";
shapes = (
{
closed = 1;
nodes = (
(66,0,l),
(1027,0,l),
(1027,2048,l),
(66,2048,l)
);
},
{
closed = 1;
nodes = (
(227,1421,l),
(2307,1421,l),
(2307,2048,l),
(227,2048,l)
);
},
{
closed = 1;
nodes = (
(227,0,l),
(2307,0,l),
(2307,627,l),
(227,627,l)
);
},
{
closed = 1;
nodes = (
(227,786,l),
(2307,786,l),
(2307,1262,l),
(227,1262,l)
);
}
);
width = 2379;
}
);
note = uni0045;
unicode = 69;
},
{
glyphname = uni0046;
kernLeft = uni0042;
kernRight = uni0046;
lastChange = "2025-06-08 18:51:26 +0000";
layers = (
{
layerId = m01;
shapes = (
{
closed = 1;
nodes = (
(124,0,l),
(379,0,l),
(379,2048,l),
(124,2048,l)
);
},
{
closed = 1;
nodes = (
(207,1824,l),
(1359,1824,l),
(1359,2048,l),
(207,2048,l)
);
},
{
closed = 1;
nodes = (
(171,911,l),
(1339,911,l),
(1339,1137,l),
(171,1137,l)
);
}
);
width = 1447;
},
{
layerId = "F2C6FA2E-D08A-4B94-92D2-D7CA5820546A";
shapes = (
{
closed = 1;
nodes = (
(160,0,l),
(224,0,l),
(224,2048,l),
(160,2048,l)
);
},
{
closed = 1;
nodes = (
(160,2000,l),
(1344,2000,l),
(1344,2048,l),
(160,2048,l)
);
},
{
closed = 1;
nodes = (
(160,1009,l),
(1324,1009,l),
(1324,1056,l),
(160,1056,l)
);
}
);
width = 1458;
},
{
layerId = "F8E60EAC-58E2-4CB8-A8B6-FD6FE89414CC";
shapes = (
{
closed = 1;
nodes = (
(66,0,l),
(1027,0,l),
(1027,2048,l),
(66,2048,l)
);
},
{
closed = 1;
nodes = (
(134,1421,l),
(2309,1421,l),
(2309,2048,l),
(134,2048,l)
);
},
{
closed = 1;
nodes = (
(134,786,l),
(2309,786,l),
(2309,1262,l),
(134,1262,l)
);
}
);
width = 2345;
}
);
note = uni0046;
unicode = 70;
},
{
glyphname = uni0047;
kernLeft = uni0043;
kernRight = uni0047;
lastChange = "2025-08-19 13:58:57 +0000";
layers = (
{
layerId = m01;
shapes = (
{
closed = 1;
nodes = (
(1580,-25,o),
(1874,388,o),
(1909,915,c),
(1911,951,o),
(1912,1097,o),
(1912,1133,c),
(1657,1133,l),
(1657,1097,o),
(1655,951,o),
(1652,915,c),
(1618,510,o),
(1391,197,o),
(998,197,c),
(570,197,o),
(339,568,o),
(339,1023,c),
(339,1480,o),
(570,1850,o),
(998,1850,c),
(1280,1850,o),
(1571,1685,o),
(1601,1349,c),
(1876,1349,l),
(1840,1727,o),
(1527,2073,o),
(998,2073,c),
(375,2073,o),
(84,1603,o),
(84,1023,c),
(84,444,o),
(375,-25,o),
(998,-25,c)
);
},
{
closed = 1;
nodes = (
(1892,915,l),
(1892,1023,l),
(1892,1133,l),
(947,1133,l),
(947,915,l)
);
}
);
width = 2000;
},
{
layerId = "F2C6FA2E-D08A-4B94-92D2-D7CA5820546A";
shapes = (
{
closed = 1;
nodes = (
(1524,-23,o),
(1805,388,o),
(1838,915,c),
(1840,951,o),
(1841,1020,o),
(1841,1056,c),
(1783,1056,l),
(1783,1036,o),
(1782,947,o),
(1777,904,c),
(1736,410,o),
(1478,34,o),
(975,34,c),
(430,34,o),
(165,471,o),
(165,1024,c),
(165,1583,o),
(429,2016,o),
(974,2016,c),
(1397,2016,o),
(1723,1700,o),
(1723,1350,c),
(1787,1350,l),
(1787,1710,o),
(1490,2073,o),
(971,2073,c),
(379,2073,o),
(102,1603,o),
(102,1023,c),
(102,444,o),
(380,-23,o),
(972,-23,c)
);
},
{
closed = 1;
nodes = (
(1819,1001,l),
(1819,1023,l),
(1819,1056,l),
(874,1056,l),
(874,1001,l)
);
}
);
width = 1955;
},
{
layerId = "F8E60EAC-58E2-4CB8-A8B6-FD6FE89414CC";
shapes = (
{
closed = 1;
nodes = (
(2238,-32,o),
(2666,388,o),
(2717,915,c),
(2719,951,o),
(2721,1188,o),
(2721,1224,c),
(1829,1224,l),
(1829,1205,o),
(1828,986,o),
(1827,967,c),
(1827,670,o),
(1621,590,o),
(1386,590,c),
(1131,590,o),
(994,784,o),
(994,1023,c),
(994,1264,o),
(1091,1507,o),
(1386,1507,c),
(1582,1507,o),
(1633,1398,o),
(1681,1348,c),
(2677,1348,l),
(2534,1819,o),
(2051,2077,o),
(1393,2077,c),
(488,2077,o),
(62,1603,o),
(62,1023,c),
(62,444,o),
(488,-32,o),
(1393,-32,c)
);
},
{
closed = 1;
nodes = (
(2635,808,l),
(2635,950,l),
(2635,1224,l),
(1241,1224,l),
(1241,808,l)
);
}
);
width = 2785;
}
);
note = uni0047;
unicode = 71;
},
{
glyphname = uniE002;
kernLeft = uni0043;
kernRight = uniE002;
layers = (
{
layerId = m01;
shapes = (
{
closed = 1;
nodes = (
(1571,116,o),
(1688,250,q),
(1698,250,l),
(1728,0,l),
(1936,0,l),
(1936,1024,l),
(1136,1024,l),
(1136,804,l),
(1728,804,l),
(1696,830,l),
(1696,648,o),
(1540,365,o),
(1263,204,o),
(1080,204,qs),
(890,204,o),
(586,392,o),
(408,758,o),
(408,1024,qs),
(408,1290,o),
(588,1656,o),
(890,1844,o),
(1072,1844,qs),
(1183,1844,o),
(1373,1784,o),
(1527,1670,o),
(1637,1509,o),
(1668,1408,q),
(1924,1408,l),
(1896,1557,o),
(1745,1802,o),
(1518,1979,o),
(1234,2076,o),
(1072,2076,qs),
(876,2076,o),
(545,1930,o),
(302,1656,o),
(168,1267,o),
(168,1024,qs),
(168,700,o),
(397,228,o),
(808,-28,o),
(1080,-28,qs),
(1283,-28,o)
);
}
);
width = 2112;
},
{
layerId = "F2C6FA2E-D08A-4B94-92D2-D7CA5820546A";
shapes = (
{
closed = 1;
nodes = (
(1689,228,o),
(1780,474,q),
(1788,474,l),
(1788,0,l),
(1852,0,l),
(1852,928,l),
(1080,928,l),
(1080,864,l),
(1816,864,l),
(1788,888,l),
(1792,620,o),
(1606,239,o),
(1274,36,o),
(1060,36,qs),
(818,36,o),
(462,287,o),
(268,732,o),
(268,1024,qs),
(268,1320,o),
(464,1765,o),
(817,2012,o),
(1052,2012,qs),
(1210,2012,o),
(1461,1904,o),
(1643,1726,o),
(1754,1513,o),
(1772,1408,q),
(1836,1408,l),
(1818,1518,o),
(1703,1751,o),
(1509,1952,o),
(1232,2076,o),
(1052,2076,qs),
(862,2076,o),
(550,1926,o),
(325,1647,o),
(204,1260,o),
(204,1024,qs),
(204,711,o),
(415,237,o),
(800,-28,o),
(1060,-28,qs),
(1310,-28,o)
);
}
);
width = 2080;
},
{
layerId = "F8E60EAC-58E2-4CB8-A8B6-FD6FE89414CC";
shapes = (
{
closed = 1;
nodes = (
(1582,104,o),
(1676,224,q),
(1688,224,l),
(1710,0,l),
(2064,0,l),
(2064,1144,l),
(1140,1144,l),
(1140,748,l),
(1628,748,l),
(1512,758,l),
(1512,666,o),
(1428,530,o),
(1259,456,o),
(1132,456,qs),
(990,456,o),
(796,592,o),
(696,848,o),
(696,1028,qs),
(696,1206,o),
(804,1458,o),
(1006,1592,o),
(1146,1592,qs),
(1211,1592,o),
(1323,1563,o),
(1412,1507,o),
(1471,1425,o),
(1484,1372,q),
(2044,1372,l),
(2028,1527,o),
(1877,1785,o),
(1632,1973,o),
(1316,2076,o),
(1134,2076,qs),
(927,2076,o),
(562,1937,o),
(282,1666,o),
(124,1274,o),
(124,1020,qs),
(124,696,o),
(379,226,o),
(831,-28,o),
(1128,-28,qs),
(1307,-28,o)
);
}
);
width = 2192;
}
);
note = uniE002;
unicode = 57346;
},
{
glyphname = uniE003;
layers = (
{
layerId = m01;
shapes = (
{
closed = 1;
nodes = (
(1136,424,l),
(2076,424,l),
(2076,624,l),
(1136,624,l)
);
},
{
closed = 1;
nodes = (
(1571,116,o),
(1688,250,q),
(1698,250,l),
(1728,0,l),
(1936,0,l),
(1936,1024,l),
(1136,1024,l),
(1136,804,l),
(1728,804,l),
(1696,830,l),
(1696,648,o),
(1540,365,o),
(1263,204,o),
(1080,204,qs),
(890,204,o),
(586,392,o),
(408,758,o),
(408,1024,qs),
(408,1290,o),
(588,1656,o),
(890,1844,o),
(1072,1844,qs),
(1183,1844,o),
(1373,1784,o),
(1527,1670,o),
(1637,1509,o),
(1668,1408,q),
(1924,1408,l),
(1896,1557,o),
(1745,1802,o),
(1518,1979,o),
(1234,2076,o),
(1072,2076,qs),
(876,2076,o),
(545,1930,o),
(302,1656,o),
(168,1267,o),
(168,1024,qs),
(168,700,o),
(397,228,o),
(808,-28,o),
(1080,-28,qs),
(1283,-28,o)
);
}
);
width = 2112;
},
{
layerId = "F2C6FA2E-D08A-4B94-92D2-D7CA5820546A";
shapes = (
{
closed = 1;
nodes = (
(1080,496,l),
(2000,496,l),
(2000,560,l),
(1080,560,l)
);
},
{
closed = 1;
nodes = (
(1689,228,o),
(1780,474,q),
(1788,474,l),
(1788,0,l),
(1852,0,l),
(1852,928,l),
(1080,928,l),
(1080,864,l),
(1816,864,l),
(1788,888,l),
(1792,620,o),
(1606,239,o),
(1274,36,o),
(1060,36,qs),
(818,36,o),
(462,287,o),
(268,732,o),
(268,1024,qs),
(268,1320,o),
(464,1765,o),
(817,2012,o),
(1052,2012,qs),
(1210,2012,o),
(1461,1904,o),
(1643,1726,o),
(1754,1513,o),
(1772,1408,q),
(1836,1408,l),
(1818,1518,o),
(1703,1751,o),
(1509,1952,o),
(1232,2076,o),
(1052,2076,qs),
(862,2076,o),
(550,1926,o),
(325,1647,o),
(204,1260,o),
(204,1024,qs),
(204,711,o),
(415,237,o),
(800,-28,o),
(1060,-28,qs),
(1310,-28,o)
);
}
);
width = 2080;
},
{
layerId = "F8E60EAC-58E2-4CB8-A8B6-FD6FE89414CC";
shapes = (
{
closed = 1;
nodes = (
(1140,564,l),
(2132,564,l),
(2132,688,l),
(1140,688,l)
);
},
{
closed = 1;
nodes = (
(1582,104,o),
(1676,224,q),
(1688,224,l),
(1710,0,l),
(2064,0,l),
(2064,1144,l),
(1140,1144,l),
(1140,748,l),
(1628,748,l),
(1512,758,l),
(1512,666,o),
(1428,530,o),
(1259,456,o),
(1132,456,qs),
(990,456,o),
(796,592,o),
(696,848,o),
(696,1028,qs),
(696,1206,o),
(804,1458,o),
(1006,1592,o),
(1146,1592,qs),
(1211,1592,o),
(1323,1563,o),
(1412,1507,o),
(1471,1425,o),
(1484,1372,q),
(2044,1372,l),
(2028,1527,o),
(1877,1785,o),
(1632,1973,o),
(1316,2076,o),
(1134,2076,qs),
(927,2076,o),
(562,1937,o),
(282,1666,o),
(124,1274,o),
(124,1020,qs),
(124,696,o),
(379,226,o),
(831,-28,o),
(1128,-28,qs),
(1307,-28,o)
);
}
);
width = 2196;
}
);
note = uniE003;
unicode = 57347;
},
{
glyphname = uniE004;
layers = (
{
layerId = m01;
shapes = (
{
closed = 1;
nodes = (
(1924,1704,o),
(1983,1795,o),
(2084,1832,o),
(2148,1832,qs),
(2169,1832,o),
(2209,1827,o),
(2224,1824,q),
(2224,2024,l),
(2197,2033,o),
(2124,2036,o),
(2088,2036,qs),
(1992,2036,o),
(1846,1982,o),
(1745,1876,o),
(1690,1723,o),
(1684,1624,qs),
(1672,1408,l),
(1924,1408,l),
(1924,1624,ls)
);
},
{
closed = 1;
nodes = (
(1571,116,o),
(1688,250,q),
(1698,250,l),
(1728,0,l),
(1936,0,l),
(1936,1024,l),
(1136,1024,l),
(1136,804,l),
(1728,804,l),
(1696,830,l),
(1696,648,o),
(1540,365,o),
(1263,204,o),
(1080,204,qs),
(890,204,o),
(586,392,o),
(408,758,o),
(408,1024,qs),
(408,1290,o),
(588,1656,o),
(890,1844,o),
(1072,1844,qs),
(1183,1844,o),
(1373,1784,o),
(1527,1670,o),
(1637,1509,o),
(1668,1408,q),
(1924,1408,l),
(1896,1557,o),
(1745,1802,o),
(1518,1979,o),
(1234,2076,o),
(1072,2076,qs),
(876,2076,o),
(545,1930,o),
(302,1656,o),
(168,1267,o),
(168,1024,qs),
(168,700,o),
(397,228,o),
(808,-28,o),
(1080,-28,qs),
(1283,-28,o)
);
}
);
width = 2176;
},
{
layerId = "F2C6FA2E-D08A-4B94-92D2-D7CA5820546A";
shapes = (
{
closed = 1;
nodes = (
(1836,1739,o),
(1873,1831,o),
(1941,1872,o),
(1986,1872,qs),
(1998,1872,o),
(2033,1869,o),
(2052,1866,q),
(2052,1930,l),
(2034,1933,o),
(2000,1936,o),
(1986,1936,qs),
(1936,1936,o),
(1857,1901,o),
(1801,1831,o),
(1772,1730,o),
(1772,1664,qs),
(1772,1408,l),
(1836,1408,l),
(1836,1660,ls)
);
},
{
closed = 1;
nodes = (
(1689,228,o),
(1780,474,q),
(1788,474,l),
(1788,0,l),
(1852,0,l),
(1852,928,l),
(1080,928,l),
(1080,864,l),
(1816,864,l),
(1788,888,l),
(1792,620,o),
(1606,239,o),
(1274,36,o),
(1060,36,qs),
(818,36,o),
(462,287,o),
(268,732,o),
(268,1024,qs),
(268,1320,o),
(464,1765,o),
(817,2012,o),
(1052,2012,qs),
(1210,2012,o),
(1461,1904,o),
(1643,1726,o),
(1754,1513,o),
(1772,1408,q),
(1836,1408,l),
(1818,1518,o),
(1703,1751,o),
(1509,1952,o),
(1232,2076,o),
(1052,2076,qs),
(862,2076,o),
(550,1926,o),
(325,1647,o),
(204,1260,o),
(204,1024,qs),
(204,711,o),
(415,237,o),
(800,-28,o),
(1060,-28,qs),
(1310,-28,o)
);
}
);
width = 2004;
},
{
layerId = "F8E60EAC-58E2-4CB8-A8B6-FD6FE89414CC";
shapes = (
{
closed = 1;
nodes = (
(2044,1834,o),
(2128,1918,o),
(2262,1944,o),
(2336,1944,qs),
(2372,1944,o),
(2445,1935,o),
(2484,1932,q),
(2484,2364,l),
(2415,2379,o),
(2300,2396,o),
(2240,2396,qs),
(2095,2396,o),
(1819,2312,o),
(1599,2147,o),
(1471,1906,o),
(1472,1748,qs),
(1476,1372,l),
(2044,1372,l),
(2044,1748,ls)
);
},
{
closed = 1;
nodes = (
(1582,104,o),
(1676,224,q),
(1688,224,l),
(1710,0,l),
(2064,0,l),
(2064,1144,l),
(1140,1144,l),
(1140,748,l),
(1628,748,l),
(1512,758,l),
(1512,666,o),
(1428,530,o),
(1259,456,o),
(1132,456,qs),
(990,456,o),
(796,592,o),
(696,848,o),
(696,1028,qs),
(696,1206,o),
(804,1458,o),
(1006,1592,o),
(1146,1592,qs),
(1211,1592,o),
(1323,1563,o),
(1412,1507,o),
(1471,1425,o),
(1484,1372,q),
(2044,1372,l),
(2028,1527,o),
(1877,1785,o),
(1632,1973,o),
(1316,2076,o),
(1134,2076,qs),
(927,2076,o),
(562,1937,o),
(282,1666,o),
(124,1274,o),
(124,1020,qs),
(124,696,o),
(379,226,o),
(831,-28,o),
(1128,-28,qs),
(1307,-28,o)
);
}
);
width = 2464;
}
);
note = uniE004;
unicode = 57348;
},
{
glyphname = uni0048;
kernLeft = uni0042;
kernRight = uni018E;
lastChange = "2025-05-18 18:08:37 +0000";
layers = (
{
layerId = m01;
shapes = (
{
closed = 1;
nodes = (
(124,0,l),
(381,0,l),
(381,2048,l),
(124,2048,l)
);
},
{
closed = 1;
nodes = (
(1453,0,l),
(1708,0,l),
(1708,2048,l),
(1453,2048,l)
);
},
{
closed = 1;
nodes = (
(268,911,l),
(1613,911,l),
(1613,1137,l),
(268,1137,l)
);
}
);
width = 1832;
},
{
layerId = "F2C6FA2E-D08A-4B94-92D2-D7CA5820546A";
shapes = (
{
closed = 1;
nodes = (
(160,0,l),
(224,0,l),
(224,2048,l),
(160,2048,l)
);
},
{
closed = 1;
nodes = (
(1487,0,l),
(1551,0,l),
(1551,2048,l),
(1487,2048,l)
);
},
{
closed = 1;
nodes = (
(180,987,l),
(1525,987,l),
(1525,1039,l),
(180,1039,l)
);
}
);
width = 1711;
},
{
layerId = "F8E60EAC-58E2-4CB8-A8B6-FD6FE89414CC";
shapes = (
{
closed = 1;
nodes = (
(66,0,l),
(1025,0,l),
(1025,2048,l),
(66,2048,l)
);
},
{
closed = 1;
nodes = (
(1761,0,l),
(2721,0,l),
(2721,2048,l),
(1761,2048,l)
);
},
{
closed = 1;
nodes = (
(673,672,l),
(2017,672,l),
(2017,1311,l),
(673,1311,l)
);
}
);
width = 2787;
}
);
note = uni0048;
unicode = 72;
},
{
glyphname = uni0049;
kernLeft = uni0042;
kernRight = uni018E;
lastChange = "2025-05-18 18:09:09 +0000";
layers = (
{
layerId = m01;
shapes = (
{
closed = 1;
nodes = (
(124,0,l),
(381,0,l),
(381,2048,l),
(124,2048,l)
);
}
);
width = 505;
},
{
layerId = "F2C6FA2E-D08A-4B94-92D2-D7CA5820546A";
shapes = (
{
closed = 1;
nodes = (
(160,0,l),
(225,0,l),
(225,2048,l),
(160,2048,l)
);
}
);
width = 385;
},
{
layerId = "F8E60EAC-58E2-4CB8-A8B6-FD6FE89414CC";
shapes = (
{
closed = 1;
nodes = (
(66,0,l),
(1025,0,l),
(1025,2048,l),
(66,2048,l)
);
}
);
width = 1091;
}
);
note = uni0049;
unicode = 73;
},
{
glyphname = uniE00C;
kernLeft = uni0042;
kernRight = uni018E;
layers = (
{
layerId = m01;
shapes = (
{
closed = 1;
nodes = (
(1112,2048,l),
(136,2048,l),
(136,1828,l),
(1112,1828,l)
);
},
{
closed = 1;
nodes = (
(1112,220,l),
(136,220,l),
(136,0,l),
(1112,0,l)
);
},
{
closed = 1;
nodes = (
(500,0,l),
(748,0,l),
(748,2048,l),
(500,2048,l)
);
}
);
width = 1248;
},
{
layerId = "F2C6FA2E-D08A-4B94-92D2-D7CA5820546A";
shapes = (
{
closed = 1;
nodes = (
(812,2048,l),
(172,2048,l),
(172,1984,l),
(812,1984,l)
);
},
{
closed = 1;
nodes = (
(812,64,l),
(172,64,l),
(172,0,l),
(812,0,l)
);
},
{
closed = 1;
nodes = (
(460,0,l),
(524,0,l),
(524,2048,l),
(460,2048,l)
);
}
);
width = 984;
},
{
layerId = "F8E60EAC-58E2-4CB8-A8B6-FD6FE89414CC";
shapes = (
{
closed = 1;
nodes = (
(1344,2048,l),
(76,2048,l),
(76,1600,l),
(1344,1600,l)
);
},
{
closed = 1;
nodes = (
(1344,448,l),
(76,448,l),
(76,0,l),
(1344,0,l)
);
},
{
closed = 1;
nodes = (
(432,0,l),
(988,0,l),
(988,2048,l),
(432,2048,l)
);
}
);
width = 1420;
}
);
note = uniE00C;
unicode = 57356;
},
{
glyphname = uni004A;
kernLeft = uni004A;
kernRight = uni004A;
lastChange = "2025-05-18 20:34:14 +0000";
layers = (
{
layerId = m01;
shapes = (
{
closed = 1;
nodes = (
(1284,2048,l),
(1026,2048,l),
(1026,532,l),
(1026,336,o),
(867,177,o),
(671,177,c),
(475,177,o),
(316,336,o),
(316,532,c),
(58,532,l),
(58,226,o),
(333,-48,o),
(671,-48,c),
(1010,-48,o),
(1284,226,o),
(1284,565,c)
);
}
);
width = 1408;
},
{
layerId = "F2C6FA2E-D08A-4B94-92D2-D7CA5820546A";
shapes = (
{
closed = 1;
nodes = (
(1103,2048,l),
(1039,2048,l),
(1039,502,l),
(1039,251,o),
(870,28,o),
(589,28,c),
(332,28,o),
(140,231,o),
(140,502,c),
(76,502,l),
(66,206,o),
(302,-36,o),
(580,-36,c),
(838,-36,o),
(1103,146,o),
(1103,505,c)
);
}
);
width = 1263;
},
{
layerId = "F8E60EAC-58E2-4CB8-A8B6-FD6FE89414CC";
shapes = (
{
closed = 1;
nodes = (
(2677,2048,l),
(1710,2048,l),
(1710,872,l),
(1710,719,o),
(1563,597,o),
(1347,597,c),
(1130,597,o),
(985,719,o),
(985,872,c),
(16,872,l),
(38,210,o),
(510,-49,o),
(1347,-49,c),
(2204,-49,o),
(2677,225,o),
(2677,919,c)
);
}
);
width = 2738;
}
);
note = uni004A;
unicode = 74;
},
{
glyphname = uni004B;
kernLeft = uni0042;
kernRight = uni004B;
lastChange = "2025-05-18 18:10:30 +0000";
layers = (
{
layerId = m01;
shapes = (
{
closed = 1;
nodes = (
(124,0,l),
(380,0,l),
(380,2048,l),
(124,2048,l)
);
},
{
closed = 1;
nodes = (
(1308,2048,l),
(380,1120,l),
(716,1120,l),
(1644,2048,l)
);
},
{
closed = 1;
nodes = (
(380,1120,l),
(1389,0,l),
(1724,0,l),
(716,1120,l)
);
}
);
width = 1760;
},
{
layerId = "F2C6FA2E-D08A-4B94-92D2-D7CA5820546A";
shapes = (
{
closed = 1;
nodes = (
(160,0,l),
(223,0,l),
(223,2048,l),
(160,2048,l)
);
},
{
closed = 1;
nodes = (
(1311,2048,l),
(223,1120,l),
(319,1120,l),
(1407,2048,l)
);
},
{
closed = 1;
nodes = (
(223,1120,l),
(1391,0,l),
(1487,0,l),
(319,1120,l)
);
}
);
width = 1535;
},
{
layerId = "F8E60EAC-58E2-4CB8-A8B6-FD6FE89414CC";
shapes = (
{
closed = 1;
nodes = (
(61,0,l),
(1021,0,l),
(1021,2048,l),
(61,2048,l)
);
},
{
closed = 1;
nodes = (
(1949,2048,l),
(1021,1120,l),
(2061,1120,l),
(2989,2048,l)
);
},
{
closed = 1;
nodes = (
(1021,1120,l),
(2076,0,l),
(3117,0,l),
(2061,1120,l)
);
}
);
width = 3125;
}
);
note = uni004B;
unicode = 75;
},
{
glyphname = uni004C;
kernLeft = uni0042;
kernRight = uni004C;
lastChange = "2025-05-18 18:11:42 +0000";
layers = (
{
layerId = m01;
shapes = (
{
closed = 1;
nodes = (
(124,0,l),
(380,0,l),
(380,2048,l),
(124,2048,l)
);
},
{
closed = 1;
nodes = (
(124,0,l),
(1388,0,l),
(1388,224,l),
(124,224,l)
);
}
);
width = 1456;
},
{
layerId = "F2C6FA2E-D08A-4B94-92D2-D7CA5820546A";
shapes = (
{
closed = 1;
nodes = (
(160,0,l),
(224,0,l),
(224,2048,l),
(160,2048,l)
);
},
{
closed = 1;
nodes = (
(160,0,l),
(1344,0,l),
(1344,56,l),
(160,56,l)
);
}
);
width = 1382;
},
{
layerId = "F8E60EAC-58E2-4CB8-A8B6-FD6FE89414CC";
shapes = (
{
closed = 1;
nodes = (
(66,0,l),
(1027,0,l),
(1027,2048,l),
(66,2048,l)
);
},
{
closed = 1;
nodes = (
(66,0,l),
(2306,0,l),
(2306,640,l),
(66,640,l)
);
}
);
width = 2352;
}
);
note = uni004C;
unicode = 76;
},
{
glyphname = uni004D;
kernLeft = uni0042;
kernRight = uni018E;
lastChange = "2025-05-18 18:12:17 +0000";
layers = (
{
layerId = m01;
shapes = (
{
closed = 1;
nodes = (
(129,0,l),
(386,0,l),
(386,2048,l),
(129,2048,l)
);
},
{
closed = 1;
nodes = (
(1853,0,l),
(2109,0,l),
(2109,2048,l),
(1853,2048,l)
);
},
{
closed = 1;
nodes = (
(1800,2048,l),
(1000,0,l),
(1261,0,l),
(2061,2048,l)
);
},
{
closed = 1;
nodes = (
(194,2048,l),
(994,0,l),
(1255,0,l),
(455,2048,l)
);
}
);
width = 2238;
},
{
layerId = "F2C6FA2E-D08A-4B94-92D2-D7CA5820546A";
shapes = (
{
closed = 1;
nodes = (
(160,0,l),
(224,0,l),
(224,2048,l),
(160,2048,l)
);
},
{
closed = 1;
nodes = (
(1983,0,l),
(2047,0,l),
(2047,2048,l),
(1983,2048,l)
);
},
{
closed = 1;
nodes = (
(1944,2048,l),
(1080,10,l),
(1152,10,l),
(2015,2048,l)
);
},
{
closed = 1;
nodes = (
(192,2048,l),
(1055,10,l),
(1128,10,l),
(263,2048,l)
);
}
);
width = 2207;
},
{
layerId = "F8E60EAC-58E2-4CB8-A8B6-FD6FE89414CC";
shapes = (
{
closed = 1;
nodes = (
(66,0,l),
(1026,0,l),
(1026,2048,l),
(66,2048,l)
);
},
{
closed = 1;
nodes = (
(2546,0,l),
(3506,0,l),
(3506,2048,l),
(2546,2048,l)
);
},
{
closed = 1;
nodes = (
(2242,2048,l),
(1472,0,l),
(2113,0,l),
(2882,2048,l)
);
},
{
closed = 1;
nodes = (
(705,2048,l),
(1472,0,l),
(2113,0,l),
(1345,2048,l)
);
}
);
width = 3572;
}
);
note = uni004D;
unicode = 77;
},
{
glyphname = uni004E;
kernLeft = uni0042;
kernRight = uni018E;
lastChange = "2025-05-18 18:21:55 +0000";
layers = (
{
layerId = m01;
shapes = (
{
closed = 1;
nodes = (
(124,0,l),
(381,0,l),
(381,2048,l),
(124,2048,l)
);
},
{
closed = 1;
nodes = (
(1453,0,l),
(1708,0,l),
(1708,2048,l),
(1453,2048,l)
);
},
{
closed = 1;
nodes = (
(157,2048,l),
(1405,0,l),
(1676,0,l),
(429,2048,l)
);
}
);
width = 1832;
},
{
layerId = "F2C6FA2E-D08A-4B94-92D2-D7CA5820546A";
shapes = (
{
closed = 1;
nodes = (
(160,0,l),
(224,0,l),
(224,2048,l),
(160,2048,l)
);
},
{
closed = 1;
nodes = (
(1520,0,l),
(1584,0,l),
(1584,2048,l),
(1520,2048,l)
);
},
{
closed = 1;
nodes = (
(192,2048,l),
(1472,0,l),
(1552,0,l),
(272,2048,l)
);
}
);
width = 1744;
},
{
layerId = "F8E60EAC-58E2-4CB8-A8B6-FD6FE89414CC";
shapes = (
{
closed = 1;
nodes = (
(66,0,l),
(1026,0,l),
(1026,2048,l),
(66,2048,l)
);
},
{
closed = 1;
nodes = (
(1874,0,l),
(2834,0,l),
(2834,2048,l),
(1874,2048,l)
);
},
{
closed = 1;
nodes = (
(402,2048,l),
(1762,0,l),
(2513,0,l),
(1153,2048,l)
);
}
);
width = 2900;
}
);
note = uni004E;
unicode = 78;
},
{
glyphname = uni004F;
kernLeft = uni0043;
kernRight = uni0186;
lastChange = "2025-08-19 13:57:44 +0000";
layers = (
{
layerId = m01;
shapes = (
{
closed = 1;
nodes = (
(573,189,o),
(371,561,o),
(371,1022,c),
(371,1481,o),
(573,1853,o),
(1004,1853,c),
(1435,1853,o),
(1636,1481,o),
(1636,1022,c),
(1636,561,o),
(1435,189,o),
(1004,189,c)
);
},
{
closed = 1;
nodes = (
(377,2077,o),
(84,1604,o),
(84,1022,c),
(84,439,o),
(377,-35,o),
(1004,-35,c),
(1630,-35,o),
(1923,439,o),
(1923,1022,c),
(1923,1604,o),
(1630,2077,o),
(1004,2077,c)
);
}
);
width = 2007;
},
{
layerId = "F2C6FA2E-D08A-4B94-92D2-D7CA5820546A";
shapes = (
{
closed = 1;
nodes = (
(450,15,o),
(166,465,o),
(166,1021,c),
(166,1577,o),
(450,2026,o),
(1028,2026,c),
(1607,2026,o),
(1881,1577,o),
(1881,1021,c),
(1881,465,o),
(1607,15,o),
(1028,15,c)
);
},
{
closed = 1;
nodes = (
(395,2077,o),
(102,1604,o),
(102,1021,c),
(102,437,o),
(395,-35,o),
(1020,-35,c),
(1646,-35,o),
(1944,437,o),
(1944,1021,c),
(1944,1604,o),
(1646,2077,o),
(1020,2077,c)
);
}
);
width = 2046;
},
{
layerId = "F8E60EAC-58E2-4CB8-A8B6-FD6FE89414CC";
shapes = (
{
closed = 1;
nodes = (
(1091,587,o),
(992,780,o),
(992,1022,c),
(992,1261,o),
(1091,1455,o),
(1303,1455,c),
(1515,1455,o),
(1614,1261,o),
(1614,1022,c),
(1614,780,o),
(1515,587,o),
(1303,587,c)
);
},
{
closed = 1;
nodes = (
(456,2077,o),
(62,1604,o),
(62,1022,c),
(62,439,o),
(456,-35,o),
(1303,-35,c),
(2148,-35,o),
(2544,439,o),
(2544,1022,c),
(2544,1604,o),
(2148,2077,o),
(1303,2077,c)
);
}
);
width = 2606;
}
);
note = uni004F;
unicode = 79;
},
{
glyphname = uni0050;
kernLeft = uni0042;
kernRight = uni0050;
lastChange = "2025-06-08 19:00:07 +0000";
layers = (
{
layerId = m01;
shapes = (
{
closed = 1;
nodes = (
(124,0,l),
(380,0,l),
(380,2048,l),
(124,2048,l)
);
},
{
closed = 1;
nodes = (
(332,2048,l),
(332,1824,l),
(885,1824,l),
(1074,1824,o),
(1228,1670,o),
(1228,1480,c),
(1228,1290,o),
(1074,1137,o),
(885,1137,c),
(332,1137,l),
(332,911,l),
(932,911,l),
(1246,911,o),
(1501,1166,o),
(1501,1480,c),
(1501,1794,o),
(1246,2048,o),
(932,2048,c)
);
}
);
width = 1577;
},
{
layerId = "F2C6FA2E-D08A-4B94-92D2-D7CA5820546A";
shapes = (
{
closed = 1;
nodes = (
(160,0,l),
(224,0,l),
(224,2048,l),
(160,2048,l)
);
},
{
closed = 1;
nodes = (
(223,2048,l),
(223,1995,l),
(825,1995,l),
(1098,1995,o),
(1328,1783,o),
(1328,1496,c),
(1328,1207,o),
(1098,997,o),
(825,997,c),
(223,997,l),
(223,944,l),
(833,944,l),
(1157,944,o),
(1392,1181,o),
(1392,1497,c),
(1392,1811,o),
(1157,2048,o),
(833,2048,c)
);
}
);
width = 1492;
},
{
layerId = "F8E60EAC-58E2-4CB8-A8B6-FD6FE89414CC";
shapes = (
{
closed = 1;
nodes = (
(66,0,l),
(1024,0,l),
(1024,2048,l),
(66,2048,l)
);
},
{
closed = 1;
nodes = (
(976,2048,l),
(976,1434,l),
(1327,1434,l),
(1447,1434,o),
(1581,1441,o),
(1581,1327,c),
(1581,1213,o),
(1447,1221,o),
(1327,1221,c),
(976,1221,l),
(976,609,l),
(1763,609,l),
(2175,609,o),
(2509,932,o),
(2509,1329,c),
(2509,1726,o),
(2175,2048,o),
(1763,2048,c)
);
}
);
width = 2545;
}
);
note = uni0050;
unicode = 80;
},
{
glyphname = uni0051;
kernLeft = uni0043;
kernRight = uni0186;
lastChange = "2025-08-19 09:03:07 +0000";
layers = (
{
layerId = m01;
shapes = (
{
closed = 1;
nodes = (
(575,221,o),
(364,592,o),
(364,1039,c),
(364,1487,o),
(575,1858,o),
(1009,1858,c),
(1444,1858,o),
(1655,1487,o),
(1655,1039,c),
(1655,592,o),
(1444,221,o),
(1009,221,c)
);
},
{
closed = 1;
nodes = (
(381,2079,o),
(84,1614,o),
(84,1039,c),
(84,465,o),
(381,0,o),
(1013,0,c),
(1645,0,o),
(1943,465,o),
(1943,1039,c),
(1943,1614,o),
(1645,2079,o),
(1013,2079,c)
);
},
{
closed = 1;
nodes = (
(1056,0,l),
(2049,0,l),
(2049,221,l),
(1056,221,l)
);
}
);
width = 2133;
},
{
layerId = "F2C6FA2E-D08A-4B94-92D2-D7CA5820546A";
shapes = (
{
closed = 1;
nodes = (
(447,47,o),
(166,497,o),
(166,1039,c),
(166,1581,o),
(447,2032,o),
(1023,2032,c),
(1600,2032,o),
(1881,1581,o),
(1881,1039,c),
(1881,497,o),
(1600,47,o),
(1023,47,c)
);
},
{
closed = 1;
nodes = (
(387,2079,o),
(102,1613,o),
(102,1039,c),
(102,466,o),
(387,0,o),
(1019,0,c),
(1652,0,o),
(1944,466,o),
(1944,1039,c),
(1944,1613,o),
(1652,2079,o),
(1019,2079,c)
);
},
{
closed = 1;
nodes = (
(1062,0,l),
(2054,0,l),
(2054,47,l),
(1062,47,l)
);
}
);
width = 2156;
},
{
layerId = "F8E60EAC-58E2-4CB8-A8B6-FD6FE89414CC";
shapes = (
{
closed = 1;
nodes = (
(1075,609,o),
(978,800,o),
(978,1040,c),
(978,1276,o),
(1075,1468,o),
(1284,1468,c),
(1493,1468,o),
(1590,1276,o),
(1590,1040,c),
(1590,800,o),
(1493,609,o),
(1284,609,c)
);
},
{
closed = 1;
nodes = (
(450,2077,o),
(62,1612,o),
(62,1039,c),
(62,466,o),
(450,0,o),
(1284,0,c),
(2116,0,o),
(2506,466,o),
(2506,1039,c),
(2506,1612,o),
(2116,2077,o),
(1284,2077,c)
);
},
{
closed = 1;
nodes = (
(1280,0,l),
(2532,0,l),
(2532,472,l),
(1280,472,l)
);
}
);
width = 2594;
}
);
note = uni0051;
unicode = 81;
},
{
glyphname = uni0052;
kernLeft = uni0042;
kernRight = uniE002;
lastChange = "2025-05-18 21:11:02 +0000";
layers = (
{
layerId = m01;
shapes = (
{
closed = 1;
nodes = (
(124,0,l),
(380,0,l),
(380,2048,l),
(124,2048,l)
);
},
{
closed = 1;
nodes = (
(380,2048,l),
(380,1824,l),
(933,1824,l),
(1114,1824,o),
(1261,1677,o),
(1261,1496,c),
(1261,1315,o),
(1114,1168,o),
(933,1168,c),
(380,1168,l),
(380,1040,l),
(1044,1040,l),
(1323,1040,o),
(1549,1265,o),
(1549,1545,c),
(1549,1823,o),
(1323,2048,o),
(1044,2048,c)
);
},
{
closed = 1;
nodes = (
(895,935,l),
(1089,935,o),
(1261,780,o),
(1261,587,c),
(1261,0,l),
(1533,0,l),
(1533,544,l),
(1533,608,l),
(1533,864,o),
(1325,1072,o),
(1069,1072,c),
(380,1072,l),
(380,935,l)
);
}
);
width = 1591;
},
{
layerId = "F2C6FA2E-D08A-4B94-92D2-D7CA5820546A";
shapes = (
{
closed = 1;
nodes = (
(160,0,l),
(224,0,l),
(224,2048,l),
(160,2048,l)
);
},
{
closed = 1;
nodes = (
(224,2048,l),
(224,2000,l),
(864,2000,l),
(1120,2000,o),
(1328,1792,o),
(1328,1537,c),
(1328,1280,o),
(1120,1077,o),
(864,1077,c),
(224,1077,l),
(224,1039,l),
(888,1039,l),
(1167,1039,o),
(1392,1266,o),
(1392,1544,c),
(1392,1823,o),
(1167,2048,o),
(888,2048,c)
);
},
{
closed = 1;
nodes = (
(882,1022,l),
(1140,1022,o),
(1328,851,o),
(1328,580,c),
(1328,0,l),
(1392,0,l),
(1392,544,l),
(1392,608,l),
(1392,864,o),
(1184,1077,o),
(928,1077,c),
(224,1072,l),
(224,1022,l)
);
}
);
width = 1456;
},
{
layerId = "F8E60EAC-58E2-4CB8-A8B6-FD6FE89414CC";
shapes = (
{
closed = 1;
nodes = (
(66,0,l),
(1026,0,l),
(1026,2048,l),
(66,2048,l)
);
},
{
closed = 1;
nodes = (
(992,2048,l),
(992,1487,l),
(1633,1487,l),
(1686,1487,o),
(1729,1445,o),
(1729,1391,c),
(1729,1340,o),
(1686,1295,o),
(1633,1295,c),
(992,1295,l),
(992,1041,l),
(2184,1041,l),
(2463,1041,o),
(2690,1266,o),
(2690,1544,c),
(2690,1823,o),
(2463,2048,o),
(2184,2048,c)
);
},
{
closed = 1;
nodes = (
(1365,808,l),
(1653,808,o),
(1714,747,o),
(1714,459,c),
(1714,0,l),
(2673,0,l),
(2673,544,l),
(2673,609,l),
(2673,863,o),
(2465,1072,o),
(2208,1072,c),
(992,1072,l),
(992,808,l)
);
}
);
width = 2708;
}
);
note = uni0052;
unicode = 82;
},
{
glyphname = uni0053;
kernLeft = uni0053;
kernRight = uni0053;
lastChange = "2025-08-19 14:07:16 +0000";
layers = (
{
layerId = m01;
shapes = (
{
closed = 1;
nodes = (
(738,-23,o),
(594,0,o),
(470,49,c),
(349,97,o),
(254,173,o),
(187,274,c),
(119,375,o),
(84,502,o),
(80,653,c),
(328,653,l),
(332,542,o),
(358,453,o),
(403,387,c),
(450,320,o),
(515,272,o),
(598,241,c),
(683,211,o),
(784,195,o),
(904,195,c),
(1017,195,o),
(1111,210,o),
(1187,239,c),
(1262,269,o),
(1317,311,o),
(1355,366,c),
(1392,420,o),
(1410,485,o),
(1410,563,c),
(1410,628,o),
(1396,681,o),
(1368,724,c),
(1341,767,o),
(1293,805,o),
(1224,838,c),
(1156,871,o),
(1062,899,o),
(941,922,c),
(732,964,l),
(609,988,o),
(505,1023,o),
(418,1071,c),
(331,1119,o),
(262,1181,o),
(214,1257,c),
(167,1336,o),
(142,1430,o),
(142,1539,c),
(142,1646,o),
(171,1739,o),
(226,1820,c),
(283,1901,o),
(364,1964,o),
(467,2007,c),
(572,2051,o),
(696,2073,o),
(838,2073,c),
(1013,2073,o),
(1157,2047,o),
(1271,1993,c),
(1383,1941,o),
(1467,1869,o),
(1521,1776,c),
(1574,1685,o),
(1602,1579,o),
(1606,1463,c),
(1363,1463,l),
(1358,1549,o),
(1337,1620,o),
(1301,1676,c),
(1265,1732,o),
(1212,1776,o),
(1136,1808,c),
(1062,1838,o),
(963,1855,o),
(840,1855,c),
(739,1855,o),
(655,1841,o),
(588,1814,c),
(521,1788,o),
(473,1751,o),
(440,1706,c),
(409,1659,o),
(392,1604,o),
(392,1541,c),
(392,1475,o),
(404,1420,o),
(430,1377,c),
(455,1334,o),
(498,1297,o),
(561,1264,c),
(624,1233,o),
(712,1206,o),
(826,1182,c),
(1033,1140,l),
(1185,1109,o),
(1306,1069,o),
(1398,1017,c),
(1490,966,o),
(1557,903,o),
(1600,829,c),
(1639,754,o),
(1659,667,o),
(1659,567,c),
(1659,449,o),
(1631,343,o),
(1571,254,c),
(1513,164,o),
(1426,96,o),
(1312,48,c),
(1199,0,o),
(1063,-23,o),
(905,-23,c)
);
}
);
width = 1739;
},
{
layerId = "F2C6FA2E-D08A-4B94-92D2-D7CA5820546A";
shapes = (
{
closed = 1;
nodes = (
(714,-27,o),
(573,-6,o),
(459,38,c),
(347,82,o),
(261,147,o),
(203,234,c),
(144,322,o),
(110,431,o),
(100,564,c),
(168,564,l),
(178,444,o),
(210,345,o),
(265,265,c),
(318,188,o),
(396,130,o),
(499,92,c),
(601,53,o),
(728,34,o),
(882,34,c),
(1025,34,o),
(1145,54,o),
(1243,96,c),
(1340,138,o),
(1410,195,o),
(1457,269,c),
(1504,344,o),
(1528,428,o),
(1528,523,c),
(1528,608,o),
(1511,680,o),
(1477,740,c),
(1444,801,o),
(1387,853,o),
(1306,896,c),
(1225,939,o),
(1112,974,o),
(971,1001,c),
(739,1044,l),
(604,1068,o),
(493,1104,o),
(409,1151,c),
(325,1197,o),
(265,1254,o),
(225,1324,c),
(187,1393,o),
(167,1477,o),
(167,1574,c),
(167,1671,o),
(192,1760,o),
(242,1834,c),
(293,1909,o),
(368,1968,o),
(468,2011,c),
(570,2054,o),
(691,2075,o),
(834,2075,c),
(990,2075,o),
(1119,2051,o),
(1224,2004,c),
(1328,1957,o),
(1405,1894,o),
(1455,1814,c),
(1505,1734,o),
(1533,1640,o),
(1538,1536,c),
(1470,1536,l),
(1465,1634,o),
(1438,1719,o),
(1391,1791,c),
(1344,1862,o),
(1273,1917,o),
(1179,1955,c),
(1087,1995,o),
(972,2014,o),
(834,2014,c),
(704,2014,o),
(594,1995,o),
(503,1957,c),
(413,1920,o),
(347,1868,o),
(302,1801,c),
(258,1736,o),
(237,1658,o),
(237,1574,c),
(237,1487,o),
(254,1413,o),
(288,1353,c),
(322,1293,o),
(378,1242,o),
(455,1202,c),
(535,1161,o),
(639,1129,o),
(768,1105,c),
(994,1062,l),
(1147,1034,o),
(1269,994,o),
(1357,944,c),
(1444,896,o),
(1506,838,o),
(1543,769,c),
(1578,702,o),
(1596,619,o),
(1596,523,c),
(1596,415,o),
(1569,320,o),
(1517,236,c),
(1465,154,o),
(1384,90,o),
(1279,42,c),
(1170,-3,o),
(1038,-27,o),
(884,-27,c)
);
}
);
width = 1696;
},
{
layerId = "F8E60EAC-58E2-4CB8-A8B6-FD6FE89414CC";
shapes = (
{
closed = 1;
nodes = (
(1172,-23,o),
(909,6,o),
(697,64,c),
(486,123,o),
(326,204,o),
(218,311,c),
(110,415,o),
(50,540,o),
(40,683,c),
(1021,683,l),
(1029,622,o),
(1053,574,o),
(1093,541,c),
(1132,509,o),
(1185,484,o),
(1251,471,c),
(1319,458,o),
(1404,452,o),
(1505,452,c),
(1599,452,o),
(1678,457,o),
(1738,466,c),
(1798,477,o),
(1843,493,o),
(1870,513,c),
(1899,533,o),
(1915,558,o),
(1915,591,c),
(1915,620,o),
(1900,644,o),
(1871,664,c),
(1845,685,o),
(1799,702,o),
(1733,716,c),
(1671,730,o),
(1581,743,o),
(1468,752,c),
(1090,786,l),
(894,804,o),
(723,837,o),
(577,889,c),
(432,940,o),
(319,1010,o),
(237,1098,c),
(155,1186,o),
(113,1292,o),
(113,1415,c),
(113,1534,o),
(153,1641,o),
(234,1738,c),
(310,1836,o),
(449,1916,o),
(647,1977,c),
(846,2039,o),
(1113,2070,o),
(1451,2070,c),
(1728,2070,o),
(1966,2047,o),
(2165,2002,c),
(2364,1955,o),
(2518,1882,o),
(2631,1785,c),
(2744,1687,o),
(2811,1562,o),
(2829,1410,c),
(1907,1410,l),
(1900,1453,o),
(1883,1487,o),
(1851,1516,c),
(1824,1543,o),
(1780,1564,o),
(1720,1579,c),
(1660,1593,o),
(1583,1601,o),
(1485,1601,c),
(1397,1601,o),
(1325,1596,o),
(1268,1585,c),
(1212,1575,o),
(1170,1560,o),
(1146,1542,c),
(1121,1523,o),
(1107,1499,o),
(1107,1472,c),
(1107,1446,o),
(1118,1424,o),
(1140,1405,c),
(1164,1387,o),
(1199,1373,o),
(1247,1361,c),
(1295,1350,o),
(1357,1342,o),
(1434,1334,c),
(1782,1303,l),
(2043,1280,o),
(2259,1243,o),
(2426,1190,c),
(2593,1139,o),
(2717,1072,o),
(2798,988,c),
(2879,906,o),
(2920,805,o),
(2920,686,c),
(2920,541,o),
(2864,415,o),
(2756,310,c),
(2647,202,o),
(2486,121,o),
(2271,63,c),
(2057,5,o),
(1796,-23,o),
(1485,-23,c)
);
}
);
width = 2960;
}
);
note = uni0053;
unicode = 83;
},
{
glyphname = uni0054;
kernLeft = uni0054;
kernRight = uni04A4;
lastChange = "2025-07-22 19:33:19 +0000";
layers = (
{
layerId = m01;
shapes = (
{
closed = 1;
nodes = (
(740,0,l),
(996,0,l),
(996,2048,l),
(740,2048,l)
);
},
{
closed = 1;
nodes = (
(68,1824,l),
(1668,1824,l),
(1668,2048,l),
(68,2048,l)
);
}
);
width = 1736;
},
{
layerId = "F2C6FA2E-D08A-4B94-92D2-D7CA5820546A";
shapes = (
{
closed = 1;
nodes = (
(773,0,l),
(837,0,l),
(837,2048,l),
(773,2048,l)
);
},
{
closed = 1;
nodes = (
(86,1995,l),
(1525,1995,l),
(1525,2048,l),
(86,2048,l)
);
}
);
width = 1611;
},
{
layerId = "F8E60EAC-58E2-4CB8-A8B6-FD6FE89414CC";
shapes = (
{
closed = 1;
nodes = (
(678,0,l),
(1638,0,l),
(1638,2048,l),
(678,2048,l)
);
},
{
closed = 1;
nodes = (
(38,1408,l),
(2278,1408,l),
(2278,2048,l),
(38,2048,l)
);
}
);
width = 2316;
}
);
note = uni0054;
unicode = 84;
},
{
glyphname = uni0055;
kernRight = uni004A;
lastChange = "2025-05-18 18:27:29 +0000";
layers = (
{
layerId = m01;
shapes = (
{
closed = 1;
nodes = (
(1755,2048,l),
(1499,2048,l),
(1499,753,l),
(1499,452,o),
(1280,209,o),
(940,209,c),
(599,209,o),
(380,452,o),
(380,753,c),
(380,2048,l),
(124,2048,l),
(124,721,l),
(124,305,o),
(445,-31,o),
(940,-31,c),
(1434,-31,o),
(1755,305,o),
(1755,721,c)
);
}
);
width = 1879;
},
{
layerId = "F2C6FA2E-D08A-4B94-92D2-D7CA5820546A";
shapes = (
{
closed = 1;
nodes = (
(1599,2048,l),
(1536,2048,l),
(1536,689,l),
(1536,327,o),
(1243,33,o),
(880,33,c),
(518,33,o),
(224,327,o),
(224,689,c),
(224,2048,l),
(160,2048,l),
(160,689,l),
(160,291,o),
(482,-31,o),
(880,-31,c),
(1278,-31,o),
(1599,291,o),
(1599,689,c)
);
}
);
width = 1759;
},
{
layerId = "F8E60EAC-58E2-4CB8-A8B6-FD6FE89414CC";
shapes = (
{
closed = 1;
nodes = (
(2703,2048,l),
(1745,2048,l),
(1745,882,l),
(1745,732,o),
(1599,610,o),
(1385,610,c),
(1170,610,o),
(1026,732,o),
(1026,882,c),
(1026,2048,l),
(66,2048,l),
(66,931,l),
(66,240,o),
(536,-30,o),
(1385,-30,c),
(2235,-30,o),
(2703,240,o),
(2703,931,c)
);
}
);
width = 2769;
}
);
note = uni0055;
unicode = 85;
},
{
glyphname = uni0056;
kernLeft = uni0056;
kernRight = uni0056;
lastChange = "2025-08-19 14:07:07 +0000";
layers = (
{
layerId = m01;
shapes = (
{
closed = 1;
nodes = (
(1509,2048,l),
(789,0,l),
(1076,0,l),
(1797,2048,l)
);
},
{
closed = 1;
nodes = (
(36,2048,l),
(757,0,l),
(1044,0,l),
(325,2048,l)
);
}
);
width = 1833;
},
{
layerId = "F2C6FA2E-D08A-4B94-92D2-D7CA5820546A";
shapes = (
{
closed = 1;
nodes = (
(1545,2048,l),
(809,0,l),
(883,0,l),
(1619,2048,l)
);
},
{
closed = 1;
nodes = (
(46,2048,l),
(782,0,l),
(856,0,l),
(119,2048,l)
);
}
);
width = 1665;
},
{
layerId = "F8E60EAC-58E2-4CB8-A8B6-FD6FE89414CC";
shapes = (
{
closed = 1;
nodes = (
(1840,2048,l),
(1041,0,l),
(2001,0,l),
(2800,2048,l)
);
},
{
closed = 1;
nodes = (
(32,2048,l),
(833,0,l),
(1809,0,l),
(1008,2048,l)
);
}
);
width = 2832;
}
);
note = uni0056;
unicode = 86;
},
{
glyphname = uni0057;
kernLeft = uni0057;
kernRight = uni0057;
lastChange = "2025-08-19 14:06:16 +0000";
layers = (
{
layerId = m01;
shapes = (
{
closed = 1;
nodes = (
(2473,2048,l),
(1912,0,l),
(2174,0,l),
(2734,2048,l)
);
},
{
closed = 1;
nodes = (
(35,2048,l),
(595,0,l),
(857,0,l),
(296,2048,l)
);
},
{
closed = 1;
nodes = (
(1251,2048,l),
(627,0,l),
(888,0,l),
(1512,2048,l)
);
},
{
closed = 1;
nodes = (
(1257,2048,l),
(1881,0,l),
(2142,0,l),
(1518,2048,l)
);
}
);
width = 2769;
},
{
layerId = "F2C6FA2E-D08A-4B94-92D2-D7CA5820546A";
shapes = (
{
closed = 1;
nodes = (
(2568,2048,l),
(2008,0,l),
(2078,0,l),
(2638,2048,l)
);
},
{
closed = 1;
nodes = (
(40,2048,l),
(600,0,l),
(670,0,l),
(110,2048,l)
);
},
{
closed = 1;
nodes = (
(1293,2048,l),
(637,0,l),
(708,0,l),
(1364,2048,l)
);
},
{
closed = 1;
nodes = (
(1315,2048,l),
(1971,0,l),
(2041,0,l),
(1386,2048,l)
);
}
);
width = 2678;
},
{
layerId = "F8E60EAC-58E2-4CB8-A8B6-FD6FE89414CC";
shapes = (
{
closed = 1;
nodes = (
(3097,2048,l),
(2566,0,l),
(3526,0,l),
(4056,2048,l)
);
},
{
closed = 1;
nodes = (
(24,2048,l),
(551,0,l),
(1512,0,l),
(984,2048,l)
);
},
{
closed = 1;
nodes = (
(1706,2048,l),
(1012,0,l),
(1671,0,l),
(2365,2048,l)
);
},
{
closed = 1;
nodes = (
(1722,2048,l),
(2408,0,l),
(3062,0,l),
(2376,2048,l)
);
}
);
width = 4080;
}
);
note = uni0057;
unicode = 87;
},
{
glyphname = uni0058;
kernLeft = uni0058;
kernRight = uni0058;
lastChange = "2025-08-19 14:05:42 +0000";
layers = (
{
layerId = m01;
shapes = (
{
closed = 1;
nodes = (
(38,2048,l),
(1494,0,l),
(1812,0,l),
(356,2048,l)
);
},
{
closed = 1;
nodes = (
(1494,2048,l),
(38,0,l),
(356,0,l),
(1812,2048,l)
);
}
);
width = 1850;
},
{
layerId = "F2C6FA2E-D08A-4B94-92D2-D7CA5820546A";
shapes = (
{
closed = 1;
nodes = (
(48,2048,l),
(1504,0,l),
(1584,0,l),
(128,2048,l)
);
},
{
closed = 1;
nodes = (
(1504,2048,l),
(48,0,l),
(128,0,l),
(1584,2048,l)
);
}
);
width = 1632;
},
{
layerId = "F8E60EAC-58E2-4CB8-A8B6-FD6FE89414CC";
shapes = (
{
closed = 1;
nodes = (
(42,2048,l),
(1888,0,l),
(2848,0,l),
(1003,2048,l)
);
},
{
closed = 1;
nodes = (
(1888,2048,l),
(42,0,l),
(1003,0,l),
(2848,2048,l)
);
}
);
width = 2890;
}
);
note = uni0058;
unicode = 88;
},
{
glyphname = uni0059;
kernLeft = uni0059;
kernRight = uni0059;
lastChange = "2025-08-19 14:18:28 +0000";
layers = (
{
layerId = m01;
shapes = (
{
closed = 1;
nodes = (
(36,2048,l),
(772,816,l),
(1028,816,l),
(292,2048,l)
);
},
{
closed = 1;
nodes = (
(1508,2048,l),
(772,816,l),
(1028,816,l),
(1764,2048,l)
);
},
{
closed = 1;
nodes = (
(772,0,l),
(1028,0,l),
(1028,929,l),
(772,929,l)
);
}
);
width = 1800;
},
{
layerId = "F2C6FA2E-D08A-4B94-92D2-D7CA5820546A";
shapes = (
{
closed = 1;
nodes = (
(48,2048,l),
(799,816,l),
(863,816,l),
(127,2048,l)
);
},
{
closed = 1;
nodes = (
(1536,2048,l),
(799,816,l),
(863,816,l),
(1615,2048,l)
);
},
{
closed = 1;
nodes = (
(799,0,l),
(863,0,l),
(863,864,l),
(799,864,l)
);
}
);
width = 1663;
},
{
layerId = "F8E60EAC-58E2-4CB8-A8B6-FD6FE89414CC";
shapes = (
{
closed = 1;
nodes = (
(24,2048,l),
(1007,816,l),
(1963,816,l),
(984,2048,l)
);
},
{
closed = 1;
nodes = (
(1976,2048,l),
(1007,816,l),
(1963,816,l),
(2936,2048,l)
);
},
{
closed = 1;
nodes = (
(1006,0,l),
(1965,0,l),
(1965,928,l),
(1006,928,l)
);
}
);
width = 2960;
}
);
note = uni0059;
unicode = 89;
},
{
glyphname = uni005A;
kernLeft = uni005A;
kernRight = uni005A;
lastChange = "2025-05-18 21:33:35 +0000";
layers = (
{
layerId = m01;
shapes = (
{
closed = 1;
nodes = (
(84,1824,l),
(1571,1824,l),
(1571,2048,l),
(84,2048,l)
);
},
{
closed = 1;
nodes = (
(84,0,l),
(1571,0,l),
(1571,224,l),
(84,224,l)
);
},
{
closed = 1;
nodes = (
(1268,1824,l),
(84,224,l),
(387,224,l),
(1571,1824,l)
);
}
);
width = 1655;
},
{
layerId = "F2C6FA2E-D08A-4B94-92D2-D7CA5820546A";
shapes = (
{
closed = 1;
nodes = (
(134,1988,l),
(1542,1988,l),
(1542,2048,l),
(134,2048,l)
);
},
{
closed = 1;
nodes = (
(102,0,l),
(1557,0,l),
(1557,60,l),
(102,60,l)
);
},
{
closed = 1;
nodes = (
(1458,1988,l),
(102,60,l),
(186,60,l),
(1542,1988,l)
);
}
);
width = 1659;
},
{
layerId = "F8E60EAC-58E2-4CB8-A8B6-FD6FE89414CC";
shapes = (
{
closed = 1;
nodes = (
(70,1408,l),
(2150,1408,l),
(2150,2048,l),
(70,2048,l)
);
},
{
closed = 1;
nodes = (
(70,0,l),
(2183,0,l),
(2183,640,l),
(70,640,l)
);
},
{
closed = 1;
nodes = (
(1133,1408,l),
(70,640,l),
(1087,640,l),
(2150,1408,l)
);
}
);
width = 2253;
}
);
note = uni005A;
unicode = 90;
},
{
glyphname = uni0061;
kernLeft = uni0061;
kernRight = uni0061;
lastChange = "2025-06-24 16:11:29 +0000";
layers = (
{
layerId = m01;
shapes = (
{
closed = 1;
nodes = (
(1340,0,l),
(1340,960,l),
(1340,1001,ls),
(1342,1243,o),
(1345,1551,o),
(748,1551,cs),
(336,1551,o),
(197,1362,o),
(164,1104,c),
(419,1104,l),
(438,1248,o),
(515,1377,o),
(748,1376,cs),
(1029,1375,o),
(1083,1193,o),
(1083,1009,cs),
(1083,959,l),
(909,975,o),
(652,967,o),
(510,932,cs),
(217,869,o),
(26,607,o),
(82,348,cs),
(138,88,o),
(432,-73,o),
(724,-10,cs),
(889,26,o),
(995,96,o),
(1083,279,c),
(1083,0,l)
);
},
{
closed = 1;
nodes = (
(591,179,o),
(411,242,o),
(372,398,c),
(333,615,o),
(464,712,o),
(669,750,cs),
(767,770,o),
(945,770,o),
(1068,761,c),
(1068,617,ls),
(1068,517,o),
(1046,414,o),
(980,338,cs),
(927,277,o),
(864,229,o),
(795,217,cs)
);
}
);
width = 1448;
},
{
layerId = "F2C6FA2E-D08A-4B94-92D2-D7CA5820546A";
shapes = (
{
closed = 1;
nodes = (
(1243,0,l),
(1243,960,l),
(1243,1001,ls),
(1244,1243,o),
(1266,1551,o),
(725,1551,cs),
(350,1551,o),
(224,1362,o),
(194,1104,c),
(270,1104,l),
(282,1259,o),
(359,1497,o),
(721,1496,cs),
(1186,1495,o),
(1179,1236,o),
(1179,1000,cs),
(1179,959,l),
(992,975,o),
(716,969,o),
(564,938,cs),
(250,874,o),
(45,678,o),
(114,348,cs),
(169,87,o),
(435,-76,o),
(788,-5,c),
(986,53,o),
(1100,170,o),
(1179,320,c),
(1179,0,l)
);
},
{
closed = 1;
nodes = (
(499,-6,o),
(231,113,o),
(177,355,cs),
(103,686,o),
(343,843,o),
(612,895,cs),
(751,922,o),
(1005,918,o),
(1179,906,c),
(1179,610,ls),
(1179,410,o),
(1161,368,o),
(1068,249,c),
(1005,170,o),
(937,102,o),
(784,54,c)
);
}
);
width = 1383;
},
{
layerId = "F8E60EAC-58E2-4CB8-A8B6-FD6FE89414CC";
shapes = (
{
closed = 1;
nodes = (
(2245,0,l),
(2245,960,l),
(2245,1002,ls),
(2249,1191,o),
(2240,1540,o),
(1159,1540,cs),
(412,1540,o),
(114,1341,o),
(101,1010,c),
(1052,1010,l),
(1062,1154,o),
(1121,1209,o),
(1220,1208,cs),
(1309,1208,o),
(1392,1164,o),
(1392,1010,cs),
(1392,917,l),
(1296,928,o),
(937,962,o),
(620,937,c),
(169,902,o),
(-18,703,o),
(48,348,c),
(138,-10,o),
(515,-73,o),
(908,-10,cs),
(1131,26,o),
(1273,96,o),
(1392,279,c),
(1392,0,l)
);
},
{
closed = 1;
nodes = (
(1109,411,o),
(1011,441,o),
(994,517,cs),
(971,620,o),
(1043,670,o),
(1150,688,cs),
(1201,696,o),
(1295,696,o),
(1360,693,c),
(1360,623,ls),
(1360,574,o),
(1348,524,o),
(1313,489,cs),
(1286,458,o),
(1253,434,o),
(1216,429,cs)
);
}
);
width = 2307;
}
);
note = uni0061;
unicode = 97;
},
{
glyphname = uniE02C;
kernLeft = uniE02C;
kernRight = uni01F6;
layers = (
{
layerId = m01;
shapes = (
{
closed = 1;
nodes = (
(1122,67,o),
(1218,194,o),
(1244,236,q),
(1272,236,l),
(1272,0,l),
(1500,0,l),
(1500,1536,l),
(1264,1536,l),
(1264,1292,l),
(1244,1292,l),
(1218,1332,o),
(1125,1457,o),
(950,1556,o),
(800,1556,qs),
(606,1556,o),
(310,1362,o),
(144,1006,o),
(144,764,qs),
(144,520,o),
(310,163,o),
(604,-32,o),
(796,-32,qs),
(944,-32,o)
);
},
{
closed = 1;
nodes = (
(481,337,o),
(380,604,o),
(380,768,qs),
(380,930,o),
(479,1191,o),
(678,1344,o),
(828,1344,qs),
(972,1344,o),
(1168,1199,o),
(1268,940,o),
(1268,768,qs),
(1268,594,o),
(1166,329,o),
(970,180,o),
(828,180,qs),
(680,180,o)
);
}
);
width = 1748;
},
{
layerId = "F2C6FA2E-D08A-4B94-92D2-D7CA5820546A";
shapes = (
{
closed = 1;
nodes = (
(1100,70,o),
(1250,257,o),
(1292,384,q),
(1300,384,l),
(1300,0,l),
(1364,0,l),
(1364,1536,l),
(1300,1536,l),
(1300,1144,l),
(1292,1144,l),
(1252,1272,o),
(1100,1459,o),
(894,1560,o),
(772,1560,qs),
(592,1560,o),
(326,1350,o),
(180,990,o),
(180,764,qs),
(180,537,o),
(324,177,o),
(590,-32,o),
(772,-32,qs),
(895,-32,o)
);
},
{
closed = 1;
nodes = (
(372,225,o),
(244,556,o),
(244,764,qs),
(244,972,o),
(373,1303,o),
(610,1496,o),
(772,1496,qs),
(934,1496,o),
(1171,1303,o),
(1300,972,o),
(1300,764,qs),
(1300,556,o),
(1172,225,o),
(935,32,o),
(772,32,qs),
(609,32,o)
);
}
);
width = 1684;
},
{
layerId = "F8E60EAC-58E2-4CB8-A8B6-FD6FE89414CC";
shapes = (
{
closed = 1;
nodes = (
(973,51,o),
(1092,174,o),
(1124,252,q),
(1136,252,l),
(1136,0,l),
(1684,0,l),
(1684,1536,l),
(1132,1536,l),
(1132,1268,l),
(1124,1268,l),
(1094,1346,o),
(978,1477,o),
(806,1556,o),
(692,1556,qs),
(540,1556,o),
(265,1394,o),
(92,1046,o),
(92,768,qs),
(92,502,o),
(257,152,o),
(532,-20,o),
(696,-20,qs),
(804,-20,o)
);
},
{
closed = 1;
nodes = (
(717,491,o),
(660,654,o),
(660,768,qs),
(660,882,o),
(717,1045,o),
(824,1132,o),
(900,1132,qs),
(976,1132,o),
(1085,1045,o),
(1144,882,o),
(1144,768,qs),
(1144,656,o),
(1085,493,o),
(976,404,o),
(900,404,qs),
(824,404,o)
);
}
);
width = 1816;
}
);
note = uniE02C;
unicode = 57388;
},
{
glyphname = uni0062;
kernLeft = uni0042;
kernRight = uni0062;
lastChange = "2025-05-18 18:33:16 +0000";
layers = (
{
layerId = m01;
shapes = (
{
closed = 1;
nodes = (
(124,1,l),
(379,1,l),
(379,2048,l),
(124,2048,l)
);
},
{
closed = 1;
nodes = (
(523,176,o),
(379,433,o),
(379,752,c),
(379,1072,o),
(523,1345,o),
(811,1345,c),
(1115,1345,o),
(1242,1072,o),
(1242,752,c),
(1242,433,o),
(1115,176,o),
(811,176,c)
);
},
{
closed = 1;
nodes = (
(443,1536,o),
(236,1201,o),
(236,769,c),
(236,336,o),
(443,-15,o),
(890,-15,c),
(1323,-15,o),
(1530,336,o),
(1530,769,c),
(1530,1185,o),
(1323,1536,o),
(890,1536,c)
);
}
);
width = 1602;
},
{
layerId = "F2C6FA2E-D08A-4B94-92D2-D7CA5820546A";
shapes = (
{
closed = 1;
nodes = (
(160,0,l),
(224,0,l),
(224,2048,l),
(160,2048,l)
);
},
{
closed = 1;
nodes = (
(410,39,o),
(224,378,o),
(224,752,c),
(224,1127,o),
(410,1483,o),
(809,1483,c),
(1208,1483,o),
(1393,1144,o),
(1393,749,c),
(1393,355,o),
(1208,39,o),
(809,39,c)
);
},
{
closed = 1;
nodes = (
(367,1536,o),
(180,1190,o),
(180,763,c),
(180,335,o),
(367,-15,o),
(809,-15,c),
(1250,-15,o),
(1455,332,o),
(1455,761,c),
(1455,1188,o),
(1250,1536,o),
(809,1536,c)
);
}
);
width = 1545;
},
{
layerId = "F8E60EAC-58E2-4CB8-A8B6-FD6FE89414CC";
shapes = (
{
closed = 1;
nodes = (
(66,0,l),
(1025,0,l),
(1025,2048,l),
(66,2048,l)
);
},
{
closed = 1;
nodes = (
(1120,543,o),
(1061,640,o),
(1061,757,c),
(1061,874,o),
(1120,974,o),
(1244,974,c),
(1371,974,o),
(1429,872,o),
(1429,755,c),
(1429,636,o),
(1371,543,o),
(1244,543,c)
);
},
{
closed = 1;
nodes = (
(1070,1537,o),
(821,1190,o),
(821,763,c),
(821,335,o),
(1070,-17,o),
(1598,-17,c),
(2128,-17,o),
(2373,331,o),
(2373,758,c),
(2373,1187,o),
(2128,1537,o),
(1598,1537,c)
);
}
);
width = 2419;
}
);
note = uni0062;
unicode = 98;
},
{
glyphname = uni0063;
kernLeft = uniE02C;
kernRight = uni0063;
lastChange = "2025-06-23 19:34:33 +0000";
layers = (
{
layerId = m01;
shapes = (
{
closed = 1;
nodes = (
(72,324,o),
(312,-31,o),
(814,-31,c),
(1248,-31,o),
(1479,198,o),
(1534,573,c),
(1248,573,l),
(1203,307,o),
(1056,158,o),
(806,158,c),
(501,158,o),
(356,430,o),
(356,763,c),
(356,1095,o),
(501,1366,o),
(806,1366,c),
(1060,1366,o),
(1208,1210,o),
(1251,937,c),
(1536,937,l),
(1485,1320,o),
(1253,1556,o),
(814,1556,c),
(312,1556,o),
(72,1201,o),
(72,763,c)
);
}
);
width = 1600;
},
{
layerId = "F2C6FA2E-D08A-4B94-92D2-D7CA5820546A";
shapes = (
{
closed = 1;
nodes = (
(90,323,o),
(309,-31,o),
(769,-31,c),
(1142,-31,o),
(1356,203,o),
(1422,524,c),
(1358,524,l),
(1292,229,o),
(1093,16,o),
(760,16,c),
(344,16,o),
(154,349,o),
(154,763,c),
(154,1175,o),
(344,1508,o),
(760,1508,c),
(1100,1508,o),
(1296,1288,o),
(1358,984,c),
(1422,984,l),
(1359,1314,o),
(1148,1555,o),
(769,1555,c),
(309,1555,o),
(90,1201,o),
(90,763,c)
);
}
);
width = 1512;
},
{
layerId = "F8E60EAC-58E2-4CB8-A8B6-FD6FE89414CC";
shapes = (
{
closed = 1;
nodes = (
(42,303,o),
(400,-31,o),
(1149,-31,c),
(1913,-31,o),
(2235,308,o),
(2252,716,c),
(1313,716,l),
(1307,633,o),
(1279,474,o),
(1147,474,c),
(1002,474,o),
(978,625,o),
(978,762,c),
(978,900,o),
(1002,1052,o),
(1147,1052,c),
(1266,1052,o),
(1307,913,o),
(1314,825,c),
(2251,825,l),
(2221,1288,o),
(1819,1556,o),
(1149,1556,c),
(400,1556,o),
(42,1221,o),
(42,763,c)
);
}
);
width = 2296;
}
);
note = uni0063;
unicode = 99;
},
{
glyphname = uni0064;
kernLeft = uniE02C;
kernRight = uni018E;
lastChange = "2025-05-18 18:34:51 +0000";
layers = (
{
layerId = m01;
shapes = (
{
closed = 1;
nodes = (
(1223,2048,l),
(1223,1,l),
(1478,1,l),
(1478,2048,l)
);
},
{
closed = 1;
nodes = (
(487,176,o),
(360,433,o),
(360,752,c),
(360,1072,o),
(487,1345,o),
(791,1345,c),
(1079,1345,o),
(1223,1072,o),
(1223,752,c),
(1223,433,o),
(1079,176,o),
(791,176,c)
);
},
{
closed = 1;
nodes = (
(279,1536,o),
(72,1185,o),
(72,769,c),
(72,336,o),
(279,-15,o),
(712,-15,c),
(1159,-15,o),
(1366,336,o),
(1366,769,c),
(1366,1201,o),
(1159,1536,o),
(712,1536,c)
);
}
);
width = 1602;
},
{
layerId = "F2C6FA2E-D08A-4B94-92D2-D7CA5820546A";
shapes = (
{
closed = 1;
nodes = (
(1321,2048,l),
(1321,0,l),
(1385,0,l),
(1385,2048,l)
);
},
{
closed = 1;
nodes = (
(341,45,o),
(158,359,o),
(158,749,c),
(158,1141,o),
(341,1477,o),
(738,1477,c),
(1135,1477,o),
(1322,1141,o),
(1322,752,c),
(1322,391,o),
(1135,45,o),
(738,45,c)
);
},
{
closed = 1;
nodes = (
(295,1536,o),
(90,1188,o),
(90,761,c),
(90,332,o),
(295,-15,o),
(736,-15,c),
(1178,-15,o),
(1365,335,o),
(1365,763,c),
(1365,1190,o),
(1178,1536,o),
(736,1536,c)
);
}
);
width = 1545;
},
{
layerId = "F8E60EAC-58E2-4CB8-A8B6-FD6FE89414CC";
shapes = (
{
closed = 1;
nodes = (
(1394,2048,l),
(1394,0,l),
(2353,0,l),
(2353,2048,l)
);
},
{
closed = 1;
nodes = (
(1048,543,o),
(990,636,o),
(990,755,c),
(990,872,o),
(1048,974,o),
(1175,974,c),
(1299,974,o),
(1358,874,o),
(1358,757,c),
(1358,640,o),
(1299,543,o),
(1175,543,c)
);
},
{
closed = 1;
nodes = (
(291,1537,o),
(46,1187,o),
(46,758,c),
(46,331,o),
(291,-17,o),
(821,-17,c),
(1349,-17,o),
(1598,335,o),
(1598,763,c),
(1598,1190,o),
(1349,1537,o),
(821,1537,c)
);
}
);
width = 2419;
}
);
note = uni0064;
unicode = 100;
},
{
glyphname = uni0065;
kernLeft = uniE02C;
kernRight = uni0250;
lastChange = "2025-06-23 19:32:56 +0000";
layers = (
{
layerId = m01;
shapes = (
{
closed = 1;
nodes = (
(991,1365,o),
(1129,1136,o),
(1160,874,c),
(331,874,l),
(360,1136,o),
(492,1365,o),
(742,1365,c)
);
},
{
closed = 1;
nodes = (
(72,326,o),
(291,-29,o),
(749,-29,c),
(1109,-29,o),
(1316,189,o),
(1389,495,c),
(1125,495,l),
(1065,314,o),
(938,163,o),
(742,163,c),
(492,163,o),
(360,391,o),
(331,652,c),
(1160,652,l),
(1414,652,l),
(1417,689,o),
(1418,726,o),
(1418,763,c),
(1418,1201,o),
(1207,1556,o),
(749,1556,c),
(291,1556,o),
(72,1201,o),
(72,763,c)
);
}
);
width = 1490;
},
{
layerId = "F2C6FA2E-D08A-4B94-92D2-D7CA5820546A";
shapes = (
{
closed = 1;
nodes = (
(1066,1499,o),
(1260,1161,o),
(1260,716,c),
(162,716,l),
(133,1153,o),
(353,1499,o),
(710,1499,c)
);
},
{
closed = 1;
nodes = (
(90,327,o),
(290,-29,o),
(707,-29,c),
(1009,-29,o),
(1193,156,o),
(1273,423,c),
(1208,423,l),
(1145,250,o),
(1021,34,o),
(701,34,c),
(431,34,o),
(188,232,o),
(162,652,c),
(1082,652,l),
(1314,652,l),
(1317,690,o),
(1318,725,o),
(1318,764,c),
(1318,1203,o),
(1125,1556,o),
(707,1556,c),
(290,1556,o),
(90,1203,o),
(90,764,c)
);
}
);
width = 1408;
},
{
layerId = "F8E60EAC-58E2-4CB8-A8B6-FD6FE89414CC";
shapes = (
{
closed = 1;
nodes = (
(1294,1198,o),
(1317,1043,o),
(1319,919,c),
(999,919,l),
(1001,1043,o),
(1032,1198,o),
(1159,1198,c)
);
},
{
closed = 1;
nodes = (
(42,326,o),
(406,-29,o),
(1167,-29,c),
(1765,-29,o),
(2165,181,o),
(2264,594,c),
(1315,594,l),
(1315,509,o),
(1268,408,o),
(1159,408,c),
(1014,408,o),
(977,543,o),
(977,703,c),
(1850,703,l),
(2278,703,l),
(2278,703,o),
(2280,744,o),
(2280,763,c),
(2280,1201,o),
(1929,1556,o),
(1167,1556,c),
(406,1556,o),
(42,1201,o),
(42,763,c)
);
}
);
width = 2322;
}
);
note = uni0065;
unicode = 101;
},
{
glyphname = _part.f_base;
layers = (
{
layerId = m01;
shapes = (
{
closed = 1;
nodes = (
(556,1692,ls),
(556,1806,o),
(659,1924,o),
(776,1924,qs),
(827,1924,o),
(890,1906,o),
(908,1900,q),
(976,2104,l),
(949,2116,o),
(839,2144,o),
(752,2144,qs),
(642,2144,o),
(444,2056,o),
(320,1880,o),
(320,1748,qs),
(320,0,l),
(556,0,l)
);
}
);
width = 1016;
},
{
layerId = "F2C6FA2E-D08A-4B94-92D2-D7CA5820546A";
shapes = (
{
closed = 1;
nodes = (
(468,1788,ls),
(468,1922,o),
(641,2076,o),
(756,2076,qs),
(785,2076,o),
(833,2066,o),
(858,2058,q),
(878,2118,l),
(850,2128,o),
(792,2140,o),
(756,2140,qs),
(662,2140,o),
(501,2054,o),
(404,1896,o),
(404,1788,qs),
(404,0,l),
(466,0,l)
);
}
);
width = 932;
},
{
layerId = "F8E60EAC-58E2-4CB8-A8B6-FD6FE89414CC";
shapes = (
{
closed = 1;
nodes = (
(804,1604,ls),
(804,1658,o),
(858,1724,o),
(936,1724,qs),
(966,1724,o),
(1046,1713,o),
(1076,1704,q),
(1156,2100,l),
(1108,2112,o),
(909,2144,o),
(804,2144,qs),
(636,2144,o),
(388,2020,o),
(252,1770,o),
(252,1580,qs),
(252,0,l),
(804,0,l)
);
}
);
width = 1156;
}
);
note = _part.f_base;
},
{
glyphname = uni0066;
kernLeft = uni0066;
kernRight = uni0066;
lastChange = "2025-06-24 18:12:49 +0000";
layers = (
{
layerId = m01;
shapes = (
{
closed = 1;
nodes = (
(583,0,l),
(583,1321,l),
(903,1321,l),
(903,1534,l),
(583,1534,l),
(583,1727,ls),
(583,1796,o),
(639,1854,o),
(710,1854,cs),
(903,1854,l),
(903,2077,l),
(710,2077,ls),
(499,2077,o),
(327,1906,o),
(327,1694,cs),
(327,1534,l),
(72,1534,l),
(72,1321,l),
(327,1321,l),
(327,0,l)
);
}
);
width = 975;
},
{
layerId = "F2C6FA2E-D08A-4B94-92D2-D7CA5820546A";
shapes = (
{
closed = 1;
nodes = (
(385,0,l),
(385,1483,l),
(800,1483,l),
(800,1536,l),
(385,1536,l),
(385,1697,ls),
(385,1877,o),
(528,2017,o),
(682,2017,cs),
(800,2017,l),
(800,2078,l),
(683,2078,ls),
(472,2078,o),
(320,1916,o),
(320,1704,cs),
(320,1536,l),
(95,1536,l),
(95,1483,l),
(320,1483,l),
(320,0,l)
);
}
);
width = 842;
},
{
layerId = "F8E60EAC-58E2-4CB8-A8B6-FD6FE89414CC";
shapes = (
{
closed = 1;
nodes = (
(1248,0,l),
(1248,1050,l),
(1628,1050,l),
(1628,1453,l),
(1248,1453,l),
(1248,1553,ls),
(1248,1604,o),
(1277,1644,o),
(1337,1644,cs),
(1628,1644,l),
(1628,2047,l),
(707,2047,ls),
(413,2047,o),
(289,1794,o),
(289,1627,cs),
(289,1453,l),
(20,1453,l),
(20,1050,l),
(289,1050,l),
(289,0,l)
);
}
);
width = 1648;
}
);
note = uni0066;
unicode = 102;
},
{
glyphname = uni0067;
kernLeft = uniE02C;
kernRight = uni0067;
lastChange = "2025-05-18 18:38:22 +0000";
layers = (
{
layerId = m01;
shapes = (
{
closed = 1;
nodes = (
(509,173,o),
(364,431,o),
(364,756,c),
(364,1082,o),
(509,1357,o),
(803,1357,c),
(1112,1357,o),
(1241,1082,o),
(1241,756,c),
(1241,431,o),
(1112,173,o),
(803,173,c)
);
},
{
closed = 1;
nodes = (
(1257,1536,l),
(1257,1292,l),
(1144,1455,o),
(981,1552,o),
(737,1552,c),
(283,1552,o),
(72,1210,o),
(72,773,c),
(72,335,o),
(283,-23,o),
(737,-23,c),
(981,-23,o),
(1144,91,o),
(1257,253,c),
(1257,91,l),
(1257,-153,o),
(1192,-401,o),
(819,-401,c),
(558,-401,o),
(445,-267,o),
(413,-119,c),
(148,-119,l),
(229,-445,o),
(461,-608,o),
(819,-608,c),
(1338,-608,o),
(1517,-299,o),
(1517,91,c),
(1517,1536,l)
);
}
);
width = 1625;
},
{
layerId = "F2C6FA2E-D08A-4B94-92D2-D7CA5820546A";
shapes = (
{
closed = 1;
nodes = (
(347,15,o),
(157,343,o),
(157,750,c),
(157,1157,o),
(347,1505,o),
(754,1505,c),
(1161,1505,o),
(1352,1158,o),
(1352,751,c),
(1352,344,o),
(1161,15,o),
(754,15,c)
);
},
{
closed = 1;
nodes = (
(1352,1538,l),
(1352,1146,l),
(1258,1389,o),
(1062,1554,o),
(753,1554,c),
(302,1554,o),
(90,1197,o),
(90,759,c),
(90,321,o),
(302,-35,o),
(753,-35,c),
(1062,-35,o),
(1258,133,o),
(1352,377,c),
(1352,-2,l),
(1352,-300,o),
(1070,-542,o),
(771,-542,c),
(553,-542,o),
(324,-413,o),
(239,-227,c),
(168,-227,l),
(263,-463,o),
(527,-608,o),
(771,-608,c),
(1106,-608,o),
(1419,-336,o),
(1419,-2,c),
(1419,1538,l)
);
}
);
width = 1519;
},
{
layerId = "F8E60EAC-58E2-4CB8-A8B6-FD6FE89414CC";
shapes = (
{
closed = 1;
nodes = (
(1007,600,o),
(951,690,o),
(951,803,c),
(951,917,o),
(1007,1016,o),
(1127,1016,c),
(1247,1016,o),
(1304,919,o),
(1304,805,c),
(1304,693,o),
(1247,600,o),
(1127,600,c)
);
},
{
closed = 1;
nodes = (
(1335,1536,l),
(1335,1349,l),
(1212,1474,o),
(1032,1552,o),
(788,1552,c),
(282,1552,o),
(46,1216,o),
(46,808,c),
(46,398,o),
(282,64,o),
(788,64,c),
(1032,64,o),
(1212,142,o),
(1335,268,c),
(1335,24,l),
(1335,-81,o),
(1311,-221,o),
(1155,-221,c),
(1041,-221,o),
(982,-161,o),
(977,3,c),
(46,3,l),
(210,-511,o),
(572,-680,o),
(1145,-680,c),
(1976,-680,o),
(2256,-254,o),
(2256,271,c),
(2256,1536,l)
);
}
);
width = 2326;
}
);
note = uni0067;
unicode = 103;
},
{
glyphname = uni0068;
kernLeft = uni0042;
kernRight = uni0061;
lastChange = "2025-05-18 18:38:54 +0000";
layers = (
{
layerId = m01;
shapes = (
{
closed = 1;
nodes = (
(526,1536,o),
(280,1291,o),
(280,988,c),
(280,0,l),
(359,0,l),
(359,905,l),
(359,1133,o),
(543,1316,o),
(770,1316,c),
(967,1316,o),
(1127,1157,o),
(1127,960,c),
(1127,0,l),
(1377,0,l),
(1377,1050,l),
(1377,1318,o),
(1159,1536,o),
(860,1536,c)
);
},
{
closed = 1;
nodes = (
(108,0,l),
(359,0,l),
(359,2048,l),
(108,2048,l)
);
}
);
width = 1485;
},
{
layerId = "F2C6FA2E-D08A-4B94-92D2-D7CA5820546A";
shapes = (
{
closed = 1;
nodes = (
(395,1536,o),
(137,1271,o),
(137,968,c),
(137,0,l),
(201,0,l),
(201,1030,l),
(201,1268,o),
(437,1473,o),
(721,1473,c),
(975,1473,o),
(1192,1264,o),
(1192,1019,c),
(1192,0,l),
(1256,0,l),
(1256,1030,l),
(1256,1318,o),
(1018,1536,o),
(719,1536,c)
);
},
{
closed = 1;
nodes = (
(136,0,l),
(201,0,l),
(201,2048,l),
(136,2048,l)
);
}
);
width = 1392;
},
{
layerId = "F8E60EAC-58E2-4CB8-A8B6-FD6FE89414CC";
shapes = (
{
closed = 1;
nodes = (
(1253,1568,o),
(952,1359,o),
(952,1008,c),
(952,0,l),
(1031,0,l),
(1031,842,l),
(1031,1019,o),
(1085,1137,o),
(1252,1137,c),
(1423,1137,o),
(1463,993,o),
(1463,833,c),
(1463,0,l),
(2428,0,l),
(2428,993,l),
(2428,1311,o),
(2175,1568,o),
(1692,1568,c)
);
},
{
closed = 1;
nodes = (
(70,0,l),
(1031,0,l),
(1031,2048,l),
(70,2048,l)
);
}
);
width = 2495;
}
);
note = uni0068;
unicode = 104;
},
{
glyphname = uni0069;
kernLeft = uni0069;
kernRight = uni01C8;
lastChange = "2025-05-18 18:39:24 +0000";
layers = (
{
layerId = m01;
shapes = (
{
closed = 1;
nodes = (
(84,0,l),
(340,0,l),
(340,1536,l),
(84,1536,l)
);
},
{
closed = 1;
nodes = (
(84,1792,l),
(340,1792,l),
(340,2048,l),
(84,2048,l)
);
}
);
width = 424;
},
{
layerId = "F2C6FA2E-D08A-4B94-92D2-D7CA5820546A";
shapes = (
{
closed = 1;
nodes = (
(124,0,l),
(188,0,l),
(188,1536,l),
(124,1536,l)
);
},
{
closed = 1;
nodes = (
(124,1791,l),
(188,1791,l),
(188,2048,l),
(124,2048,l)
);
}
);
width = 312;
},
{
layerId = "F8E60EAC-58E2-4CB8-A8B6-FD6FE89414CC";
shapes = (
{
closed = 1;
nodes = (
(70,0,l),
(1031,0,l),
(1031,1537,l),
(70,1537,l)
);
},
{
closed = 1;
nodes = (
(70,1646,l),
(1031,1646,l),
(1031,2048,l),
(70,2048,l)
);
}
);
width = 1101;
}
);
note = uni0069;
unicode = 105;
},
{
glyphname = uniE04C;
kernLeft = uni0069;
kernRight = uni01C8;
layers = (
{
layerId = m01;
shapes = (
{
closed = 1;
nodes = (
(452,1536,l),
(216,1536,l),
(216,0,l),
(452,0,l)
);
},
{
closed = 1;
nodes = (
(443,-561,o),
(476,-540,q),
(460,-364,l),
(439,-376,o),
(369,-400,o),
(324,-400,qs),
(264,-400,o),
(220,-349,o),
(220,-304,qs),
(220,-214,o),
(362,-66,o),
(452,0,q),
(344,84,l),
(212,24,o),
(52,-114,o),
(-20,-262,o),
(-20,-336,qs),
(-20,-465,o),
(141,-600,o),
(264,-600,qs),
(336,-600,o)
);
}
);
width = 668;
},
{
layerId = "F2C6FA2E-D08A-4B94-92D2-D7CA5820546A";
shapes = (
{
closed = 1;
nodes = (
(344,1536,l),
(280,1536,l),
(280,0,l),
(344,0,l)
);
},
{
closed = 1;
nodes = (
(437,-575,o),
(480,-544,q),
(442,-492,l),
(406,-518,o),
(340,-544,o),
(296,-544,qs),
(220,-544,o),
(124,-462,o),
(124,-374,qs),
(124,-280,o),
(241,-103,o),
(344,0,q),
(280,0,l),
(215,-61,o),
(115,-177,o),
(60,-301,o),
(60,-374,qs),
(60,-489,o),
(193,-608,o),
(296,-608,qs),
(350,-608,o)
);
}
);
width = 624;
},
{
layerId = "F8E60EAC-58E2-4CB8-A8B6-FD6FE89414CC";
shapes = (
{
closed = 1;
nodes = (
(692,1536,l),
(140,1536,l),
(140,0,l),
(692,0,l)
);
},
{
closed = 1;
nodes = (
(692,-517,o),
(732,-496,q),
(668,-248,l),
(649,-251,o),
(610,-264,o),
(584,-264,qs),
(544,-264,o),
(491,-211,o),
(492,-160,qs),
(491,-100,o),
(595,-30,o),
(692,0,q),
(236,136,l),
(178,110,o),
(109,-28,o),
(98,-206,o),
(124,-292,qs),
(162,-418,o),
(353,-556,o),
(492,-556,qs),
(572,-556,o)
);
}
);
width = 832;
}
);
note = uniE04C;
unicode = 57420;
},
{
glyphname = uniE04E;
kernLeft = uni02AE;
kernRight = uni04A2;
layers = (
{
layerId = m01;
shapes = (
{
closed = 1;
nodes = (
(216,-229,o),
(116,-356,o),
(8,-356,qs),
(-4,-356,o),
(-24,-356,o),
(-36,-356,q),
(-36,-576,l),
(-24,-576,o),
(0,-576,o),
(12,-576,qs),
(160,-576,o),
(355,-462,o),
(452,-254,o),
(452,-112,qs),
(452,1536,l),
(216,1536,l),
(216,-112,ls)
);
},
{
closed = 1;
nodes = (
(772,984,l),
(-108,984,l),
(-108,800,l),
(772,800,l)
);
}
);
width = 668;
},
{
layerId = "F2C6FA2E-D08A-4B94-92D2-D7CA5820546A";
shapes = (
{
closed = 1;
nodes = (
(280,-358,o),
(106,-512,o),
(-8,-512,qs),
(-14,-512,o),
(-26,-512,o),
(-32,-512,q),
(-40,-572,l),
(-28,-575,o),
(-14,-576,o),
(-8,-576,qs),
(86,-576,o),
(246,-490,o),
(344,-332,o),
(344,-224,qs),
(344,1536,l),
(280,1536,l),
(280,-224,ls)
);
},
{
closed = 1;
nodes = (
(692,896,l),
(-68,896,l),
(-68,832,l),
(692,832,l)
);
}
);
width = 624;
},
{
layerId = "F8E60EAC-58E2-4CB8-A8B6-FD6FE89414CC";
shapes = (
{
closed = 1;
nodes = (
(140,-107,o),
(67,-168,o),
(-32,-168,qs),
(-47,-168,o),
(-76,-166,o),
(-96,-164,q),
(-96,-572,l),
(-65,-574,o),
(-14,-576,o),
(16,-576,qs),
(219,-576,o),
(523,-482,o),
(692,-254,o),
(692,-52,qs),
(692,1536,l),
(140,1536,l),
(140,-40,ls)
);
},
{
closed = 1;
nodes = (
(952,1104,l),
(-124,1104,l),
(-124,808,l),
(952,808,l)
);
}
);
width = 832;
}
);
note = uniE04E;
unicode = 57422;
},
{
glyphname = uni006A;
kernLeft = uni0191;
kernRight = uni01C8;
lastChange = "2025-06-23 19:40:30 +0000";
layers = (
{
layerId = m01;
shapes = (
{
closed = 1;
nodes = (
(277,1796,l),
(533,1796,l),
(533,2048,l),
(277,2048,l)
);
},
{
closed = 1;
nodes = (
(533,-119,l),
(533,-331,o),
(361,-502,o),
(150,-502,c),
(26,-502,l),
(26,-279,l),
(150,-279,l),
(221,-279,o),
(277,-221,o),
(277,-152,c),
(277,1536,l),
(533,1536,l)
);
}
);
width = 617;
},
{
layerId = "F2C6FA2E-D08A-4B94-92D2-D7CA5820546A";
shapes = (
{
closed = 1;
nodes = (
(364,1791,l),
(428,1791,l),
(428,2048,l),
(364,2048,l)
);
},
{
closed = 1;
nodes = (
(428,-125,l),
(428,-337,o),
(276,-499,o),
(65,-499,c),
(12,-499,l),
(12,-438,l),
(67,-438,l),
(221,-438,o),
(364,-298,o),
(364,-118,c),
(364,1536,l),
(428,1536,l)
);
}
);
width = 552;
},
{
layerId = "F8E60EAC-58E2-4CB8-A8B6-FD6FE89414CC";
shapes = (
{
closed = 1;
nodes = (
(262,1645,l),
(1221,1645,l),
(1221,2048,l),
(262,2048,l)
);
},
{
closed = 1;
nodes = (
(1221,-261,l),
(1221,-428,o),
(1097,-681,o),
(803,-681,c),
(2,-681,l),
(2,-62,l),
(173,-62,l),
(233,-62,o),
(262,-22,o),
(262,29,c),
(262,1536,l),
(1221,1536,l)
);
}
);
width = 1291;
}
);
note = uni006A;
unicode = 106;
},
{
glyphname = uniE04F;
kernRight = uni01C8;
layers = (
{
layerId = m01;
shapes = (
{
closed = 1;
nodes = (
(606,-504,o),
(707,-379,o),
(760,-221,o),
(760,-136,qs),
(760,336,l),
(524,336,l),
(524,-160,ls),
(524,-223,o),
(447,-360,o),
(360,-360,qs),
(318,-360,o),
(253,-321,o),
(216,-256,o),
(216,-216,qs),
(216,-153,o),
(304,-64,o),
(376,-64,qs),
(1056,-64,l),
(1056,160,l),
(376,160,ls),
(264,160,o),
(77,69,o),
(-36,-98,o),
(-36,-212,qs),
(-36,-314,o),
(61,-479,o),
(240,-576,o),
(364,-576,qs),
(459,-576,o)
);
},
{
closed = 1;
nodes = (
(760,1536,l),
(524,1536,l),
(524,0,l),
(760,0,l)
);
}
);
width = 976;
},
{
layerId = "F2C6FA2E-D08A-4B94-92D2-D7CA5820546A";
shapes = (
{
closed = 1;
nodes = (
(340,-524,o),
(422,-430,o),
(464,-305,o),
(464,-232,qs),
(464,70,l),
(400,70,l),
(400,-232,ls),
(400,-352,o),
(273,-512,o),
(148,-512,qs),
(88,-512,o),
(-24,-445,o),
(-96,-332,o),
(-96,-264,qs),
(-96,-161,o),
(71,-15,o),
(192,-16,qs),
(650,-18,l),
(650,46,l),
(192,48,ls),
(93,49,o),
(-67,-35,o),
(-160,-177,o),
(-160,-264,qs),
(-160,-350,o),
(-71,-492,o),
(71,-576,o),
(148,-576,qs),
(223,-576,o)
);
},
{
closed = 1;
nodes = (
(464,1536,l),
(400,1536,l),
(400,0,l),
(464,0,l)
);
}
);
width = 623;
},
{
layerId = "F8E60EAC-58E2-4CB8-A8B6-FD6FE89414CC";
shapes = (
{
closed = 1;
nodes = (
(1124,-509,o),
(1261,-342,o),
(1312,-133,o),
(1312,-24,qs),
(1312,348,l),
(760,348,l),
(760,-172,ls),
(760,-235,o),
(735,-304,o),
(664,-304,qs),
(633,-304,o),
(577,-294,o),
(543,-262,o),
(544,-228,qs),
(546,-174,o),
(634,-152,o),
(680,-152,qs),
(1732,-152,l),
(1732,184,l),
(616,184,ls),
(439,184,o),
(210,85,o),
(99,-92,o),
(100,-208,qs),
(101,-328,o),
(221,-508,o),
(473,-608,o),
(672,-608,qs),
(872,-608,o)
);
},
{
closed = 1;
nodes = (
(1312,1536,l),
(760,1536,l),
(760,0,l),
(1312,0,l)
);
}
);
width = 1564;
}
);
note = uniE04F;
unicode = 57423;
},
{
glyphname = uni006B;
kernLeft = uni0042;
kernRight = uni006B;
lastChange = "2025-05-18 18:46:04 +0000";
layers = (
{
layerId = m01;
shapes = (
{
closed = 1;
nodes = (
(1356,0,l),
(683,880,l),
(1308,1537,l),
(988,1537,l),
(364,880,l),
(1035,0,l)
);
},
{
closed = 1;
nodes = (
(364,0,l),
(364,2048,l),
(108,2048,l),
(108,0,l)
);
}
);
width = 1376;
},
{
layerId = "F2C6FA2E-D08A-4B94-92D2-D7CA5820546A";
shapes = (
{
closed = 1;
nodes = (
(1090,-1,l),
(290,879,l),
(1008,1536,l),
(910,1536,l),
(200,879,l),
(1001,-1,l)
);
},
{
closed = 1;
nodes = (
(200,-1,l),
(200,2047,l),
(136,2047,l),
(136,-1,l)
);
}
);
width = 1133;
},
{
layerId = "F8E60EAC-58E2-4CB8-A8B6-FD6FE89414CC";
shapes = (
{
closed = 1;
nodes = (
(2696,0,l),
(2023,880,l),
(2648,1537,l),
(1655,1537,l),
(1031,880,l),
(1702,0,l)
);
},
{
closed = 1;
nodes = (
(1031,0,l),
(1031,2048,l),
(72,2048,l),
(72,0,l)
);
}
);
width = 2680;
}
);
note = uni006B;
unicode = 107;
},
{
glyphname = uni006C;
kernLeft = uni0042;
kernRight = uni018E;
lastChange = "2025-05-18 18:46:41 +0000";
layers = (
{
layerId = m01;
shapes = (
{
closed = 1;
nodes = (
(108,0,l),
(364,0,l),
(364,2048,l),
(108,2048,l)
);
}
);
width = 472;
},
{
layerId = "F2C6FA2E-D08A-4B94-92D2-D7CA5820546A";
shapes = (
{
closed = 1;
nodes = (
(136,0,l),
(200,0,l),
(200,2048,l),
(136,2048,l)
);
}
);
width = 336;
},
{
layerId = "F8E60EAC-58E2-4CB8-A8B6-FD6FE89414CC";
shapes = (
{
closed = 1;
nodes = (
(70,0,l),
(1030,0,l),
(1030,2048,l),
(70,2048,l)
);
}
);
width = 1100;
}
);
note = uni006C;
unicode = 108;
},
{
glyphname = uniE050;
kernLeft = uni0042;
kernRight = uni018E;
layers = (
{
layerId = m01;
shapes = (
{
closed = 1;
nodes = (
(216,172,o),
(384,-12,o),
(552,-12,qs),
(603,-12,o),
(697,3,o),
(728,12,q),
(680,216,l),
(663,211,o),
(622,202,o),
(580,200,qs),
(502,198,o),
(452,288,o),
(452,400,qs),
(452,2048,l),
(216,2048,l),
(216,336,ls)
);
}
);
width = 728;
},
{
layerId = "F2C6FA2E-D08A-4B94-92D2-D7CA5820546A";
shapes = (
{
closed = 1;
nodes = (
(272,88,o),
(442,-26,o),
(584,4,q),
(590,6,o),
(608,12,o),
(608,12,q),
(592,72,l),
(592,72,o),
(586,70,o),
(580,68,qs),
(471,43,o),
(336,113,o),
(336,248,qs),
(336,2048,l),
(272,2048,l),
(272,248,ls)
);
}
);
width = 620;
},
{
layerId = "F8E60EAC-58E2-4CB8-A8B6-FD6FE89414CC";
shapes = (
{
closed = 1;
nodes = (
(141,192,o),
(419,-23,o),
(716,-8,qs),
(814,-3,o),
(910,21,o),
(944,32,q),
(864,412,l),
(854,408,o),
(822,404,o),
(796,404,qs),
(746,404,o),
(693,453,o),
(692,500,qs),
(692,2048,l),
(140,2048,l),
(140,448,ls)
);
}
);
width = 928;
}
);
note = uniE050;
unicode = 57424;
},
{
glyphname = uniE051;
kernLeft = uni0042;
kernRight = uni018E;
layers = (
{
layerId = m01;
shapes = (
{
closed = 1;
nodes = (
(-4,848,l),
(672,1104,l),
(672,1280,l),
(-4,1024,l)
);
},
{
closed = 1;
nodes = (
(216,172,o),
(384,-12,o),
(552,-12,qs),
(603,-12,o),
(697,3,o),
(728,12,q),
(680,216,l),
(663,211,o),
(622,202,o),
(580,200,qs),
(502,198,o),
(452,288,o),
(452,400,qs),
(452,2048,l),
(216,2048,l),
(216,336,ls)
);
}
);
width = 728;
},
{
layerId = "F2C6FA2E-D08A-4B94-92D2-D7CA5820546A";
shapes = (
{
closed = 1;
nodes = (
(-4,882,l),
(540,1134,l),
(540,1204,l),
(-4,952,l)
);
},
{
closed = 1;
nodes = (
(244,88,o),
(414,-26,o),
(556,4,q),
(562,6,o),
(580,12,o),
(580,12,q),
(564,72,l),
(564,72,o),
(558,70,o),
(552,68,qs),
(443,43,o),
(308,113,o),
(308,248,qs),
(308,2048,l),
(244,2048,l),
(244,248,ls)
);
}
);
width = 579;
},
{
layerId = "F8E60EAC-58E2-4CB8-A8B6-FD6FE89414CC";
shapes = (
{
closed = 1;
nodes = (
(0,832,l),
(896,1092,l),
(896,1368,l),
(0,1108,l)
);
},
{
closed = 1;
nodes = (
(189,192,o),
(467,-23,o),
(764,-8,qs),
(862,-3,o),
(958,21,o),
(992,32,q),
(912,412,l),
(902,408,o),
(870,404,o),
(844,404,qs),
(794,404,o),
(741,453,o),
(740,500,qs),
(740,2048,l),
(188,2048,l),
(188,448,ls)
);
}
);
width = 976;
}
);
note = uniE051;
unicode = 57425;
},
{
glyphname = uniE054;
kernLeft = uni02AE;
kernRight = uni04A2;
layers = (
{
layerId = m01;
shapes = (
{
closed = 1;
nodes = (
(476,1044,ls),
(404,1044,o),
(312,1132,o),
(312,1192,qs),
(312,1234,o),
(351,1305,o),
(418,1348,o),
(460,1348,qs),
(544,1348,o),
(624,1250,o),
(624,1184,qs),
(624,928,l),
(860,928,l),
(860,1160,ls),
(860,1247,o),
(807,1392,o),
(706,1498,o),
(559,1556,o),
(464,1556,qs),
(340,1556,o),
(161,1459,o),
(64,1294,o),
(64,1192,qs),
(64,1078,o),
(176,913,o),
(362,824,o),
(472,824,qs),
(1156,824,l),
(1156,1044,l)
);
},
{
closed = 1;
nodes = (
(624,172,o),
(792,-12,o),
(960,-12,qs),
(1011,-12,o),
(1105,3,o),
(1136,12,q),
(1088,216,l),
(1071,211,o),
(1030,202,o),
(988,200,qs),
(910,198,o),
(860,288,o),
(860,400,qs),
(860,2048,l),
(624,2048,l),
(624,336,ls)
);
}
);
width = 1180;
},
{
layerId = "F2C6FA2E-D08A-4B94-92D2-D7CA5820546A";
shapes = (
{
closed = 1;
nodes = (
(378,994,ls),
(257,993,o),
(90,1139,o),
(90,1242,qs),
(90,1311,o),
(162,1423,o),
(274,1490,o),
(334,1490,qs),
(459,1490,o),
(586,1330,o),
(586,1210,qs),
(586,908,l),
(650,908,l),
(650,1210,ls),
(650,1283,o),
(608,1408,o),
(526,1502,o),
(409,1554,o),
(334,1554,qs),
(257,1554,o),
(115,1470,o),
(26,1329,o),
(26,1242,qs),
(26,1156,o),
(119,1014,o),
(279,930,o),
(378,930,qs),
(836,932,l),
(836,996,l)
);
},
{
closed = 1;
nodes = (
(588,88,o),
(758,-26,o),
(900,4,q),
(906,6,o),
(924,12,o),
(924,12,q),
(908,72,l),
(908,72,o),
(902,70,o),
(896,68,qs),
(787,43,o),
(652,113,o),
(652,248,qs),
(652,2048,l),
(588,2048,l),
(588,248,ls)
);
}
);
width = 942;
},
{
layerId = "F8E60EAC-58E2-4CB8-A8B6-FD6FE89414CC";
shapes = (
{
closed = 1;
nodes = (
(592,1044,ls),
(531,1044,o),
(479,1093,o),
(480,1120,qs),
(480,1138,o),
(511,1171,o),
(566,1192,o),
(600,1192,qs),
(647,1192,o),
(687,1119,o),
(688,1044,qs),
(688,788,l),
(1240,788,l),
(1240,892,ls),
(1240,1017,o),
(1183,1253,o),
(1044,1444,o),
(798,1556,o),
(608,1556,qs),
(410,1556,o),
(156,1430,o),
(36,1224,o),
(36,1104,qs),
(36,992,o),
(136,815,o),
(354,712,o),
(528,712,qs),
(1540,712,l),
(1540,1044,l)
);
},
{
closed = 1;
nodes = (
(701,192,o),
(979,-23,o),
(1276,-8,qs),
(1374,-3,o),
(1470,21,o),
(1504,32,q),
(1424,412,l),
(1414,408,o),
(1382,404,o),
(1356,404,qs),
(1306,404,o),
(1253,453,o),
(1252,500,qs),
(1252,2048,l),
(700,2048,l),
(700,448,ls)
);
}
);
width = 1576;
}
);
note = uniE054;
unicode = 57428;
},
{
glyphname = uni006D;
kernLeft = uni0250;
kernRight = uni0061;
lastChange = "2025-05-18 18:47:15 +0000";
layers = (
{
layerId = m01;
shapes = (
{
closed = 1;
nodes = (
(526,1536,o),
(280,1291,o),
(280,988,c),
(280,0,l),
(359,0,l),
(359,905,l),
(359,1133,o),
(543,1316,o),
(770,1316,c),
(967,1316,o),
(1127,1157,o),
(1127,960,c),
(1127,0,l),
(1377,0,l),
(1377,1050,l),
(1377,1318,o),
(1159,1536,o),
(860,1536,c)
);
},
{
closed = 1;
nodes = (
(108,0,l),
(359,0,l),
(359,1536,l),
(108,1536,l)
);
},
{
closed = 1;
nodes = (
(1544,1536,o),
(1298,1291,o),
(1298,988,c),
(1298,0,l),
(1377,0,l),
(1377,905,l),
(1377,1133,o),
(1561,1316,o),
(1788,1316,c),
(1985,1316,o),
(2145,1157,o),
(2145,960,c),
(2145,0,l),
(2395,0,l),
(2395,1050,l),
(2395,1318,o),
(2177,1536,o),
(1878,1536,c)
);
}
);
width = 2503;
},
{
layerId = "F2C6FA2E-D08A-4B94-92D2-D7CA5820546A";
shapes = (
{
closed = 1;
nodes = (
(395,1536,o),
(137,1271,o),
(137,968,c),
(137,0,l),
(201,0,l),
(201,1042,l),
(201,1280,o),
(437,1473,o),
(721,1473,c),
(975,1473,o),
(1192,1264,o),
(1192,1019,c),
(1192,0,l),
(1256,0,l),
(1256,1030,l),
(1256,1318,o),
(1018,1536,o),
(719,1536,c)
);
},
{
closed = 1;
nodes = (
(136,0,l),
(201,0,l),
(201,1539,l),
(136,1539,l)
);
},
{
closed = 1;
nodes = (
(1450,1536,o),
(1192,1271,o),
(1192,968,c),
(1192,0,l),
(1256,0,l),
(1256,985,l),
(1256,1223,o),
(1492,1473,o),
(1776,1473,c),
(2030,1473,o),
(2247,1264,o),
(2247,1019,c),
(2247,0,l),
(2311,0,l),
(2311,1030,l),
(2311,1318,o),
(2073,1536,o),
(1774,1536,c)
);
}
);
width = 2447;
},
{
layerId = "F8E60EAC-58E2-4CB8-A8B6-FD6FE89414CC";
shapes = (
{
closed = 1;
nodes = (
(1253,1568,o),
(952,1359,o),
(952,1008,c),
(952,0,l),
(1031,0,l),
(1031,842,l),
(1031,1019,o),
(1085,1137,o),
(1252,1137,c),
(1423,1137,o),
(1463,993,o),
(1463,833,c),
(1463,0,l),
(2428,0,l),
(2428,993,l),
(2428,1311,o),
(2175,1568,o),
(1692,1568,c)
);
},
{
closed = 1;
nodes = (
(70,0,l),
(1031,0,l),
(1031,1536,l),
(70,1536,l)
);
},
{
closed = 1;
nodes = (
(2650,1568,o),
(2349,1359,o),
(2349,1008,c),
(2349,0,l),
(2428,0,l),
(2428,842,l),
(2428,1019,o),
(2482,1137,o),
(2649,1137,c),
(2820,1137,o),
(2860,993,o),
(2860,833,c),
(2860,0,l),
(3825,0,l),
(3825,993,l),
(3825,1311,o),
(3572,1568,o),
(3089,1568,c)
);
}
);
width = 3891;
}
);
note = uni006D;
unicode = 109;
},
{
glyphname = uni006E;
kernLeft = uni0250;
kernRight = uni0061;
lastChange = "2025-05-18 18:47:47 +0000";
layers = (
{
layerId = m01;
shapes = (
{
closed = 1;
nodes = (
(526,1536,o),
(280,1291,o),
(280,988,c),
(280,0,l),
(359,0,l),
(359,905,l),
(359,1133,o),
(543,1316,o),
(770,1316,c),
(967,1316,o),
(1127,1157,o),
(1127,960,c),
(1127,0,l),
(1377,0,l),
(1377,1050,l),
(1377,1318,o),
(1159,1536,o),
(860,1536,c)
);
},
{
closed = 1;
nodes = (
(108,0,l),
(359,0,l),
(359,1536,l),
(108,1536,l)
);
}
);
width = 1485;
},
{
layerId = "F2C6FA2E-D08A-4B94-92D2-D7CA5820546A";
shapes = (
{
closed = 1;
nodes = (
(395,1536,o),
(137,1271,o),
(137,968,c),
(137,0,l),
(201,0,l),
(201,1030,l),
(201,1268,o),
(437,1473,o),
(721,1473,c),
(975,1473,o),
(1192,1264,o),
(1192,1019,c),
(1192,0,l),
(1256,0,l),
(1256,1030,l),
(1256,1318,o),
(1018,1536,o),
(719,1536,c)
);
},
{
closed = 1;
nodes = (
(136,0,l),
(201,0,l),
(201,1539,l),
(136,1539,l)
);
}
);
width = 1392;
},
{
layerId = "F8E60EAC-58E2-4CB8-A8B6-FD6FE89414CC";
shapes = (
{
closed = 1;
nodes = (
(1253,1568,o),
(952,1359,o),
(952,1008,c),
(952,0,l),
(1031,0,l),
(1031,842,l),
(1031,1019,o),
(1085,1137,o),
(1252,1137,c),
(1423,1137,o),
(1463,993,o),
(1463,833,c),
(1463,0,l),
(2428,0,l),
(2428,993,l),
(2428,1311,o),
(2175,1568,o),
(1692,1568,c)
);
},
{
closed = 1;
nodes = (
(70,0,l),
(1031,0,l),
(1031,1536,l),
(70,1536,l)
);
}
);
width = 2494;
}
);
note = uni006E;
unicode = 110;
},
{
glyphname = uni006F;
kernLeft = uniE02C;
kernRight = uni0062;
lastChange = "2025-07-03 13:52:18 +0000";
layers = (
{
layerId = m01;
shapes = (
{
closed = 1;
nodes = (
(502,154,o),
(359,424,o),
(359,757,c),
(359,1091,o),
(502,1362,o),
(804,1362,c),
(1106,1362,o),
(1264,1091,o),
(1264,757,c),
(1264,424,o),
(1106,154,o),
(804,154,c)
);
},
{
closed = 1;
nodes = (
(312,1552,o),
(72,1202,o),
(72,757,c),
(72,328,o),
(312,-36,o),
(804,-36,c),
(1311,-36,o),
(1551,328,o),
(1551,757,c),
(1551,1202,o),
(1311,1552,o),
(804,1552,c)
);
}
);
width = 1623;
},
{
layerId = "F2C6FA2E-D08A-4B94-92D2-D7CA5820546A";
shapes = (
{
closed = 1;
nodes = (
(411,13,o),
(154,375,o),
(154,758,c),
(154,1172,o),
(361,1504,o),
(820,1504,c),
(1264,1504,o),
(1503,1172,o),
(1503,758,c),
(1503,345,o),
(1264,13,o),
(820,13,c)
);
},
{
closed = 1;
nodes = (
(329,1552,o),
(90,1203,o),
(90,758,c),
(90,330,o),
(329,-35,o),
(820,-35,c),
(1328,-35,o),
(1567,330,o),
(1567,758,c),
(1567,1203,o),
(1328,1552,o),
(820,1552,c)
);
}
);
width = 1657;
},
{
layerId = "F8E60EAC-58E2-4CB8-A8B6-FD6FE89414CC";
shapes = (
{
closed = 1;
nodes = (
(1032,507,o),
(981,625,o),
(981,759,c),
(981,890,o),
(1032,1009,o),
(1135,1009,c),
(1236,1009,o),
(1297,890,o),
(1297,759,c),
(1297,625,o),
(1236,507,o),
(1135,507,c)
);
},
{
closed = 1;
nodes = (
(367,1557,o),
(42,1199,o),
(42,759,c),
(42,317,o),
(351,-41,o),
(1145,-41,c),
(1923,-41,o),
(2236,317,o),
(2236,759,c),
(2236,1199,o),
(1923,1557,o),
(1145,1557,c)
);
}
);
width = 2278;
}
);
note = uni006F;
unicode = 111;
},
{
glyphname = uni0070;
kernLeft = uni0250;
kernRight = uni0062;
lastChange = "2025-05-18 18:48:46 +0000";
layers = (
{
layerId = m01;
shapes = (
{
closed = 1;
nodes = (
(363,-511,l),
(363,1536,l),
(108,1536,l),
(108,-511,l)
);
},
{
closed = 1;
nodes = (
(1099,1361,o),
(1226,1104,o),
(1226,785,c),
(1226,465,o),
(1099,192,o),
(795,192,c),
(507,192,o),
(363,465,o),
(363,785,c),
(363,1104,o),
(507,1361,o),
(795,1361,c)
);
},
{
closed = 1;
nodes = (
(1307,1,o),
(1514,352,o),
(1514,768,c),
(1514,1201,o),
(1307,1552,o),
(874,1552,c),
(427,1552,o),
(220,1201,o),
(220,768,c),
(220,336,o),
(427,1,o),
(874,1,c)
);
}
);
width = 1586;
},
{
layerId = "F2C6FA2E-D08A-4B94-92D2-D7CA5820546A";
shapes = (
{
closed = 1;
nodes = (
(200,-512,l),
(200,1536,l),
(136,1536,l),
(136,-512,l)
);
},
{
closed = 1;
nodes = (
(1182,1503,o),
(1366,1184,o),
(1366,787,c),
(1366,389,o),
(1182,47,o),
(784,47,c),
(386,47,o),
(199,386,o),
(199,784,c),
(199,1181,o),
(386,1503,o),
(784,1503,c)
);
},
{
closed = 1;
nodes = (
(1226,0,o),
(1431,348,o),
(1431,775,c),
(1431,1204,o),
(1226,1551,o),
(785,1551,c),
(343,1551,o),
(136,1201,o),
(136,773,c),
(136,346,o),
(343,0,o),
(785,0,c)
);
}
);
width = 1521;
},
{
layerId = "F8E60EAC-58E2-4CB8-A8B6-FD6FE89414CC";
shapes = (
{
closed = 1;
nodes = (
(1029,-512,l),
(1029,1536,l),
(70,1536,l),
(70,-512,l)
);
},
{
closed = 1;
nodes = (
(1375,993,o),
(1433,900,o),
(1433,781,c),
(1433,664,o),
(1375,562,o),
(1248,562,c),
(1124,562,o),
(1065,662,o),
(1065,779,c),
(1065,896,o),
(1124,993,o),
(1248,993,c)
);
},
{
closed = 1;
nodes = (
(2132,-1,o),
(2377,349,o),
(2377,778,c),
(2377,1205,o),
(2132,1553,o),
(1602,1553,c),
(1074,1553,o),
(825,1201,o),
(825,773,c),
(825,346,o),
(1074,-1,o),
(1602,-1,c)
);
}
);
width = 2423;
}
);
note = uni0070;
unicode = 112;
},
{
glyphname = uni0071;
kernLeft = uniE02C;
kernRight = uni0067;
lastChange = "2025-05-18 18:49:20 +0000";
layers = (
{
layerId = m01;
shapes = (
{
closed = 1;
nodes = (
(1478,1536,l),
(1223,1536,l),
(1223,-511,l),
(1478,-511,l)
);
},
{
closed = 1;
nodes = (
(1079,1361,o),
(1223,1104,o),
(1223,785,c),
(1223,465,o),
(1079,192,o),
(791,192,c),
(487,192,o),
(360,465,o),
(360,785,c),
(360,1104,o),
(487,1361,o),
(791,1361,c)
);
},
{
closed = 1;
nodes = (
(1159,1,o),
(1366,336,o),
(1366,768,c),
(1366,1201,o),
(1159,1552,o),
(712,1552,c),
(279,1552,o),
(72,1201,o),
(72,768,c),
(72,352,o),
(279,1,o),
(712,1,c)
);
}
);
width = 1586;
},
{
layerId = "F2C6FA2E-D08A-4B94-92D2-D7CA5820546A";
shapes = (
{
closed = 1;
nodes = (
(1385,1536,l),
(1321,1536,l),
(1321,-512,l),
(1385,-512,l)
);
},
{
closed = 1;
nodes = (
(1135,1503,o),
(1322,1181,o),
(1322,784,c),
(1322,386,o),
(1135,47,o),
(737,47,c),
(339,47,o),
(155,389,o),
(155,787,c),
(155,1184,o),
(339,1503,o),
(737,1503,c)
);
},
{
closed = 1;
nodes = (
(1178,0,o),
(1385,346,o),
(1385,773,c),
(1385,1201,o),
(1178,1551,o),
(736,1551,c),
(295,1551,o),
(90,1204,o),
(90,775,c),
(90,348,o),
(295,0,o),
(736,0,c)
);
}
);
width = 1521;
},
{
layerId = "F8E60EAC-58E2-4CB8-A8B6-FD6FE89414CC";
shapes = (
{
closed = 1;
nodes = (
(2353,1536,l),
(1394,1536,l),
(1394,-512,l),
(2353,-512,l)
);
},
{
closed = 1;
nodes = (
(1299,993,o),
(1358,896,o),
(1358,779,c),
(1358,662,o),
(1299,562,o),
(1175,562,c),
(1048,562,o),
(990,664,o),
(990,781,c),
(990,900,o),
(1048,993,o),
(1175,993,c)
);
},
{
closed = 1;
nodes = (
(1349,-1,o),
(1598,346,o),
(1598,773,c),
(1598,1201,o),
(1349,1553,o),
(821,1553,c),
(291,1553,o),
(46,1205,o),
(46,778,c),
(46,349,o),
(291,-1,o),
(821,-1,c)
);
}
);
width = 2423;
}
);
note = uni0071;
unicode = 113;
},
{
glyphname = uni0072;
kernLeft = uni0250;
kernRight = uni0072;
lastChange = "2025-05-25 15:05:07 +0000";
layers = (
{
layerId = m01;
shapes = (
{
closed = 1;
nodes = (
(356,899,ls),
(356,1040,o),
(455,1222,o),
(620,1299,o),
(732,1304,qs),
(779,1306,o),
(853,1300,o),
(877,1289,q),
(877,1550,l),
(857,1551,o),
(798,1553,o),
(772,1553,qs),
(634,1551,o),
(398,1415,o),
(356,1292,q),
(356,1292,l),
(356,1536,l),
(108,1536,l),
(108,0,l),
(356,0,l)
);
}
);
width = 909;
},
{
layerId = "F2C6FA2E-D08A-4B94-92D2-D7CA5820546A";
shapes = (
{
closed = 1;
nodes = (
(184,1003,ls),
(184,1180,o),
(299,1387,o),
(511,1496,o),
(678,1484,qs),
(690,1483,o),
(698,1483,o),
(710,1481,q),
(710,1545,l),
(698,1547,o),
(690,1547,o),
(678,1548,qs),
(481,1564,o),
(219,1403,o),
(184,1257,q),
(184,1257,l),
(184,1535,l),
(120,1535,l),
(120,-1,l),
(184,-1,l)
);
}
);
width = 750;
},
{
layerId = "F8E60EAC-58E2-4CB8-A8B6-FD6FE89414CC";
shapes = (
{
closed = 1;
nodes = (
(1030,437,ls),
(1030,564,o),
(1137,753,o),
(1323,868,o),
(1439,868,qs),
(1510,868,o),
(1674,833,o),
(1733,798,q),
(1733,1526,l),
(1686,1540,o),
(1583,1556,o),
(1531,1556,qs),
(1314,1556,o),
(1014,1271,o),
(1014,1143,q),
(1014,1143,l),
(1014,1536,l),
(70,1536,l),
(70,0,l),
(1030,0,l)
);
}
);
width = 1753;
}
);
note = uni0072;
unicode = 114;
},
{
glyphname = uniE05D;
kernLeft = uni0250;
kernRight = uni0072;
layers = (
{
layerId = m01;
shapes = (
{
closed = 1;
nodes = (
(725,-573,o),
(752,-564,q),
(752,-364,l),
(737,-367,o),
(697,-372,o),
(676,-372,qs),
(612,-372,o),
(511,-335,o),
(452,-244,o),
(452,-164,qs),
(452,0,l),
(216,0,l),
(216,-164,ls),
(216,-263,o),
(277,-416,o),
(387,-522,o),
(532,-576,o),
(616,-576,qs),
(652,-576,o)
);
},
{
closed = 1;
nodes = (
(452,972,ls),
(452,1076,o),
(553,1239,o),
(728,1332,o),
(840,1332,qs),
(887,1332,o),
(972,1319,o),
(984,1316,q),
(984,1556,l),
(964,1558,o),
(886,1560,o),
(860,1560,qs),
(722,1560,o),
(502,1418,o),
(460,1304,q),
(444,1304,l),
(444,1536,l),
(216,1536,l),
(216,0,l),
(452,0,l)
);
}
);
width = 1048;
},
{
layerId = "F2C6FA2E-D08A-4B94-92D2-D7CA5820546A";
shapes = (
{
closed = 1;
nodes = (
(596,-540,o),
(608,-540,q),
(608,-476,l),
(596,-476,o),
(568,-476,o),
(556,-476,qs),
(492,-476,o),
(392,-420,o),
(336,-320,o),
(336,-256,qs),
(336,0,l),
(272,0,l),
(272,-256,ls),
(272,-318,o),
(314,-422,o),
(390,-498,o),
(494,-540,o),
(556,-540,qs),
(568,-540,o)
);
},
{
closed = 1;
nodes = (
(336,1032,ls),
(336,1166,o),
(457,1374,o),
(668,1492,o),
(804,1492,qs),
(816,1492,o),
(824,1492,o),
(836,1492,q),
(836,1556,l),
(824,1556,o),
(816,1556,o),
(804,1556,qs),
(645,1556,o),
(398,1412,o),
(344,1292,q),
(336,1292,l),
(336,1536,l),
(272,1536,l),
(272,0,l),
(336,0,l)
);
}
);
width = 916;
},
{
layerId = "F8E60EAC-58E2-4CB8-A8B6-FD6FE89414CC";
shapes = (
{
closed = 1;
nodes = (
(976,-563,o),
(1024,-560,q),
(1024,-152,l),
(991,-155,o),
(930,-160,o),
(900,-160,qs),
(852,-160,o),
(756,-142,o),
(692,-94,o),
(692,-48,qs),
(692,0,l),
(140,0,l),
(140,-48,ls),
(140,-217,o),
(235,-426,o),
(402,-537,o),
(625,-576,o),
(752,-576,qs),
(851,-576,o)
);
},
{
closed = 1;
nodes = (
(692,800,ls),
(692,888,o),
(766,1019,o),
(895,1092,o),
(976,1092,qs),
(1019,1092,o),
(1139,1078,o),
(1180,1064,q),
(1180,1535,l),
(1147,1545,o),
(1076,1556,o),
(1040,1556,qs),
(917,1556,o),
(734,1406,o),
(692,1244,q),
(676,1244,l),
(676,1536,l),
(140,1536,l),
(140,0,l),
(692,0,l)
);
}
);
width = 1220;
}
);
note = uniE05D;
unicode = 57437;
},
{
glyphname = uniE05E;
kernLeft = uni0250;
kernRight = uni0072;
layers = (
{
layerId = m01;
shapes = (
{
closed = 1;
nodes = (
(452,0,l),
(216,0,l),
(216,-576,l),
(452,-576,l)
);
},
{
closed = 1;
nodes = (
(452,972,ls),
(452,1076,o),
(553,1239,o),
(728,1332,o),
(840,1332,qs),
(887,1332,o),
(972,1319,o),
(984,1316,q),
(984,1556,l),
(964,1558,o),
(886,1560,o),
(860,1560,qs),
(722,1560,o),
(502,1418,o),
(460,1304,q),
(444,1304,l),
(444,1536,l),
(216,1536,l),
(216,0,l),
(452,0,l)
);
}
);
width = 1048;
},
{
layerId = "F2C6FA2E-D08A-4B94-92D2-D7CA5820546A";
shapes = (
{
closed = 1;
nodes = (
(336,0,l),
(272,0,l),
(272,-576,l),
(336,-576,l)
);
},
{
closed = 1;
nodes = (
(336,1032,ls),
(336,1166,o),
(457,1374,o),
(668,1492,o),
(804,1492,qs),
(816,1492,o),
(824,1492,o),
(836,1492,q),
(836,1556,l),
(824,1556,o),
(816,1556,o),
(804,1556,qs),
(645,1556,o),
(398,1412,o),
(344,1292,q),
(336,1292,l),
(336,1536,l),
(272,1536,l),
(272,0,l),
(336,0,l)
);
}
);
width = 916;
},
{
layerId = "F8E60EAC-58E2-4CB8-A8B6-FD6FE89414CC";
shapes = (
{
closed = 1;
nodes = (
(692,0,l),
(140,0,l),
(140,-576,l),
(692,-576,l)
);
},
{
closed = 1;
nodes = (
(692,800,ls),
(692,888,o),
(766,1019,o),
(895,1092,o),
(976,1092,qs),
(1019,1092,o),
(1139,1078,o),
(1180,1064,q),
(1180,1535,l),
(1147,1545,o),
(1076,1556,o),
(1040,1556,qs),
(917,1556,o),
(734,1406,o),
(692,1244,q),
(676,1244,l),
(676,1536,l),
(140,1536,l),
(140,0,l),
(692,0,l)
);
}
);
width = 1220;
}
);
note = uniE05E;
unicode = 57438;
},
{
glyphname = uniE05F;
kernLeft = uni0250;
kernRight = uni0072;
layers = (
{
layerId = m01;
shapes = (
{
closed = 1;
nodes = (
(452,972,ls),
(452,1076,o),
(553,1238,o),
(728,1332,o),
(840,1332,qs),
(884,1332,o),
(951,1317,o),
(976,1304,q),
(1056,1504,l),
(1020,1530,o),
(924,1560,o),
(860,1560,qs),
(721,1560,o),
(501,1418,o),
(460,1304,q),
(444,1304,l),
(444,1536,l),
(216,1536,l),
(216,0,l),
(452,0,l)
);
}
);
width = 1080;
},
{
layerId = "F2C6FA2E-D08A-4B94-92D2-D7CA5820546A";
shapes = (
{
closed = 1;
nodes = (
(336,1032,ls),
(336,1166,o),
(457,1374,o),
(668,1492,o),
(804,1492,qs),
(848,1492,o),
(925,1479,o),
(956,1468,q),
(980,1528,l),
(943,1541,o),
(854,1556,o),
(804,1556,qs),
(645,1556,o),
(398,1412,o),
(344,1292,q),
(336,1292,l),
(336,1536,l),
(272,1536,l),
(272,0,l),
(336,0,l)
);
}
);
width = 1020;
},
{
layerId = "F8E60EAC-58E2-4CB8-A8B6-FD6FE89414CC";
shapes = (
{
closed = 1;
nodes = (
(692,800,ls),
(693,888,o),
(763,1017,o),
(880,1088,o),
(948,1088,qs),
(992,1088,o),
(1066,1064,o),
(1100,1048,q),
(1260,1500,l),
(1214,1526,o),
(1100,1556,o),
(1040,1556,qs),
(917,1556,o),
(735,1406,o),
(692,1244,q),
(676,1244,l),
(676,1536,l),
(140,1536,l),
(140,0,l),
(692,0,l)
);
}
);
width = 1260;
}
);
note = uniE05F;
unicode = 57439;
},
{
glyphname = uni0073;
kernLeft = uni0073;
kernRight = uni0073;
lastChange = "2025-05-18 18:50:13 +0000";
layers = (
{
layerId = m01;
shapes = (
{
closed = 1;
nodes = (
(592,-32,o),
(478,-14,o),
(383,24,c),
(288,60,o),
(214,118,o),
(160,193,c),
(107,270,o),
(77,368,o),
(70,485,c),
(342,485,l),
(349,411,o),
(367,354,o),
(396,309,c),
(425,266,o),
(465,234,o),
(519,215,c),
(572,196,o),
(642,185,o),
(728,185,c),
(809,185,o),
(874,193,o),
(925,210,c),
(975,227,o),
(1013,252,o),
(1038,286,c),
(1063,317,o),
(1075,358,o),
(1075,405,c),
(1075,450,o),
(1064,486,o),
(1044,515,c),
(1023,544,o),
(989,568,o),
(940,588,c),
(892,608,o),
(826,626,o),
(740,641,c),
(590,668,l),
(489,685,o),
(403,712,o),
(331,750,c),
(260,788,o),
(206,837,o),
(168,898,c),
(130,959,o),
(112,1031,o),
(112,1117,c),
(112,1206,o),
(133,1283,o),
(179,1348,c),
(225,1413,o),
(290,1464,o),
(377,1500,c),
(462,1537,o),
(566,1554,o),
(684,1554,c),
(822,1554,o),
(939,1535,o),
(1032,1494,c),
(1124,1454,o),
(1194,1398,o),
(1241,1322,c),
(1288,1248,o),
(1313,1157,o),
(1317,1049,c),
(1051,1049,l),
(1047,1122,o),
(1030,1180,o),
(1001,1220,c),
(972,1263,o),
(932,1292,o),
(880,1307,c),
(828,1324,o),
(762,1333,o),
(684,1333,c),
(619,1333,o),
(565,1325,o),
(519,1309,c),
(474,1293,o),
(440,1270,o),
(417,1239,c),
(394,1207,o),
(381,1170,o),
(381,1125,c),
(381,1082,o),
(392,1045,o),
(416,1016,c),
(438,987,o),
(469,963,o),
(512,946,c),
(554,928,o),
(608,913,o),
(673,903,c),
(822,875,l),
(940,855,o),
(1038,826,o),
(1114,789,c),
(1191,753,o),
(1248,706,o),
(1288,646,c),
(1328,587,o),
(1348,514,o),
(1348,426,c),
(1348,329,o),
(1323,246,o),
(1274,178,c),
(1224,109,o),
(1152,57,o),
(1058,21,c),
(964,-14,o),
(855,-32,o),
(726,-32,c)
);
}
);
width = 1418;
},
{
layerId = "F2C6FA2E-D08A-4B94-92D2-D7CA5820546A";
shapes = (
{
closed = 1;
nodes = (
(563,-29,o),
(451,-7,o),
(363,35,c),
(275,77,o),
(208,135,o),
(163,207,c),
(120,281,o),
(95,364,o),
(90,459,c),
(158,459,l),
(164,372,o),
(186,297,o),
(226,233,c),
(266,169,o),
(325,119,o),
(403,82,c),
(482,48,o),
(578,30,o),
(695,30,c),
(796,30,o),
(885,43,o),
(960,67,c),
(1035,91,o),
(1094,130,o),
(1136,184,c),
(1179,238,o),
(1200,305,o),
(1200,389,c),
(1200,453,o),
(1187,506,o),
(1159,551,c),
(1131,595,o),
(1086,633,o),
(1027,661,c),
(967,691,o),
(889,713,o),
(792,729,c),
(612,756,l),
(506,775,o),
(418,799,o),
(349,832,c),
(279,864,o),
(227,908,o),
(189,961,c),
(153,1016,o),
(136,1083,o),
(136,1162,c),
(136,1244,o),
(156,1314,o),
(198,1372,c),
(241,1429,o),
(302,1474,o),
(381,1504,c),
(462,1535,o),
(558,1551,o),
(668,1551,c),
(797,1551,o),
(903,1533,o),
(985,1497,c),
(1066,1460,o),
(1126,1410,o),
(1164,1347,c),
(1204,1285,o),
(1225,1212,o),
(1233,1129,c),
(1165,1129,l),
(1159,1202,o),
(1138,1266,o),
(1103,1321,c),
(1069,1373,o),
(1016,1416,o),
(946,1445,c),
(874,1476,o),
(781,1491,o),
(666,1491,c),
(570,1491,o),
(487,1478,o),
(418,1453,c),
(349,1428,o),
(296,1391,o),
(260,1343,c),
(222,1293,o),
(204,1233,o),
(204,1163,c),
(204,1095,o),
(220,1036,o),
(252,990,c),
(285,944,o),
(333,909,o),
(395,882,c),
(460,855,o),
(542,832,o),
(642,816,c),
(821,787,l),
(923,770,o),
(1006,746,o),
(1073,712,c),
(1140,679,o),
(1189,635,o),
(1221,583,c),
(1253,529,o),
(1270,466,o),
(1270,393,c),
(1270,294,o),
(1244,215,o),
(1194,152,c),
(1143,89,o),
(1075,44,o),
(988,14,c),
(903,-15,o),
(804,-29,o),
(694,-29,c)
);
}
);
width = 1360;
},
{
layerId = "F8E60EAC-58E2-4CB8-A8B6-FD6FE89414CC";
shapes = (
{
closed = 1;
nodes = (
(922,-29,o),
(718,-9,o),
(555,32,c),
(393,71,o),
(270,131,o),
(185,209,c),
(100,287,o),
(50,386,o),
(36,503,c),
(880,503,l),
(886,468,o),
(902,439,o),
(924,418,c),
(948,395,o),
(981,379,o),
(1024,370,c),
(1069,359,o),
(1124,355,o),
(1193,355,c),
(1250,355,o),
(1301,358,o),
(1340,365,c),
(1381,371,o),
(1410,380,o),
(1430,392,c),
(1450,405,o),
(1462,423,o),
(1462,441,c),
(1462,459,o),
(1454,472,o),
(1443,484,c),
(1431,497,o),
(1412,507,o),
(1384,514,c),
(1356,522,o),
(1320,528,o),
(1273,532,c),
(843,572,l),
(674,589,o),
(531,617,o),
(416,656,c),
(300,698,o),
(212,751,o),
(152,816,c),
(93,883,o),
(62,961,o),
(62,1052,c),
(62,1163,o),
(105,1256,o),
(189,1331,c),
(272,1405,o),
(397,1461,o),
(559,1499,c),
(723,1537,o),
(921,1556,o),
(1155,1556,c),
(1414,1556,o),
(1624,1533,o),
(1782,1488,c),
(1942,1442,o),
(2057,1381,o),
(2130,1307,c),
(2200,1231,o),
(2240,1144,o),
(2248,1043,c),
(1454,1043,l),
(1449,1079,o),
(1437,1106,o),
(1414,1126,c),
(1394,1148,o),
(1361,1163,o),
(1320,1172,c),
(1278,1181,o),
(1223,1186,o),
(1155,1186,c),
(1095,1186,o),
(1048,1183,o),
(1012,1178,c),
(975,1172,o),
(948,1163,o),
(929,1151,c),
(912,1137,o),
(904,1123,o),
(904,1105,c),
(904,1086,o),
(910,1071,o),
(925,1058,c),
(941,1046,o),
(968,1036,o),
(1006,1027,c),
(1045,1020,o),
(1100,1013,o),
(1172,1006,c),
(1520,973,l),
(1710,957,o),
(1862,927,o),
(1980,885,c),
(2097,843,o),
(2183,790,o),
(2237,726,c),
(2292,662,o),
(2318,587,o),
(2318,500,c),
(2318,386,o),
(2273,289,o),
(2182,211,c),
(2091,132,o),
(1960,72,o),
(1786,32,c),
(1614,-9,o),
(1406,-29,o),
(1163,-29,c)
);
}
);
width = 2354;
}
);
note = uni0073;
unicode = 115;
},
{
glyphname = uniE06A;
kernLeft = uni0042;
kernRight = uni0042;
layers = (
{
layerId = m01;
shapes = (
{
closed = 1;
nodes = (
(640,1856,o),
(788,1856,qs),
(917,1856,o),
(1096,1714,o),
(1096,1564,qs),
(1096,1476,o),
(1036,1369,o),
(956,1285,o),
(896,1182,o),
(896,1096,qs),
(896,989,o),
(994,837,o),
(1138,721,o),
(1282,616,o),
(1380,496,o),
(1380,416,qs),
(1380,312,o),
(1214,192,o),
(1068,192,qs),
(946,192,o),
(797,263,o),
(752,292,q),
(656,84,l),
(716,42,o),
(943,-28,o),
(1084,-28,qs),
(1242,-28,o),
(1482,71,o),
(1616,262,o),
(1616,400,qs),
(1616,524,o),
(1519,692,o),
(1376,813,o),
(1233,913,o),
(1136,1022,o),
(1136,1096,qs),
(1136,1157,o),
(1194,1249,o),
(1270,1347,o),
(1328,1483,o),
(1328,1588,qs),
(1328,1759,o),
(1166,1975,o),
(918,2076,o),
(788,2076,qs),
(634,2076,o),
(389,1938,o),
(248,1664,o),
(248,1460,qs),
(248,0,l),
(484,0,l),
(484,1460,ls),
(484,1664,o)
);
}
);
width = 1776;
},
{
layerId = "F2C6FA2E-D08A-4B94-92D2-D7CA5820546A";
shapes = (
{
closed = 1;
nodes = (
(592,2012,o),
(768,2012,qs),
(926,2012,o),
(1124,1797,o),
(1124,1644,qs),
(1124,1522,o),
(1050,1368,o),
(952,1255,o),
(877,1141,o),
(876,1058,qs),
(875,975,o),
(979,838,o),
(1132,715,o),
(1287,590,o),
(1392,446,o),
(1392,356,qs),
(1393,197,o),
(1202,36,o),
(1040,36,qs),
(919,36,o),
(711,118,o),
(652,166,q),
(608,120,l),
(668,69,o),
(896,-28,o),
(1044,-28,qs),
(1133,-28,o),
(1325,39,o),
(1457,202,o),
(1456,344,qs),
(1455,451,o),
(1351,616,o),
(1197,749,o),
(1044,867,o),
(940,986,o),
(940,1056,qs),
(940,1122,o),
(1014,1228,o),
(1111,1349,o),
(1187,1517,o),
(1188,1644,qs),
(1189,1761,o),
(1082,1958,o),
(891,2076,o),
(766,2076,qs),
(634,2076,o),
(433,1944,o),
(320,1703,o),
(320,1540,qs),
(320,0,l),
(384,0,l),
(384,1524,ls),
(384,1754,o)
);
}
);
width = 1672;
},
{
layerId = "F8E60EAC-58E2-4CB8-A8B6-FD6FE89414CC";
shapes = (
{
closed = 1;
nodes = (
(780,1636,o),
(852,1636,qs),
(936,1636,o),
(1036,1557,o),
(1036,1500,qs),
(1036,1447,o),
(999,1354,o),
(949,1259,o),
(912,1146,o),
(912,1072,qs),
(912,969,o),
(989,844,o),
(1102,765,o),
(1215,696,o),
(1292,606,o),
(1292,532,qs),
(1292,454,o),
(1185,392,o),
(1116,392,qs),
(1011,392,o),
(887,415,o),
(848,424,q),
(736,28,l),
(796,-2,o),
(1012,-28,o),
(1108,-28,qs),
(1370,-28,o),
(1682,124,o),
(1820,369,o),
(1820,508,qs),
(1820,622,o),
(1749,783,o),
(1644,898,o),
(1539,984,o),
(1468,1061,o),
(1468,1104,qs),
(1468,1161,o),
(1497,1254,o),
(1535,1346,o),
(1564,1455,o),
(1564,1528,qs),
(1564,1692,o),
(1390,1939,o),
(1070,2076,o),
(852,2076,qs),
(630,2076,o),
(307,1931,o),
(132,1644,o),
(132,1432,qs),
(132,0,l),
(664,0,l),
(664,1432,ls),
(664,1555,o)
);
}
);
width = 1884;
}
);
note = uniE06A;
unicode = 57450;
},
{
glyphname = uni0074;
kernLeft = uni02AE;
kernRight = uni04A2;
lastChange = "2025-08-19 14:40:07 +0000";
layers = (
{
layerId = m01;
shapes = (
{
closed = 1;
nodes = (
(845,0,l),
(845,223,l),
(682,223,ls),
(611,223,o),
(555,281,o),
(555,350,cs),
(555,1333,l),
(876,1333,l),
(876,1536,l),
(555,1536,l),
(555,1947,l),
(299,1847,l),
(299,1536,l),
(44,1536,l),
(44,1333,l),
(299,1333,l),
(299,383,ls),
(299,171,o),
(471,0,o),
(682,0,cs)
);
}
);
width = 932;
},
{
layerId = "F2C6FA2E-D08A-4B94-92D2-D7CA5820546A";
shapes = (
{
closed = 1;
nodes = (
(767,0,l),
(767,61,l),
(659,61,ls),
(505,61,o),
(362,201,o),
(362,381,cs),
(362,1483,l),
(770,1483,l),
(770,1536,l),
(362,1536,l),
(362,1904,l),
(297,1858,l),
(297,1536,l),
(72,1536,l),
(72,1483,l),
(297,1483,l),
(297,374,ls),
(297,162,o),
(449,0,o),
(660,0,cs)
);
}
);
width = 838;
},
{
layerId = "F8E60EAC-58E2-4CB8-A8B6-FD6FE89414CC";
shapes = (
{
closed = 1;
nodes = (
(1610,0,l),
(1610,403,l),
(1339,403,ls),
(1279,403,o),
(1250,443,o),
(1250,494,cs),
(1250,1132,l),
(1617,1132,l),
(1617,1536,l),
(1250,1536,l),
(1250,2047,l),
(291,1692,l),
(291,1536,l),
(22,1536,l),
(22,1132,l),
(291,1132,l),
(291,420,ls),
(291,253,o),
(415,0,o),
(709,0,cs)
);
}
);
width = 1645;
}
);
note = uni0074;
unicode = 116;
},
{
glyphname = uni0075;
kernLeft = uni0265;
kernRight = uni01F6;
lastChange = "2025-05-18 18:51:21 +0000";
layers = (
{
layerId = m01;
shapes = (
{
closed = 1;
nodes = (
(959,0,o),
(1205,245,o),
(1205,548,c),
(1205,1536,l),
(1126,1536,l),
(1126,631,l),
(1126,403,o),
(942,220,o),
(715,220,c),
(518,220,o),
(358,379,o),
(358,576,c),
(358,1536,l),
(108,1536,l),
(108,486,l),
(108,218,o),
(326,0,o),
(625,0,c)
);
},
{
closed = 1;
nodes = (
(1377,1536,l),
(1126,1536,l),
(1126,0,l),
(1377,0,l)
);
}
);
width = 1485;
},
{
layerId = "F2C6FA2E-D08A-4B94-92D2-D7CA5820546A";
shapes = (
{
closed = 1;
nodes = (
(997,3,o),
(1255,268,o),
(1255,571,c),
(1255,1539,l),
(1191,1539,l),
(1191,509,l),
(1191,271,o),
(955,66,o),
(671,66,c),
(417,66,o),
(200,275,o),
(200,520,c),
(200,1539,l),
(136,1539,l),
(136,509,l),
(136,221,o),
(374,3,o),
(673,3,c)
);
},
{
closed = 1;
nodes = (
(1256,1539,l),
(1191,1539,l),
(1191,0,l),
(1256,0,l)
);
}
);
width = 1392;
},
{
layerId = "F8E60EAC-58E2-4CB8-A8B6-FD6FE89414CC";
shapes = (
{
closed = 1;
nodes = (
(1245,-32,o),
(1546,177,o),
(1546,528,c),
(1546,1536,l),
(1467,1536,l),
(1467,694,l),
(1467,517,o),
(1413,399,o),
(1246,399,c),
(1075,399,o),
(1035,543,o),
(1035,703,c),
(1035,1536,l),
(70,1536,l),
(70,543,l),
(70,225,o),
(323,-32,o),
(806,-32,c)
);
},
{
closed = 1;
nodes = (
(2428,1536,l),
(1467,1536,l),
(1467,0,l),
(2428,0,l)
);
}
);
width = 2498;
}
);
note = uni0075;
unicode = 117;
},
{
glyphname = uni0076;
kernLeft = uni0076;
kernRight = uni0076;
lastChange = "2025-06-23 19:34:49 +0000";
layers = (
{
layerId = m01;
shapes = (
{
closed = 1;
nodes = (
(1249,1536,l),
(656,0,l),
(928,0,l),
(1521,1536,l)
);
},
{
closed = 1;
nodes = (
(48,1536,l),
(641,0,l),
(913,0,l),
(320,1536,l)
);
}
);
width = 1569;
},
{
layerId = "F2C6FA2E-D08A-4B94-92D2-D7CA5820546A";
shapes = (
{
closed = 1;
nodes = (
(1300,1536,l),
(708,0,l),
(776,0,l),
(1367,1536,l)
);
},
{
closed = 1;
nodes = (
(72,1536,l),
(663,0,l),
(732,0,l),
(139,1536,l)
);
}
);
width = 1439;
},
{
layerId = "F8E60EAC-58E2-4CB8-A8B6-FD6FE89414CC";
shapes = (
{
closed = 1;
nodes = (
(1651,1536,l),
(1030,0,l),
(1990,0,l),
(2611,1536,l)
);
},
{
closed = 1;
nodes = (
(8,1536,l),
(629,0,l),
(1589,0,l),
(967,1536,l)
);
}
);
width = 2619;
}
);
note = uni0076;
unicode = 118;
},
{
glyphname = uni0077;
kernLeft = uni0077;
kernRight = uni0077;
lastChange = "2025-06-23 19:32:51 +0000";
layers = (
{
layerId = m01;
shapes = (
{
closed = 1;
nodes = (
(58,1536,l),
(570,0,l),
(831,0,l),
(319,1536,l)
);
},
{
closed = 1;
nodes = (
(2144,1536,l),
(1632,0,l),
(1893,0,l),
(2405,1536,l)
);
},
{
closed = 1;
nodes = (
(1104,1536,l),
(1613,0,l),
(1875,0,l),
(1366,1536,l)
);
},
{
closed = 1;
nodes = (
(1098,1536,l),
(585,0,l),
(846,0,l),
(1359,1536,l)
);
}
);
width = 2463;
},
{
layerId = "F2C6FA2E-D08A-4B94-92D2-D7CA5820546A";
shapes = (
{
closed = 1;
nodes = (
(72,1536,l),
(584,0,l),
(651,0,l),
(139,1536,l)
);
},
{
closed = 1;
nodes = (
(2181,1536,l),
(1669,0,l),
(1736,0,l),
(2248,1536,l)
);
},
{
closed = 1;
nodes = (
(1128,1536,l),
(1624,0,l),
(1691,0,l),
(1195,1536,l)
);
},
{
closed = 1;
nodes = (
(1125,1536,l),
(629,0,l),
(696,0,l),
(1192,1536,l)
);
}
);
width = 2320;
},
{
layerId = "F8E60EAC-58E2-4CB8-A8B6-FD6FE89414CC";
shapes = (
{
closed = 1;
nodes = (
(14,1536,l),
(526,0,l),
(1486,0,l),
(974,1536,l)
);
},
{
closed = 1;
nodes = (
(2710,1536,l),
(2198,0,l),
(3157,0,l),
(3669,1536,l)
);
},
{
closed = 1;
nodes = (
(1525,1536,l),
(2034,0,l),
(2671,0,l),
(2162,1536,l)
);
},
{
closed = 1;
nodes = (
(1521,1536,l),
(1008,0,l),
(1650,0,l),
(2163,1536,l)
);
}
);
width = 3683;
}
);
note = uni0077;
unicode = 119;
},
{
glyphname = uni0078;
kernLeft = uni029E;
kernRight = uni0078;
lastChange = "2025-06-23 19:35:38 +0000";
layers = (
{
layerId = m01;
shapes = (
{
closed = 1;
nodes = (
(65,1536,l),
(1172,0,l),
(1480,0,l),
(373,1536,l)
);
},
{
closed = 1;
nodes = (
(1169,1536,l),
(60,0,l),
(368,0,l),
(1477,1536,l)
);
}
);
width = 1540;
},
{
layerId = "F2C6FA2E-D08A-4B94-92D2-D7CA5820546A";
shapes = (
{
closed = 1;
nodes = (
(84,1536,l),
(1172,0,l),
(1257,0,l),
(169,1536,l)
);
},
{
closed = 1;
nodes = (
(1172,1536,l),
(84,0,l),
(169,0,l),
(1257,1536,l)
);
}
);
width = 1341;
},
{
layerId = "F8E60EAC-58E2-4CB8-A8B6-FD6FE89414CC";
shapes = (
{
closed = 1;
nodes = (
(22,1536,l),
(1567,0,l),
(2527,0,l),
(982,1536,l)
);
},
{
closed = 1;
nodes = (
(1562,1536,l),
(18,0,l),
(979,0,l),
(2523,1536,l)
);
}
);
width = 2545;
}
);
note = uni0078;
unicode = 120;
},
{
glyphname = uni0079;
kernLeft = uni0076;
kernRight = uni0076;
lastChange = "2025-06-23 19:23:48 +0000";
layers = (
{
layerId = m01;
shapes = (
{
closed = 1;
nodes = (
(1231,1536,l),
(408,-389,l),
(677,-389,l),
(1500,1536,l)
);
},
{
closed = 1;
nodes = (
(48,1536,l),
(655,89,l),
(798,382,l),
(318,1536,l)
);
}
);
width = 1548;
},
{
layerId = "F2C6FA2E-D08A-4B94-92D2-D7CA5820546A";
shapes = (
{
closed = 1;
nodes = (
(1222,1536,l),
(400,-390,l),
(474,-390,l),
(1296,1536,l)
);
},
{
closed = 1;
nodes = (
(72,1536,l),
(655,118,l),
(699,192,l),
(146,1536,l)
);
}
);
width = 1368;
},
{
layerId = "F8E60EAC-58E2-4CB8-A8B6-FD6FE89414CC";
shapes = (
{
closed = 1;
nodes = (
(1508,1537,l),
(670,-390,l),
(1559,-390,l),
(2397,1537,l)
);
},
{
closed = 1;
nodes = (
(8,1537,l),
(1023,-233,l),
(1457,457,l),
(897,1537,l)
);
}
);
width = 2405;
}
);
note = uni0079;
unicode = 121;
},
{
glyphname = uniEE05;
kernLeft = uni0076;
kernRight = uni0076;
layers = (
{
layerId = m01;
shapes = (
{
closed = 1;
nodes = (
(1350,-557,o),
(1368,-548,q),
(1308,-340,l),
(1179,-373,o),
(1009,-303,o),
(944,-128,qs),
(882,40,l),
(726,-176,l),
(744,-224,ls),
(777,-314,o),
(867,-446,o),
(980,-533,o),
(1116,-576,o),
(1196,-576,qs),
(1256,-576,o)
);
},
{
closed = 1;
nodes = (
(646,-500,o),
(776,-343,o),
(820,-224,qs),
(1472,1536,l),
(1216,1536,l),
(792,312,l),
(776,312,l),
(352,1536,l),
(96,1536,l),
(664,-8,l),
(620,-128,ls),
(577,-245,o),
(474,-350,o),
(342,-362,o),
(256,-340,q),
(196,-548,l),
(214,-557,o),
(308,-576,o),
(368,-576,qs),
(475,-576,o)
);
}
);
width = 1568;
},
{
layerId = "F2C6FA2E-D08A-4B94-92D2-D7CA5820546A";
shapes = (
{
closed = 1;
nodes = (
(1259,-555,o),
(1304,-536,q),
(1280,-480,l),
(1132,-544,o),
(914,-428,o),
(852,-256,qs),
(764,-12,l),
(708,-42,l),
(792,-280,ls),
(818,-352,o),
(888,-463,o),
(975,-538,o),
(1076,-576,o),
(1132,-576,qs),
(1171,-576,o)
);
},
{
closed = 1;
nodes = (
(546,-508,o),
(648,-376,o),
(682,-280,qs),
(1328,1536,l),
(1260,1536,l),
(740,80,l),
(732,80,l),
(212,1536,l),
(144,1536,l),
(704,-28,l),
(622,-256,ls),
(581,-371,o),
(456,-499,o),
(293,-522,o),
(194,-480,q),
(170,-536,l),
(215,-555,o),
(303,-576,o),
(342,-576,qs),
(417,-576,o)
);
}
);
width = 1472;
},
{
layerId = "F8E60EAC-58E2-4CB8-A8B6-FD6FE89414CC";
shapes = (
{
closed = 1;
nodes = (
(1496,-547,o),
(1560,-522,q),
(1440,-130,l),
(1338,-166,o),
(1187,-160,o),
(1160,-96,qs),
(1136,-38,l),
(566,-98,l),
(576,-128,ls),
(608,-223,o),
(712,-386,o),
(867,-508,o),
(1083,-576,o),
(1228,-576,qs),
(1323,-576,o)
);
},
{
closed = 1;
nodes = (
(927,-458,o),
(1086,-255,o),
(1128,-128,qs),
(1688,1536,l),
(1108,1536,l),
(856,472,l),
(840,472,l),
(592,1536,l),
(16,1536,l),
(556,-68,l),
(544,-96,ls),
(526,-138,o),
(445,-168,o),
(332,-154,o),
(264,-130,q),
(144,-522,l),
(209,-547,o),
(381,-576,o),
(476,-576,qs),
(669,-576,o)
);
}
);
width = 1704;
}
);
note = uniEE05;
unicode = 60933;
},
{
glyphname = uni007A;
kernLeft = uni007A;
kernRight = uni01F2;
lastChange = "2025-05-18 18:54:02 +0000";
layers = (
{
layerId = m01;
shapes = (
{
closed = 1;
nodes = (
(102,1312,l),
(1254,1312,l),
(1254,1536,l),
(102,1536,l)
);
},
{
closed = 1;
nodes = (
(86,0,l),
(1269,0,l),
(1269,224,l),
(86,224,l)
);
},
{
closed = 1;
nodes = (
(950,1312,l),
(86,224,l),
(390,224,l),
(1254,1312,l)
);
}
);
width = 1343;
},
{
layerId = "F2C6FA2E-D08A-4B94-92D2-D7CA5820546A";
shapes = (
{
closed = 1;
nodes = (
(124,1471,l),
(1212,1471,l),
(1212,1536,l),
(124,1536,l)
);
},
{
closed = 1;
nodes = (
(108,0,l),
(1228,0,l),
(1228,65,l),
(108,65,l)
);
},
{
closed = 1;
nodes = (
(1138,1471,l),
(108,65,l),
(181,65,l),
(1212,1471,l)
);
}
);
width = 1316;
},
{
layerId = "F8E60EAC-58E2-4CB8-A8B6-FD6FE89414CC";
shapes = (
{
closed = 1;
nodes = (
(78,976,l),
(1837,976,l),
(1837,1536,l),
(78,1536,l)
);
},
{
closed = 1;
nodes = (
(78,0,l),
(1837,0,l),
(1837,560,l),
(78,560,l)
);
},
{
closed = 1;
nodes = (
(853,976,l),
(78,560,l),
(1061,560,l),
(1837,976,l)
);
}
);
width = 1919;
}
);
note = uni007A;
unicode = 122;
},
{
glyphname = uni0024;
kernLeft = uni0053;
kernRight = uni0053;
layers = (
{
layerId = m01;
shapes = (
{
closed = 1;
nodes = (
(980,2304,l),
(816,2304,l),
(816,-256,l),
(980,-256,l)
);
},
{
closed = 1;
nodes = (
(1603,1691,o),
(1422,1935,o),
(1114,2076,o),
(916,2076,qs),
(720,2076,o),
(403,1933,o),
(216,1676,o),
(216,1504,qs),
(216,1297,o),
(496,1041,o),
(736,972,qs),
(988,900,ls),
(1096,870,o),
(1282,790,o),
(1396,662,o),
(1396,560,qs),
(1396,448,o),
(1264,281,o),
(1038,188,o),
(896,188,qs),
(774,188,o),
(563,261,o),
(426,412,o),
(416,528,q),
(160,528,l),
(172,360,o),
(355,106,o),
(676,-36,o),
(896,-36,qs),
(1132,-36,o),
(1463,122,o),
(1636,390,o),
(1636,556,qs),
(1636,700,o),
(1518,898,o),
(1337,1025,o),
(1140,1099,o),
(1060,1120,qs),
(852,1176,ls),
(795,1191,o),
(659,1240,o),
(535,1317,o),
(456,1434,o),
(456,1516,qs),
(456,1614,o),
(569,1768,o),
(772,1856,o),
(908,1856,qs),
(1094,1856,o),
(1350,1688,o),
(1368,1536,q),
(1608,1536,l)
);
}
);
width = 1796;
},
{
layerId = "F2C6FA2E-D08A-4B94-92D2-D7CA5820546A";
shapes = (
{
closed = 1;
nodes = (
(896,2304,l),
(832,2304,l),
(832,-256,l),
(896,-256,l)
);
},
{
closed = 1;
nodes = (
(1470,1694,o),
(1314,1940,o),
(1048,2080,o),
(872,2080,qs),
(697,2080,o),
(422,1942,o),
(264,1703,o),
(264,1552,qs),
(264,1374,o),
(503,1124,o),
(744,1048,qs),
(976,976,ls),
(1142,925,o),
(1348,797,o),
(1444,630,o),
(1444,520,qs),
(1444,375,o),
(1297,155,o),
(1032,32,o),
(856,32,qs),
(687,32,o),
(436,146,o),
(290,348,o),
(280,480,q),
(216,480,l),
(226,330,o),
(389,99,o),
(669,-32,o),
(856,-32,qs),
(1050,-32,o),
(1344,110,o),
(1508,360,o),
(1508,520,qs),
(1508,615,o),
(1446,770,o),
(1319,897,o),
(1125,999,o),
(992,1040,qs),
(760,1112,ls),
(650,1146,o),
(487,1233,o),
(380,1342,o),
(328,1474,o),
(328,1552,qs),
(328,1687,o),
(470,1896,o),
(716,2016,o),
(872,2016,qs),
(1110,2016,o),
(1401,1746,o),
(1416,1536,q),
(1480,1536,l)
);
}
);
width = 1724;
},
{
layerId = "F8E60EAC-58E2-4CB8-A8B6-FD6FE89414CC";
shapes = (
{
closed = 1;
nodes = (
(1044,2304,l),
(880,2304,l),
(880,-256,l),
(1044,-256,l)
);
},
{
closed = 1;
nodes = (
(1767,1609,o),
(1570,1910,o),
(1208,2076,o),
(960,2076,qs),
(717,2076,o),
(342,1912,o),
(131,1619,o),
(132,1424,qs),
(131,1184,o),
(444,907,o),
(716,848,qs),
(920,804,ls),
(1034,779,o),
(1168,722,o),
(1227,651,o),
(1228,604,qs),
(1227,554,o),
(1165,476,o),
(1045,432,o),
(956,432,qs),
(850,432,o),
(697,498,o),
(613,626,o),
(608,720,q),
(80,720,l),
(81,463,o),
(300,134,o),
(697,-24,o),
(964,-24,qs),
(1224,-24,o),
(1595,122,o),
(1795,402,o),
(1796,604,qs),
(1795,721,o),
(1722,919,o),
(1568,1078,o),
(1326,1196,o),
(1156,1232,qs),
(988,1268,ls),
(915,1283,o),
(809,1321,o),
(741,1368,o),
(710,1427,o),
(712,1464,qs),
(713,1509,o),
(765,1579,o),
(874,1620,o),
(960,1620,qs),
(1095,1620,o),
(1228,1508,o),
(1236,1408,q),
(1768,1408,l)
);
}
);
width = 1876;
},
{
associatedMasterId = m01;
layerId = "168C9F6F-5AB3-4882-87E1-A0AF169EEF18";
name = "slnt=-10";
shapes = (
{
closed = 1;
nodes = (
(1236,2304,l),
(1072,2304,l),
(648,-256,l),
(812,-256,l)
);
},
{
closed = 1;
nodes = (
(1750,1682,o),
(1612,1933,o),
(1330,2076,o),
(1132,2076,qs),
(936,2076,o),
(596,1933,o),
(366,1676,o),
(336,1504,qs),
(303,1297,o),
(540,1041,o),
(768,972,qs),
(1008,900,ls),
(1112,870,o),
(1286,790,o),
(1378,662,o),
(1360,560,qs),
(1342,448,o),
(1183,281,o),
(942,188,o),
(800,188,qs),
(678,188,o),
(478,261,o),
(366,412,o),
(376,528,q),
(120,528,l),
(104,360,o),
(245,106,o),
(544,-36,o),
(764,-36,qs),
(1000,-36,o),
(1355,122,o),
(1572,390,o),
(1600,556,qs),
(1624,700,o),
(1539,898,o),
(1379,1025,o),
(1195,1099,o),
(1120,1120,qs),
(920,1176,ls),
(866,1191,o),
(738,1240,o),
(627,1317,o),
(567,1434,o),
(580,1516,qs),
(596,1614,o),
(734,1768,o),
(952,1856,o),
(1088,1856,qs),
(1274,1856,o),
(1492,1685,o),
(1492,1520,q),
(1732,1520,l)
);
}
);
width = 1796;
},
{
associatedMasterId = m01;
layerId = "A63CEEAC-DCD7-43B5-BF36-B41225E8F437";
name = "slnt=-10, Thin";
shapes = (
{
closed = 1;
nodes = (
(1152,2304,l),
(1088,2304,l),
(664,-256,l),
(728,-256,l)
);
},
{
closed = 1;
nodes = (
(1624,1694,o),
(1508,1940,o),
(1264,2080,o),
(1088,2080,qs),
(911,2080,o),
(613,1945,o),
(418,1707,o),
(392,1552,qs),
(363,1375,o),
(559,1126,o),
(788,1052,qs),
(1012,980,ls),
(1169,930,o),
(1353,800,o),
(1422,630,o),
(1404,520,qs),
(1380,376,o),
(1197,156,o),
(913,32,o),
(736,32,qs),
(567,32,o),
(333,146,o),
(220,348,o),
(232,480,q),
(168,480,l),
(153,330,o),
(278,99,o),
(538,-32,o),
(724,-32,qs),
(926,-32,o),
(1241,106,o),
(1441,355,o),
(1468,520,qs),
(1484,615,o),
(1447,771,o),
(1341,897,o),
(1162,999,o),
(1036,1040,qs),
(816,1112,ls),
(712,1146,o),
(563,1234,o),
(474,1343,o),
(443,1474,o),
(456,1552,qs),
(479,1686,o),
(657,1895,o),
(924,2016,o),
(1080,2016,qs),
(1319,2016,o),
(1563,1746,o),
(1544,1536,q),
(1608,1536,l)
);
}
);
width = 1724;
},
{
associatedMasterId = m01;
layerId = "FB56432E-7888-4908-8FE7-7C15C45E8DD8";
name = "slnt=-10, Black";
shapes = (
{
closed = 1;
nodes = (
(1298,2304,l),
(1134,2304,l),
(710,-256,l),
(874,-256,l)
);
},
{
closed = 1;
nodes = (
(1906,1610,o),
(1759,1910,o),
(1424,2076,o),
(1176,2076,qs),
(932,2076,o),
(531,1913,o),
(272,1620,o),
(240,1424,qs),
(201,1184,o),
(467,908,o),
(728,848,qs),
(924,804,ls),
(1034,780,o),
(1160,722,o),
(1208,650,o),
(1200,604,qs),
(1192,554,o),
(1118,476,o),
(990,432,o),
(900,432,qs),
(794,432,o),
(652,498,o),
(588,626,o),
(600,720,q),
(72,720,l),
(30,464,o),
(195,135,o),
(566,-24,o),
(832,-24,qs),
(1092,-24,o),
(1488,122,o),
(1734,402,o),
(1768,604,qs),
(1788,721,o),
(1747,919,o),
(1619,1079,o),
(1396,1196,o),
(1232,1232,qs),
(1072,1268,ls),
(1002,1283,o),
(901,1321,o),
(840,1369,o),
(819,1428,o),
(828,1464,qs),
(836,1510,o),
(899,1580,o),
(1014,1620,o),
(1100,1620,qs),
(1235,1620,o),
(1349,1507,o),
(1340,1408,q),
(1872,1408,l)
);
}
);
width = 1876;
}
);
note = uni0024;
unicode = 36;
},
{
glyphname = uni20AA;
layers = (
{
layerId = m01;
shapes = (
{
closed = 1;
nodes = (
(496,0,l),
(496,1316,l),
(1024,1316,ls),
(1150,1316,o),
(1264,1186,o),
(1264,1048,qs),
(1264,496,l),
(1512,496,l),
(1512,1048,ls),
(1512,1294,o),
(1270,1536,o),
(1024,1536,qs),
(248,1536,l),
(248,0,l)
);
},
{
closed = 1;
nodes = (
(1778,0,o),
(2020,242,o),
(2020,488,qs),
(2020,1520,l),
(1772,1520,l),
(1772,488,ls),
(1772,350,o),
(1658,220,o),
(1532,220,qs),
(1004,220,l),
(1004,1040,l),
(756,1040,l),
(756,0,l),
(1532,0,ls)
);
}
);
width = 2268;
},
{
layerId = "F2C6FA2E-D08A-4B94-92D2-D7CA5820546A";
shapes = (
{
closed = 1;
nodes = (
(364,0,l),
(364,1472,l),
(792,1472,ls),
(974,1472,o),
(1136,1283,o),
(1136,1092,qs),
(1136,480,l),
(1200,480,l),
(1200,1072,ls),
(1200,1323,o),
(987,1536,o),
(776,1536,qs),
(300,1536,l),
(300,0,l)
);
},
{
closed = 1;
nodes = (
(1403,0,o),
(1616,213,o),
(1616,464,qs),
(1616,1524,l),
(1552,1524,l),
(1552,444,ls),
(1552,253,o),
(1390,64,o),
(1208,64,qs),
(780,64,l),
(780,1056,l),
(716,1056,l),
(716,0,l),
(1192,0,ls)
);
}
);
width = 1920;
},
{
layerId = "F8E60EAC-58E2-4CB8-A8B6-FD6FE89414CC";
shapes = (
{
closed = 1;
nodes = (
(692,0,l),
(692,1124,l),
(1348,1124,ls),
(1437,1124,o),
(1491,1068,o),
(1492,1008,qs),
(1492,524,l),
(2020,524,l),
(2020,1008,ls),
(2019,1245,o),
(1741,1536,o),
(1436,1536,qs),
(164,1536,l),
(164,0,l)
);
},
{
closed = 1;
nodes = (
(2405,0,o),
(2683,291,o),
(2684,528,qs),
(2684,1516,l),
(2156,1516,l),
(2156,528,ls),
(2155,456,o),
(2086,412,o),
(2012,412,qs),
(1356,412,l),
(1356,1012,l),
(828,1012,l),
(828,0,l),
(2100,0,ls)
);
}
);
width = 2848;
}
);
note = uni20AA;
unicode = 8362;
},
{
glyphname = uni0030;
kernLeft = uni0431;
kernRight = uni0030;
lastChange = "2025-05-18 19:17:17 +0000";
layers = (
{
layerId = m01;
shapes = (
{
closed = 1;
nodes = (
(459,197,o),
(336,535,o),
(336,1024,c),
(336,1514,o),
(447,1852,o),
(799,1852,c),
(1151,1852,o),
(1262,1514,o),
(1262,1024,c),
(1262,535,o),
(1139,197,o),
(799,197,c)
);
},
{
closed = 1;
nodes = (
(255,2076,o),
(84,1651,o),
(84,1024,c),
(84,397,o),
(270,-27,o),
(799,-27,c),
(1328,-27,o),
(1514,397,o),
(1514,1024,c),
(1514,1651,o),
(1343,2076,o),
(799,2076,c)
);
}
);
width = 1598;
},
{
layerId = "F2C6FA2E-D08A-4B94-92D2-D7CA5820546A";
shapes = (
{
closed = 1;
nodes = (
(324,38,o),
(165,443,o),
(165,1026,c),
(165,1607,o),
(310,2012,o),
(770,2012,c),
(1230,2012,o),
(1375,1607,o),
(1375,1026,c),
(1375,443,o),
(1216,38,o),
(770,38,c)
);
},
{
closed = 1;
nodes = (
(263,2076,o),
(102,1652,o),
(102,1026,c),
(102,398,o),
(278,-26,o),
(770,-26,c),
(1262,-26,o),
(1438,398,o),
(1438,1026,c),
(1438,1652,o),
(1277,2076,o),
(770,2076,c)
);
}
);
width = 1540;
},
{
layerId = "F8E60EAC-58E2-4CB8-A8B6-FD6FE89414CC";
shapes = (
{
closed = 1;
nodes = (
(989,530,o),
(904,736,o),
(904,1028,c),
(904,1315,o),
(980,1521,o),
(1226,1521,c),
(1468,1521,o),
(1546,1315,o),
(1546,1028,c),
(1546,736,o),
(1460,530,o),
(1226,530,c)
);
},
{
closed = 1;
nodes = (
(340,2076,o),
(62,1656,o),
(62,1028,c),
(62,396,o),
(367,-25,o),
(1209,-25,c),
(2051,-25,o),
(2356,396,o),
(2356,1028,c),
(2356,1656,o),
(2078,2076,o),
(1209,2076,c)
);
}
);
width = 2418;
}
);
note = uni0030;
unicode = 48;
},
{
glyphname = uni0031;
kernLeft = uni0031;
kernRight = uni0031;
lastChange = "2025-05-18 19:18:25 +0000";
layers = (
{
layerId = m01;
shapes = (
{
closed = 1;
nodes = (
(472,0,l),
(729,0,l),
(729,2048,l),
(472,2048,l)
);
},
{
closed = 1;
nodes = (
(472,2048,l),
(86,1827,l),
(86,1532,l),
(594,1827,l)
);
}
);
width = 917;
},
{
layerId = "F2C6FA2E-D08A-4B94-92D2-D7CA5820546A";
shapes = (
{
closed = 1;
nodes = (
(483,0,l),
(547,0,l),
(547,2048,l),
(483,2048,l)
);
},
{
closed = 1;
nodes = (
(483,2048,l),
(100,1824,l),
(100,1744,l),
(521,1993,l)
);
}
);
width = 667;
},
{
layerId = "F8E60EAC-58E2-4CB8-A8B6-FD6FE89414CC";
shapes = (
{
closed = 1;
nodes = (
(501,0,l),
(1303,0,l),
(1303,2048,l),
(501,2048,l)
);
},
{
closed = 1;
nodes = (
(501,2048,l),
(62,1798,l),
(62,1210,l),
(764,1601,l)
);
}
);
width = 1447;
}
);
note = uni0031;
unicode = 49;
},
{
glyphname = uni0032;
kernLeft = uni0032;
kernRight = uni0032;
lastChange = "2025-05-18 19:19:07 +0000";
layers = (
{
layerId = m01;
shapes = (
{
closed = 1;
nodes = (
(369,224,l),
(369,314,l),
(369,460,o),
(446,594,o),
(571,670,c),
(1163,1019,l),
(1338,1124,o),
(1445,1311,o),
(1445,1516,c),
(1445,1823,o),
(1207,2073,o),
(776,2073,c),
(343,2073,o),
(106,1823,o),
(106,1516,c),
(106,1419,l),
(361,1419,l),
(361,1512,l),
(361,1693,o),
(513,1850,o),
(776,1850,c),
(1036,1850,o),
(1187,1696,o),
(1190,1516,c),
(1190,1402,o),
(1129,1297,o),
(1032,1239,c),
(442,889,l),
(238,769,o),
(113,550,o),
(113,314,c),
(113,0,l),
(1476,0,l),
(1476,224,l)
);
}
);
width = 1576;
},
{
layerId = "F2C6FA2E-D08A-4B94-92D2-D7CA5820546A";
shapes = (
{
closed = 1;
nodes = (
(257,64,l),
(257,187,l),
(257,445,o),
(396,682,o),
(619,809,c),
(1122,1098,l),
(1277,1186,o),
(1374,1351,o),
(1374,1530,c),
(1366,1831,o),
(1145,2072,o),
(752,2072,c),
(358,2072,o),
(138,1831,o),
(130,1530,c),
(130,1418,l),
(194,1418,l),
(194,1530,l),
(205,1790,o),
(409,2008,o),
(752,2008,c),
(1095,2008,o),
(1298,1790,o),
(1309,1530,c),
(1309,1374,o),
(1225,1230,o),
(1091,1152,c),
(587,865,l),
(344,725,o),
(194,466,o),
(194,187,c),
(194,0,l),
(1421,0,l),
(1421,64,l)
);
}
);
width = 1546;
},
{
layerId = "F8E60EAC-58E2-4CB8-A8B6-FD6FE89414CC";
shapes = (
{
closed = 1;
nodes = (
(1098,565,l),
(872,565,l),
(867,610,o),
(922,712,o),
(1224,769,c),
(1586,824,l),
(2308,947,o),
(2337,1268,o),
(2337,1473,c),
(2337,1851,o),
(1966,2093,o),
(1175,2073,c),
(348,2073,o),
(48,1750,o),
(48,1366,c),
(48,1311,l),
(862,1311,l),
(862,1317,l),
(862,1356,o),
(882,1533,o),
(1175,1533,cs),
(1325,1533,o),
(1517,1522,o),
(1522,1392,c),
(1522,1215,o),
(803,1301,o),
(469,1111,c),
(415,1081,l),
(92,887,o),
(51,550,o),
(51,314,c),
(51,0,l),
(2361,0,l),
(2361,565,l)
);
}
);
width = 2417;
}
);
note = uni0032;
unicode = 50;
},
{
glyphname = uni0033;
kernLeft = uni0033;
kernRight = uni04E0;
lastChange = "2025-05-18 19:19:55 +0000";
layers = (
{
layerId = m01;
shapes = (
{
closed = 1;
nodes = (
(1379,1155,o),
(1477,1326,o),
(1477,1522,c),
(1477,1829,o),
(1238,2075,o),
(805,2075,c),
(373,2075,o),
(134,1829,o),
(134,1522,c),
(134,1451,l),
(385,1451,l),
(385,1494,l),
(385,1688,o),
(539,1854,o),
(805,1854,c),
(1069,1854,o),
(1225,1688,o),
(1225,1494,c),
(1225,1301,o),
(1097,1157,o),
(805,1157,c),
(664,1157,l),
(664,1127,l),
(664,969,l),
(664,929,l),
(820,929,l),
(1132,929,o),
(1270,781,o),
(1270,579,c),
(1270,378,o),
(1107,204,o),
(820,204,c),
(536,204,o),
(373,378,o),
(373,579,c),
(373,625,l),
(104,625,l),
(104,550,l),
(104,231,o),
(358,-27,o),
(823,-27,c),
(1285,-27,o),
(1539,231,o),
(1539,550,c),
(1539,768,o),
(1421,958,o),
(1197,1057,c)
);
}
);
width = 1632;
},
{
layerId = "F2C6FA2E-D08A-4B94-92D2-D7CA5820546A";
shapes = (
{
closed = 1;
nodes = (
(1272,1141,o),
(1403,1330,o),
(1403,1552,c),
(1403,1839,o),
(1182,2073,o),
(781,2073,c),
(378,2073,o),
(156,1839,o),
(156,1552,c),
(156,1450,l),
(218,1450,l),
(218,1552,l),
(218,1797,o),
(426,2007,o),
(784,2007,c),
(1139,2007,o),
(1339,1797,o),
(1339,1552,c),
(1339,1306,o),
(1170,1093,o),
(781,1093,c),
(661,1093,l),
(661,1078,l),
(661,1047,l),
(661,1030,l),
(796,1030,l),
(1180,1030,o),
(1403,797,o),
(1403,534,c),
(1403,271,o),
(1215,37,o),
(796,37,c),
(376,37,o),
(188,271,o),
(188,534,c),
(188,605,l),
(124,605,l),
(124,534,l),
(124,223,o),
(362,-27,o),
(796,-27,c),
(1229,-27,o),
(1467,223,o),
(1467,534,c),
(1467,782,o),
(1313,992,o),
(1029,1066,c)
);
}
);
width = 1591;
},
{
layerId = "F8E60EAC-58E2-4CB8-A8B6-FD6FE89414CC";
shapes = (
{
closed = 1;
nodes = (
(2174,1163,o),
(2263,1328,o),
(2263,1521,c),
(2263,1829,o),
(2030,2075,o),
(1158,2075,c),
(285,2075,o),
(52,1829,o),
(52,1521,c),
(52,1315,l),
(840,1315,l),
(840,1391,l),
(840,1485,o),
(952,1571,o),
(1154,1571,c),
(1350,1571,o),
(1476,1503,o),
(1476,1409,c),
(1476,1315,o),
(1367,1252,o),
(1154,1252,c),
(943,1252,l),
(943,1145,l),
(943,971,l),
(943,859,l),
(1185,859,l),
(1417,859,o),
(1528,787,o),
(1528,679,c),
(1528,573,o),
(1400,492,o),
(1185,492,c),
(969,492,o),
(850,590,o),
(850,697,c),
(850,778,l),
(52,778,l),
(52,560,l),
(52,236,o),
(295,-27,o),
(1189,-27,c),
(2083,-27,o),
(2326,236,o),
(2326,560,c),
(2326,773,o),
(2223,962,o),
(1887,1060,c)
);
}
);
width = 2392;
}
);
note = uni0033;
unicode = 51;
},
{
glyphname = uni0034;
kernLeft = uni0034;
kernRight = uni0034;
lastChange = "2025-05-18 19:20:26 +0000";
layers = (
{
layerId = m01;
shapes = (
{
closed = 1;
nodes = (
(1088,0,l),
(1345,0,l),
(1345,2048,l),
(1088,2048,l)
);
},
{
closed = 1;
nodes = (
(82,495,l),
(1635,495,l),
(1635,737,l),
(82,737,l)
);
},
{
closed = 1;
nodes = (
(1088,2048,l),
(82,737,l),
(263,582,l),
(1284,1906,l)
);
}
);
width = 1717;
},
{
layerId = "F2C6FA2E-D08A-4B94-92D2-D7CA5820546A";
shapes = (
{
closed = 1;
nodes = (
(1176,0,l),
(1240,0,l),
(1240,2048,l),
(1176,2048,l)
);
},
{
closed = 1;
nodes = (
(104,544,l),
(1657,544,l),
(1657,608,l),
(104,608,l)
);
},
{
closed = 1;
nodes = (
(1176,2048,l),
(104,608,l),
(160,567,l),
(1233,2007,l)
);
}
);
width = 1761;
},
{
layerId = "F8E60EAC-58E2-4CB8-A8B6-FD6FE89414CC";
shapes = (
{
closed = 1;
nodes = (
(1435,0,l),
(2234,0,l),
(2234,2048,l),
(1435,2048,l)
);
},
{
closed = 1;
nodes = (
(58,224,l),
(2506,224,l),
(2506,737,l),
(58,737,l)
);
},
{
closed = 1;
nodes = (
(1435,2048,l),
(58,737,l),
(396,364,l),
(1791,1675,l)
);
}
);
width = 2554;
}
);
note = uni0034;
unicode = 52;
},
{
glyphname = uni0035;
lastChange = "2025-05-18 19:21:14 +0000";
layers = (
{
layerId = m01;
shapes = (
{
closed = 1;
nodes = (
(340,1809,l),
(1427,1809,l),
(1427,2048,l),
(340,2048,l)
);
},
{
closed = 1;
nodes = (
(261,2048,l),
(150,929,l),
(404,929,l),
(516,2048,l)
);
},
{
closed = 1;
nodes = (
(1302,-28,o),
(1554,305,o),
(1554,715,c),
(1554,1125,o),
(1302,1458,o),
(828,1458,c),
(442,1458,o),
(233,1235,o),
(159,929,c),
(431,929,l),
(501,1105,o),
(620,1233,o),
(831,1233,c),
(1129,1233,o),
(1299,981,o),
(1299,698,c),
(1299,415,o),
(1156,195,o),
(831,195,c),
(542,195,o),
(393,367,o),
(363,603,c),
(108,603,l),
(150,245,o),
(398,-28,o),
(828,-28,c)
);
}
);
width = 1646;
},
{
layerId = "F2C6FA2E-D08A-4B94-92D2-D7CA5820546A";
shapes = (
{
closed = 1;
nodes = (
(261,1983,l),
(1330,1983,l),
(1330,2048,l),
(261,2048,l)
);
},
{
closed = 1;
nodes = (
(246,2048,l),
(132,930,l),
(197,930,l),
(310,2048,l)
);
},
{
closed = 1;
nodes = (
(1223,-28,o),
(1458,305,o),
(1458,715,c),
(1458,1126,o),
(1223,1457,o),
(784,1457,c),
(426,1457,o),
(202,1235,o),
(134,930,c),
(207,930,l),
(283,1193,o),
(487,1392,o),
(786,1392,c),
(1173,1392,o),
(1395,1077,o),
(1395,691,c),
(1395,368,o),
(1209,37,o),
(786,37,c),
(408,37,o),
(215,316,o),
(181,595,c),
(118,595,l),
(160,243,o),
(389,-28,o),
(784,-28,c)
);
}
);
width = 1570;
},
{
layerId = "F8E60EAC-58E2-4CB8-A8B6-FD6FE89414CC";
shapes = (
{
closed = 1;
nodes = (
(271,1537,l),
(2095,1537,l),
(2095,2048,l),
(271,2048,l)
);
},
{
closed = 1;
nodes = (
(191,2048,l),
(72,825,l),
(881,825,l),
(992,2048,l)
);
},
{
closed = 1;
nodes = (
(1913,-29,o),
(2299,305,o),
(2299,714,c),
(2299,1123,o),
(2073,1457,o),
(1343,1457,c),
(681,1457,o),
(138,1185,o),
(76,825,c),
(916,825,l),
(965,896,o),
(1063,945,o),
(1192,945,c),
(1388,945,o),
(1503,834,o),
(1503,706,c),
(1503,581,o),
(1406,483,o),
(1192,483,c),
(1045,483,o),
(957,527,o),
(912,594,c),
(76,594,l),
(147,244,o),
(525,-29,o),
(1183,-29,c)
);
}
);
width = 2351;
}
);
note = uni0035;
unicode = 53;
},
{
glyphname = uni0036;
kernLeft = uni0431;
lastChange = "2025-05-18 19:21:52 +0000";
layers = (
{
layerId = m01;
shapes = (
{
closed = 1;
nodes = (
(523,196,o),
(393,392,o),
(393,643,c),
(393,895,o),
(548,1119,o),
(815,1119,c),
(1082,1119,o),
(1237,895,o),
(1237,643,c),
(1237,392,o),
(1108,196,o),
(815,196,c)
);
},
{
closed = 1;
nodes = (
(555,1343,o),
(417,1223,o),
(349,1114,c),
(350,1152,o),
(354,1187,o),
(357,1223,c),
(396,1578,o),
(523,1854,o),
(807,1854,c),
(1015,1854,o),
(1140,1734,o),
(1206,1535,c),
(1471,1535,l),
(1385,1873,o),
(1186,2076,o),
(807,2076,c),
(263,2076,o),
(90,1654,o),
(90,1025,c),
(90,815,o),
(111,630,o),
(157,475,c),
(223,184,o),
(450,-28,o),
(815,-28,c),
(1252,-28,o),
(1492,279,o),
(1492,657,c),
(1492,1035,o),
(1252,1343,o),
(815,1343,c)
);
}
);
width = 1582;
},
{
layerId = "F2C6FA2E-D08A-4B94-92D2-D7CA5820546A";
shapes = (
{
closed = 1;
nodes = (
(401,37,o),
(226,348,o),
(226,640,c),
(226,978,o),
(434,1279,o),
(792,1279,c),
(1150,1279,o),
(1358,978,o),
(1358,640,c),
(1358,348,o),
(1182,37,o),
(792,37,c)
);
},
{
closed = 1;
nodes = (
(458,1343,o),
(248,1136,o),
(183,852,c),
(180,907,o),
(178,965,o),
(178,1025,c),
(178,1607,o),
(325,2012,o),
(784,2012,c),
(1092,2012,o),
(1258,1830,o),
(1336,1534,c),
(1403,1534,l),
(1322,1871,o),
(1137,2076,o),
(784,2076,c),
(275,2076,o),
(114,1652,o),
(114,1025,c),
(114,793,o),
(139,589,o),
(193,425,c),
(268,160,o),
(474,-27,o),
(792,-27,c),
(1198,-27,o),
(1422,279,o),
(1422,658,c),
(1422,1036,o),
(1198,1343,o),
(792,1343,c)
);
}
);
width = 1536;
},
{
layerId = "F8E60EAC-58E2-4CB8-A8B6-FD6FE89414CC";
shapes = (
{
closed = 1;
nodes = (
(1009,482,o),
(923,556,o),
(923,652,c),
(923,748,o),
(1024,833,o),
(1200,833,c),
(1378,833,o),
(1481,748,o),
(1481,652,c),
(1481,556,o),
(1395,482,o),
(1200,482,c)
);
},
{
closed = 1;
nodes = (
(1151,1344,o),
(914,1285,o),
(864,1236,c),
(864,1269,o),
(872,1302,o),
(886,1336,cs),
(929,1433,o),
(1026,1518,o),
(1130,1518,c),
(1239,1518,o),
(1316,1470,o),
(1365,1383,c),
(2198,1383,l),
(2097,1808,o),
(1783,2077,o),
(1144,2077,c),
(341,2077,o),
(52,1653,o),
(52,1024,c),
(52,798,o),
(85,599,o),
(167,435,c),
(312,83,o),
(770,-29,o),
(1172,-29,c),
(1994,-29,o),
(2278,232,o),
(2278,657,c),
(2278,1083,o),
(2022,1344,o),
(1327,1344,c)
);
}
);
width = 2336;
}
);
note = uni0036;
unicode = 54;
},
{
glyphname = uni0037;
kernRight = uni0037;
lastChange = "2025-05-18 19:22:34 +0000";
layers = (
{
layerId = m01;
shapes = (
{
closed = 1;
nodes = (
(665,0,l),
(652,267,o),
(703,595,o),
(822,930,cs),
(954,1306,o),
(1148,1624,o),
(1348,1824,c),
(1348,2048,l),
(68,2048,l),
(68,1824,l),
(1089,1824,l),
(888,1624,o),
(695,1306,o),
(563,930,cs),
(446,595,o),
(395,267,o),
(406,0,c)
);
}
);
width = 1428;
},
{
layerId = "F2C6FA2E-D08A-4B94-92D2-D7CA5820546A";
shapes = (
{
closed = 1;
nodes = (
(629,0,l),
(619,292,o),
(670,645,o),
(787,1011,cs),
(919,1421,o),
(1112,1765,o),
(1313,1984,c),
(1313,2048,l),
(82,2048,l),
(82,1984,l),
(1230,1984,l),
(1029,1765,o),
(846,1421,o),
(712,1011,cs),
(595,645,o),
(544,292,o),
(554,0,c)
);
}
);
width = 1408;
},
{
layerId = "F8E60EAC-58E2-4CB8-A8B6-FD6FE89414CC";
shapes = (
{
closed = 1;
nodes = (
(1223,0,l),
(1302,254,o),
(1430,526,o),
(1609,794,cs),
(1811,1101,o),
(2051,1355,o),
(2280,1535,c),
(2280,2048,l),
(44,2048,l),
(44,1535,l),
(1526,1535,l),
(1333,1390,o),
(1140,1202,o),
(960,982,cs),
(693,653,o),
(504,307,o),
(412,0,c)
);
}
);
width = 2346;
}
);
note = uni0037;
unicode = 55;
},
{
glyphname = uni0038;
kernRight = uni04E0;
lastChange = "2025-05-18 19:23:15 +0000";
layers = (
{
layerId = m01;
shapes = (
{
closed = 1;
nodes = (
(546,1214,o),
(420,1359,o),
(420,1534,c),
(420,1705,o),
(571,1851,o),
(828,1851,c),
(1082,1851,o),
(1233,1705,o),
(1233,1534,c),
(1233,1359,o),
(1107,1214,o),
(828,1214,c)
);
},
{
closed = 1;
nodes = (
(401,2074,o),
(164,1843,o),
(164,1557,c),
(164,1270,o),
(401,1038,o),
(828,1038,c),
(1252,1038,o),
(1489,1270,o),
(1489,1557,c),
(1489,1843,o),
(1252,2074,o),
(827,2074,c)
);
},
{
closed = 1;
nodes = (
(518,211,o),
(342,394,o),
(342,602,c),
(342,808,o),
(490,993,o),
(828,993,c),
(1163,993,o),
(1311,808,o),
(1311,602,c),
(1311,394,o),
(1135,211,o),
(828,211,c)
);
},
{
closed = 1;
nodes = (
(352,1182,o),
(86,912,o),
(86,579,c),
(86,243,o),
(352,-28,o),
(828,-28,c),
(1301,-28,o),
(1567,243,o),
(1567,579,c),
(1567,912,o),
(1301,1182,o),
(828,1182,c)
);
}
);
width = 1653;
},
{
layerId = "F2C6FA2E-D08A-4B94-92D2-D7CA5820546A";
shapes = (
{
closed = 1;
nodes = (
(420,1151,o),
(249,1342,o),
(249,1579,c),
(249,1816,o),
(454,2010,o),
(800,2010,c),
(1145,2010,o),
(1350,1816,o),
(1350,1579,c),
(1350,1342,o),
(1179,1151,o),
(800,1151,c)
);
},
{
closed = 1;
nodes = (
(401,2074,o),
(185,1853,o),
(185,1579,c),
(185,1308,o),
(401,1088,o),
(797,1088,c),
(1193,1088,o),
(1415,1308,o),
(1415,1579,c),
(1415,1853,o),
(1193,2074,o),
(797,2074,c)
);
},
{
closed = 1;
nodes = (
(401,36,o),
(170,282,o),
(170,550,c),
(170,823,o),
(365,1072,o),
(800,1072,c),
(1234,1072,o),
(1429,823,o),
(1429,550,c),
(1429,282,o),
(1198,36,o),
(800,36,c)
);
},
{
closed = 1;
nodes = (
(355,1133,o),
(106,873,o),
(106,552,c),
(106,232,o),
(355,-28,o),
(800,-28,c),
(1244,-28,o),
(1493,232,o),
(1493,552,c),
(1493,873,o),
(1244,1133,o),
(800,1133,c)
);
}
);
width = 1599;
},
{
layerId = "F8E60EAC-58E2-4CB8-A8B6-FD6FE89414CC";
shapes = (
{
closed = 1;
nodes = (
(1017,1229,o),
(934,1308,o),
(934,1405,c),
(934,1500,o),
(1033,1581,o),
(1205,1581,c),
(1376,1581,o),
(1476,1500,o),
(1476,1405,c),
(1476,1308,o),
(1392,1229,o),
(1205,1229,c)
);
},
{
closed = 1;
nodes = (
(522,2074,o),
(184,1875,o),
(184,1524,c),
(184,1173,o),
(505,974,o),
(1213,974,c),
(1921,974,o),
(2241,1173,o),
(2241,1524,c),
(2241,1875,o),
(1905,2074,o),
(1213,2074,c)
);
},
{
closed = 1;
nodes = (
(988,453,o),
(859,552,o),
(859,665,c),
(859,776,o),
(966,876,o),
(1209,876,c),
(1452,876,o),
(1559,776,o),
(1559,665,c),
(1559,552,o),
(1432,453,o),
(1209,453,c)
);
},
{
closed = 1;
nodes = (
(422,1117,o),
(56,937,o),
(56,544,c),
(56,151,o),
(422,-30,o),
(1209,-30,c),
(1996,-30,o),
(2362,151,o),
(2362,544,c),
(2362,937,o),
(1996,1117,o),
(1209,1117,c)
);
}
);
width = 2418;
}
);
note = uni0038;
unicode = 56;
},
{
glyphname = uni0039;
kernRight = uni0030;
lastChange = "2025-05-18 19:23:46 +0000";
layers = (
{
layerId = m01;
shapes = (
{
closed = 1;
nodes = (
(1059,1852,o),
(1189,1656,o),
(1189,1405,c),
(1189,1153,o),
(1034,929,o),
(767,929,c),
(500,929,o),
(345,1153,o),
(345,1405,c),
(345,1656,o),
(474,1852,o),
(767,1852,c)
);
},
{
closed = 1;
nodes = (
(1027,705,o),
(1165,825,o),
(1233,934,c),
(1233,934,o),
(1233,825,o),
(1233,825,c),
(1232,470,o),
(1059,194,o),
(775,194,c),
(567,194,o),
(442,314,o),
(376,513,c),
(111,513,l),
(197,175,o),
(396,-28,o),
(775,-28,c),
(1319,-28,o),
(1492,394,o),
(1492,1023,c),
(1492,1233,o),
(1471,1418,o),
(1425,1573,c),
(1359,1864,o),
(1132,2076,o),
(767,2076,c),
(330,2076,o),
(90,1769,o),
(90,1391,c),
(90,1013,o),
(330,705,o),
(767,705,c)
);
}
);
width = 1582;
},
{
layerId = "F2C6FA2E-D08A-4B94-92D2-D7CA5820546A";
shapes = (
{
closed = 1;
nodes = (
(1135,2012,o),
(1310,1701,o),
(1310,1409,c),
(1310,1071,o),
(1102,770,o),
(744,770,c),
(386,770,o),
(178,1071,o),
(178,1409,c),
(178,1701,o),
(354,2012,o),
(744,2012,c)
);
},
{
closed = 1;
nodes = (
(1078,706,o),
(1288,913,o),
(1353,1197,c),
(1356,1142,o),
(1358,1084,o),
(1358,1024,c),
(1358,442,o),
(1211,37,o),
(752,37,c),
(444,37,o),
(278,219,o),
(200,515,c),
(133,515,l),
(214,178,o),
(399,-27,o),
(752,-27,c),
(1261,-27,o),
(1422,397,o),
(1422,1024,c),
(1422,1256,o),
(1397,1460,o),
(1343,1624,c),
(1268,1889,o),
(1062,2076,o),
(744,2076,c),
(338,2076,o),
(114,1770,o),
(114,1391,c),
(114,1013,o),
(338,706,o),
(744,706,c)
);
}
);
width = 1536;
},
{
layerId = "F8E60EAC-58E2-4CB8-A8B6-FD6FE89414CC";
shapes = (
{
closed = 1;
nodes = (
(1327,1566,o),
(1413,1492,o),
(1413,1396,c),
(1413,1300,o),
(1312,1215,o),
(1136,1215,c),
(958,1215,o),
(855,1300,o),
(855,1396,c),
(855,1492,o),
(941,1566,o),
(1136,1566,c)
);
},
{
closed = 1;
nodes = (
(1185,704,o),
(1422,763,o),
(1472,812,c),
(1472,812,o),
(1472,771,o),
(1472,755,cs),
(1474,658,o),
(1395,530,o),
(1206,530,c),
(1097,530,o),
(1020,578,o),
(971,665,c),
(138,665,l),
(239,240,o),
(553,-29,o),
(1192,-29,c),
(1995,-29,o),
(2284,395,o),
(2284,1024,c),
(2284,1250,o),
(2251,1449,o),
(2169,1613,c),
(2024,1965,o),
(1566,2077,o),
(1164,2077,c),
(342,2077,o),
(58,1816,o),
(58,1391,c),
(58,965,o),
(314,704,o),
(1009,704,c)
);
}
);
width = 2336;
}
);
note = uni0039;
unicode = 57;
},
{
glyphname = uniE06B;
kernLeft = uni0431;
kernRight = uni0030;
layers = (
{
layerId = m01;
shapes = (
{
closed = 1;
nodes = (
(564,208,l),
(1316,1732,l),
(1188,1836,l),
(444,324,l)
);
},
{
closed = 1;
nodes = (
(1424,219,o),
(1592,690,o),
(1592,1024,qs),
(1592,1356,o),
(1423,1827,o),
(1104,2076,o),
(880,2076,qs),
(656,2076,o),
(337,1827,o),
(168,1356,o),
(168,1024,qs),
(168,690,o),
(336,219,o),
(654,-28,o),
(880,-28,qs),
(1106,-28,o)
);
},
{
closed = 1;
nodes = (
(520,386,o),
(408,758,o),
(408,1024,qs),
(408,1423,o),
(658,1860,o),
(880,1860,qs),
(1028,1860,o),
(1239,1664,o),
(1352,1290,o),
(1352,1024,qs),
(1352,624,o),
(1104,192,o),
(880,192,qs),
(731,192,o)
);
}
);
width = 1760;
},
{
layerId = "F2C6FA2E-D08A-4B94-92D2-D7CA5820546A";
shapes = (
{
closed = 1;
nodes = (
(428,228,l),
(1228,1832,l),
(1184,1884,l),
(388,292,l)
);
},
{
closed = 1;
nodes = (
(1308,222,o),
(1460,694,o),
(1460,1020,qs),
(1460,1346,o),
(1308,1818,o),
(1027,2072,o),
(832,2072,qs),
(637,2072,o),
(356,1818,o),
(204,1346,o),
(204,1020,qs),
(204,694,o),
(356,222,o),
(637,-32,o),
(832,-32,qs),
(1027,-32,o)
);
},
{
closed = 1;
nodes = (
(405,269,o),
(268,712,o),
(268,1020,qs),
(268,1482,o),
(570,2008,o),
(832,2008,qs),
(1007,2008,o),
(1259,1771,o),
(1396,1328,o),
(1396,1020,qs),
(1396,558,o),
(1094,32,o),
(832,32,qs),
(658,32,o)
);
}
);
width = 1664;
},
{
layerId = "F8E60EAC-58E2-4CB8-A8B6-FD6FE89414CC";
shapes = (
{
closed = 1;
nodes = (
(724,232,l),
(1512,1752,l),
(1324,1824,l),
(544,312,l)
);
},
{
closed = 1;
nodes = (
(1712,203,o),
(1932,685,o),
(1932,1024,qs),
(1933,1361,o),
(1713,1833,o),
(1307,2080,o),
(1028,2080,qs),
(749,2080,o),
(344,1834,o),
(125,1362,o),
(124,1024,qs),
(123,687,o),
(343,205,o),
(749,-51,o),
(1028,-52,qs),
(1307,-52,o)
);
},
{
closed = 1;
nodes = (
(783,532,o),
(699,809,o),
(700,1024,qs),
(702,1340,o),
(884,1632,o),
(1028,1632,qs),
(1124,1632,o),
(1272,1503,o),
(1356,1235,o),
(1356,1024,qs),
(1357,701,o),
(1172,400,o),
(1028,400,qs),
(932,400,o)
);
}
);
width = 2056;
}
);
note = uniE06B;
unicode = 57451;
},
{
glyphname = uniE06C;
kernLeft = uni0031;
kernRight = uni0031;
layers = (
{
layerId = m01;
shapes = (
{
closed = 1;
nodes = (
(643,2040,o),
(582,1946,o),
(465,1830,o),
(291,1744,o),
(172,1744,q),
(172,1536,l),
(290,1536,o),
(474,1589,o),
(590,1660,o),
(604,1688,q),
(620,1688,l),
(620,0,l),
(868,0,l),
(868,2048,l),
(648,2048,l)
);
}
);
width = 1244;
},
{
layerId = "F2C6FA2E-D08A-4B94-92D2-D7CA5820546A";
shapes = (
{
closed = 1;
nodes = (
(644,2041,o),
(579,1945,o),
(464,1825,o),
(302,1733,o),
(200,1728,q),
(200,1664,l),
(318,1669,o),
(497,1770,o),
(609,1883,o),
(624,1904,q),
(640,1904,l),
(640,0,l),
(704,0,l),
(704,2048,l),
(648,2048,l)
);
}
);
width = 1136;
},
{
layerId = "F8E60EAC-58E2-4CB8-A8B6-FD6FE89414CC";
shapes = (
{
closed = 1;
nodes = (
(552,1975,o),
(485,1845,o),
(367,1745,o),
(214,1688,o),
(128,1688,q),
(128,1252,l),
(239,1252,o),
(401,1297,o),
(508,1367,o),
(536,1404,q),
(556,1404,l),
(556,0,l),
(1112,0,l),
(1112,2048,l),
(552,2048,l)
);
}
);
width = 1396;
}
);
note = uniE06C;
unicode = 57452;
},
{
glyphname = uniE06D;
kernLeft = uni0033;
kernRight = uni04E0;
layers = (
{
layerId = m01;
shapes = (
{
closed = 1;
nodes = (
(384,100,o),
(690,-28,o),
(872,-28,qs),
(1078,-28,o),
(1393,128,o),
(1572,401,o),
(1572,576,qs),
(1572,704,o),
(1476,922,o),
(1305,1086,o),
(1076,1182,o),
(944,1188,q),
(944,1204,l),
(1492,1868,l),
(1492,2048,l),
(280,2048,l),
(280,1828,l),
(1152,1828,l),
(1152,1812,l),
(640,1196,l),
(640,996,l),
(804,996,ls),
(994,996,o),
(1224,878,o),
(1328,687,o),
(1328,576,qs),
(1328,449,o),
(1208,278,o),
(1004,192,o),
(876,192,qs),
(758,192,o),
(564,265,o),
(443,408,o),
(432,512,q),
(180,512,l),
(192,342,o)
);
}
);
width = 1768;
},
{
layerId = "F2C6FA2E-D08A-4B94-92D2-D7CA5820546A";
shapes = (
{
closed = 1;
nodes = (
(384,112,o),
(660,-28,o),
(832,-28,qs),
(1021,-28,o),
(1293,135,o),
(1440,406,o),
(1440,568,qs),
(1440,703,o),
(1338,918,o),
(1151,1071,o),
(891,1157,o),
(732,1164,q),
(732,1172,l),
(1388,1996,l),
(1388,2048,l),
(308,2048,l),
(308,1984,l),
(1292,1984,l),
(1292,1976,l),
(648,1168,l),
(648,1104,l),
(652,1104,ls),
(889,1104,o),
(1212,967,o),
(1376,726,o),
(1376,568,qs),
(1376,427,o),
(1248,184,o),
(1005,36,o),
(832,36,qs),
(678,36,o),
(432,159,o),
(288,374,o),
(288,512,q),
(224,512,l),
(224,356,o)
);
}
);
width = 1688;
},
{
layerId = "F8E60EAC-58E2-4CB8-A8B6-FD6FE89414CC";
shapes = (
{
closed = 1;
nodes = (
(313,140,o),
(687,-28,o),
(940,-28,qs),
(1179,-28,o),
(1563,125,o),
(1788,402,o),
(1788,588,qs),
(1788,673,o),
(1730,851,o),
(1593,1010,o),
(1354,1126,o),
(1172,1148,q),
(1172,1164,l),
(1724,1648,l),
(1724,2048,l),
(208,2048,l),
(208,1604,l),
(1064,1604,l),
(1064,1592,l),
(648,1216,l),
(648,848,l),
(908,848,ls),
(993,848,o),
(1125,798,o),
(1200,703,o),
(1200,636,qs),
(1200,575,o),
(1137,477,o),
(1020,420,o),
(940,420,qs),
(864,420,o),
(740,472,o),
(666,565,o),
(664,624,q),
(104,624,l),
(106,434,o)
);
}
);
width = 1900;
}
);
note = uniE06D;
unicode = 57453;
},
{
glyphname = uniE06E;
kernLeft = uni0034;
kernRight = uni0034;
layers = (
{
layerId = m01;
shapes = (
{
closed = 1;
nodes = (
(1644,640,l),
(428,640,l),
(428,656,l),
(1228,2048,l),
(984,2048,l),
(164,624,l),
(164,420,l),
(1644,420,l)
);
},
{
closed = 1;
nodes = (
(1364,1280,l),
(1128,1280,l),
(1128,577,l),
(1128,480,l),
(1128,0,l),
(1364,0,l)
);
}
);
width = 1808;
},
{
layerId = "F2C6FA2E-D08A-4B94-92D2-D7CA5820546A";
shapes = (
{
closed = 1;
nodes = (
(1468,544,l),
(300,544,l),
(300,552,l),
(1220,2048,l),
(1144,2048,l),
(208,528,l),
(208,480,l),
(1468,480,l)
);
},
{
closed = 1;
nodes = (
(1212,1280,l),
(1148,1280,l),
(1148,520,l),
(1148,500,l),
(1148,0,l),
(1212,0,l)
);
}
);
width = 1676;
},
{
layerId = "F8E60EAC-58E2-4CB8-A8B6-FD6FE89414CC";
shapes = (
{
closed = 1;
nodes = (
(1880,752,l),
(664,752,l),
(664,768,l),
(1376,2048,l),
(844,2048,l),
(116,752,l),
(116,320,l),
(1880,320,l)
);
},
{
closed = 1;
nodes = (
(1632,1280,l),
(1132,1280,l),
(1132,640,l),
(1112,448,l),
(1112,0,l),
(1632,0,l)
);
}
);
width = 1976;
}
);
note = uniE06E;
unicode = 57454;
},
{
glyphname = uniE06F;
kernLeft = uniE06F;
kernRight = uniE06F;
layers = (
{
layerId = m01;
shapes = (
{
closed = 1;
nodes = (
(328,147,o),
(620,-28,o),
(808,-28,qs),
(994,-28,o),
(1285,142,o),
(1452,438,o),
(1452,628,qs),
(1452,818,o),
(1283,1116,o),
(990,1288,o),
(804,1288,qs),
(765,1288,o),
(688,1272,o),
(652,1260,q),
(1192,2048,l),
(920,2048,l),
(460,1368,ls),
(348,1202,o),
(220,950,o),
(166,744,o),
(164,648,qs),
(162,452,o)
);
},
{
closed = 1;
nodes = (
(504,957,o),
(688,1068,o),
(808,1068,qs),
(928,1068,o),
(1112,956,o),
(1216,758,o),
(1216,628,qs),
(1216,500,o),
(1112,301,o),
(928,188,o),
(808,188,qs),
(688,188,o),
(504,302,o),
(400,502,o),
(400,632,qs),
(400,760,o)
);
}
);
width = 1616;
},
{
layerId = "F2C6FA2E-D08A-4B94-92D2-D7CA5820546A";
shapes = (
{
closed = 1;
nodes = (
(368,145,o),
(637,-28,o),
(800,-28,qs),
(964,-28,o),
(1232,145,o),
(1392,436,o),
(1392,612,qs),
(1392,789,o),
(1232,1079,o),
(964,1252,o),
(800,1252,qs),
(727,1252,o),
(592,1216,o),
(532,1184,q),
(1128,2048,l),
(1052,2048,l),
(344,1020,ls),
(305,963,o),
(243,833,o),
(208,690,o),
(208,612,qs),
(208,436,o)
);
},
{
closed = 1;
nodes = (
(415,1033,o),
(655,1188,o),
(800,1188,qs),
(946,1188,o),
(1185,1033,o),
(1328,771,o),
(1328,612,qs),
(1328,453,o),
(1185,192,o),
(946,36,o),
(800,36,qs),
(655,36,o),
(415,192,o),
(272,453,o),
(272,612,qs),
(272,771,o)
);
}
);
width = 1600;
},
{
layerId = "F8E60EAC-58E2-4CB8-A8B6-FD6FE89414CC";
shapes = (
{
closed = 1;
nodes = (
(390,129,o),
(764,-28,o),
(980,-28,qs),
(1210,-28,o),
(1570,151,o),
(1776,480,o),
(1776,704,qs),
(1776,906,o),
(1610,1208,o),
(1318,1376,o),
(1128,1376,qs),
(1083,1376,o),
(999,1366,o),
(960,1360,q),
(1428,2048,l),
(884,2048,l),
(400,1332,ls),
(326,1224,o),
(218,1011,o),
(160,792,o),
(160,676,qs),
(160,442,o)
);
},
{
closed = 1;
nodes = (
(775,894,o),
(896,968,o),
(976,968,qs),
(1052,968,o),
(1171,894,o),
(1240,764,o),
(1240,680,qs),
(1240,596,o),
(1173,466,o),
(1054,392,o),
(976,392,qs),
(896,392,o),
(775,466,o),
(708,596,o),
(708,680,qs),
(708,764,o)
);
}
);
width = 1888;
}
);
note = uniE06F;
unicode = 57455;
},
{
glyphname = uniE070;
kernLeft = uniE070;
kernRight = uniE070;
layers = (
{
layerId = m01;
shapes = (
{
closed = 1;
nodes = (
(333,932,o),
(626,760,o),
(812,760,qs),
(851,760,o),
(928,776,o),
(964,788,q),
(424,0,l),
(696,0,l),
(1156,680,ls),
(1268,846,o),
(1396,1098,o),
(1450,1304,o),
(1452,1400,qs),
(1454,1596,o),
(1288,1901,o),
(996,2076,o),
(808,2076,qs),
(622,2076,o),
(331,1906,o),
(164,1610,o),
(164,1420,qs),
(164,1230,o)
);
},
{
closed = 1;
nodes = (
(504,1747,o),
(688,1860,o),
(808,1860,qs),
(928,1860,o),
(1112,1746,o),
(1216,1546,o),
(1216,1416,qs),
(1216,1288,o),
(1112,1091,o),
(928,980,o),
(808,980,qs),
(688,980,o),
(504,1092,o),
(400,1290,o),
(400,1420,qs),
(400,1548,o)
);
}
);
width = 1616;
},
{
layerId = "F2C6FA2E-D08A-4B94-92D2-D7CA5820546A";
shapes = (
{
closed = 1;
nodes = (
(367,969,o),
(636,796,o),
(800,796,qs),
(872,796,o),
(1008,831,o),
(1068,864,q),
(472,0,l),
(548,0,l),
(1256,1028,ls),
(1296,1086,o),
(1357,1215,o),
(1392,1358,o),
(1392,1436,qs),
(1392,1612,o),
(1233,1903,o),
(964,2076,o),
(800,2076,qs),
(636,2076,o),
(367,1903,o),
(208,1612,o),
(208,1436,qs),
(208,1260,o)
);
},
{
closed = 1;
nodes = (
(414,1856,o),
(654,2012,o),
(800,2012,qs),
(946,2012,o),
(1186,1856,o),
(1328,1594,o),
(1328,1436,qs),
(1328,1276,o),
(1186,1015,o),
(946,860,o),
(800,860,qs),
(654,860,o),
(414,1015,o),
(272,1276,o),
(272,1436,qs),
(272,1594,o)
);
}
);
width = 1600;
},
{
layerId = "F8E60EAC-58E2-4CB8-A8B6-FD6FE89414CC";
shapes = (
{
closed = 1;
nodes = (
(276,840,o),
(568,672,o),
(760,672,qs),
(805,672,o),
(888.814,683.429,o),
(928,692,q),
(460,0,l),
(1004,0,l),
(1488,716,ls),
(1560,824,o),
(1668,1037,o),
(1728,1256,o),
(1728,1371.726,qs),
(1728,1608,o),
(1496,1921,o),
(1122,2076,o),
(908,2076,qs),
(676,2076,o),
(317,1897,o),
(112,1568,o),
(112,1344,qs),
(112,1142,o)
);
},
{
closed = 1;
nodes = (
(715,1582,o),
(834.34,1656,o),
(912.17,1656,qs),
(990,1656,o),
(1111.389,1582.054,o),
(1180,1452.324,o),
(1180,1368,qs),
(1180,1283.717,o),
(1111,1154,o),
(990,1080,o),
(912,1080,qs),
(834.353,1080,o),
(715.294,1153.703,o),
(648,1284,o),
(648,1368,qs),
(648,1451.768,o)
);
}
);
width = 1888;
}
);
note = uniE070;
unicode = 57456;
},
{
glyphname = uni0026;
layers = (
{
layerId = m01;
shapes = (
{
closed = 1;
nodes = (
(1245,81,o),
(1344,192,qs),
(1356,207,o),
(1376,237,o),
(1388,252,q),
(1424,288,o),
(1542,434,o),
(1636,692,o),
(1636,896,q),
(1408,896,l),
(1408,731,o),
(1303,467,o),
(1124,279,o),
(904,180,o),
(788,180,qs),
(666,180,o),
(484,282,o),
(384,448,o),
(384,544,qs),
(384,586,o),
(482,778,o),
(620,880,qs),
(1028,1184,ls),
(1154,1277,o),
(1300,1493,o),
(1300,1640,qs),
(1300,1754,o),
(1180,1949,o),
(958,2068,o),
(804,2068,qs),
(654,2068,o),
(431,1951,o),
(308,1742,o),
(308,1604,qs),
(308,1484,o),
(412,1278,o),
(588,1066,o),
(696,936,qs),
(1472,0,l),
(1756,0,l),
(816,1148,ls),
(750,1228,o),
(627,1381,o),
(548,1528,o),
(548,1600,qs),
(548,1664,o),
(615,1785,o),
(734,1864,o),
(812,1864,qs),
(923,1864,o),
(1060,1718,o),
(1060,1640,qs),
(1060,1535,o),
(955,1405,o),
(868,1348,q),
(572,1128,l),
(446,1042,o),
(253,871,o),
(144,672,o),
(144,544,qs),
(144,378,o),
(302,120,o),
(594,-28,o),
(796,-28,qs),
(943,-28,o)
);
}
);
width = 1800;
},
{
layerId = "F2C6FA2E-D08A-4B94-92D2-D7CA5820546A";
shapes = (
{
closed = 1;
nodes = (
(1194,96,o),
(1296,204,qs),
(1309,218,o),
(1333,248,o),
(1344,264,qs),
(1388,326,o),
(1463,480,o),
(1518,650,o),
(1532,736,q),
(1468,744,l),
(1442,589,o),
(1325,332,o),
(1146,145,o),
(906,39,o),
(756,36,qs),
(612,38,o),
(380,166,o),
(244,380,o),
(244,512,qs),
(244,635,o),
(389,839,o),
(572,980,qs),
(872,1204,ls),
(1028,1327,o),
(1164,1537,o),
(1164,1660,qs),
(1164,1780,o),
(1059,1968,o),
(876,2076,o),
(760,2076,qs),
(642,2076,o),
(444,1957,o),
(324,1760,o),
(324,1644,qs),
(324,1566,o),
(390,1421,o),
(518,1250,o),
(612,1132,qs),
(1508,0,l),
(1588,0,l),
(660,1172,ls),
(566,1290,o),
(446,1451,o),
(388,1578,o),
(388,1644,qs),
(388,1742,o),
(491,1910,o),
(660,2012,o),
(760,2012,qs),
(907,2012,o),
(1100,1813,o),
(1100,1660,qs),
(1100,1551,o),
(977,1369,o),
(832,1256,qs),
(532,1032,ls),
(402,932,o),
(248,765,o),
(180,604,o),
(180,512,qs),
(180,362,o),
(333,117,o),
(594,-28,o),
(756,-28,qs),
(906,-28,o)
);
}
);
width = 1644;
},
{
layerId = "F8E60EAC-58E2-4CB8-A8B6-FD6FE89414CC";
shapes = (
{
closed = 1;
nodes = (
(1197,33,o),
(1320,112,q),
(1362,133,o),
(1442,171,o),
(1484,192,q),
(1618,286,o),
(1782,560,o),
(1856,890,o),
(1856,1068,q),
(1420,1068,l),
(1420,923,o),
(1317,678,o),
(1147,499,o),
(942,400,o),
(840,400,qs),
(773,400,o),
(674,444,o),
(620,526,o),
(620,584,qs),
(620,654,o),
(691,742,o),
(740,776,qs),
(1164,1076,ls),
(1295,1169,o),
(1436,1417,o),
(1436,1560,qs),
(1436,1702,o),
(1301,1938,o),
(1052,2080,o),
(880,2080,qs),
(700,2080,o),
(430,1926,o),
(280,1668,o),
(280,1512,qs),
(280,1372,o),
(387,1134,o),
(535,945,o),
(596,880,qs),
(1428,0,l),
(1980,0,l),
(988,1092,l),
(914,1180,o),
(796,1322,o),
(728,1445,o),
(728,1504,qs),
(728,1547,o),
(765,1609,o),
(833,1644,o),
(880,1644,qs),
(956,1645,o),
(1028,1569,o),
(1028,1520,qs),
(1028,1483,o),
(978,1388,o),
(908,1344,qs),
(444,1056,l),
(338,984,o),
(180,836,o),
(92,659,o),
(92,544,qs),
(92,386,o),
(262,124,o),
(580,-32,o),
(800,-32,qs),
(929,-32,o)
);
}
);
width = 1964;
}
);
note = uni0026;
unicode = 38;
},
{
glyphname = uni0021;
lastChange = "2025-05-25 13:30:25 +0000";
layers = (
{
layerId = m01;
shapes = (
{
closed = 1;
nodes = (
(105,2048,l),
(137,512,l),
(329,512,l),
(361,2048,l)
);
},
{
closed = 1;
nodes = (
(105,0,l),
(361,0,l),
(361,257,l),
(105,257,l)
);
}
);
width = 466;
},
{
layerId = "F2C6FA2E-D08A-4B94-92D2-D7CA5820546A";
shapes = (
{
closed = 1;
nodes = (
(168,2048,l),
(178,512,l),
(242,512,l),
(252,2048,l)
);
},
{
closed = 1;
nodes = (
(178,0,l),
(242,0,l),
(242,257,l),
(178,257,l)
);
}
);
width = 420;
},
{
layerId = "F8E60EAC-58E2-4CB8-A8B6-FD6FE89414CC";
shapes = (
{
closed = 1;
nodes = (
(55,2048,l),
(125,593,l),
(833,593,l),
(895,2048,l)
);
},
{
closed = 1;
nodes = (
(125,0,l),
(833,0,l),
(833,516,l),
(125,516,l)
);
}
);
width = 950;
}
);
note = uni0021;
unicode = 33;
},
{
glyphname = uni003F;
lastChange = "2025-05-26 12:53:52 +0000";
layers = (
{
layerId = m01;
shapes = (
{
closed = 1;
nodes = (
(615,0,l),
(865,0,l),
(865,250,l),
(615,250,l)
);
},
{
closed = 1;
nodes = (
(468,1838,o),
(362,1682,o),
(362,1510,c),
(362,1390,l),
(112,1390,l),
(112,1510,l),
(112,1823,o),
(331,2075,o),
(752,2075,c),
(1175,2075,o),
(1394,1820,o),
(1394,1508,c),
(1394,1337,o),
(1316,1174,o),
(1183,1066,c),
(983,908,l),
(909,848,o),
(865,756,o),
(865,662,c),
(865,526,l),
(615,526,l),
(615,662,l),
(615,834,o),
(693,995,o),
(827,1103,c),
(1025,1261,l),
(1097,1321,o),
(1141,1413,o),
(1141,1508,c),
(1141,1682,o),
(1036,1838,o),
(753,1838,c)
);
}
);
width = 1534;
},
{
layerId = "F2C6FA2E-D08A-4B94-92D2-D7CA5820546A";
shapes = (
{
closed = 1;
nodes = (
(645,0,l),
(719,4,l),
(719,257,l),
(645,257,l)
);
},
{
closed = 1;
nodes = (
(346,2027,o),
(193,1825,o),
(193,1592,c),
(193,1470,l),
(132,1470,l),
(132,1592,l),
(132,1860,o),
(312,2075,o),
(690,2075,c),
(1070,2075,o),
(1250,1857,o),
(1250,1592,c),
(1250,1446,o),
(1185,1307,o),
(1070,1217,c),
(865,1050,l),
(767,974,o),
(712,851,o),
(712,727,c),
(712,588,l),
(645,588,l),
(645,727,l),
(645,873,o),
(712,1008,o),
(827,1102,c),
(1028,1266,l),
(1129,1346,o),
(1185,1463,o),
(1185,1592,c),
(1185,1822,o),
(1036,2027,o),
(691,2027,c)
);
}
);
width = 1410;
},
{
layerId = "F8E60EAC-58E2-4CB8-A8B6-FD6FE89414CC";
shapes = (
{
closed = 1;
nodes = (
(889,0,l),
(1673,0,l),
(1673,500,l),
(889,500,l)
);
},
{
closed = 1;
nodes = (
(880,1561,o),
(889,1415,o),
(889,1391,c),
(889,1291,l),
(104,1291,l),
(104,1391,l),
(104,1768,o),
(366,2075,o),
(1296,2075,c),
(2226,2075,o),
(2488,1768,o),
(2488,1391,c),
(2488,1107,o),
(2265,922,o),
(1934,830,c),
(1796,791,l),
(1734,769,o),
(1673,738,o),
(1673,676,c),
(1673,584,l),
(880,584,l),
(880,646,l),
(880,937,o),
(1112,1130,o),
(1442,1230,c),
(1573,1269,l),
(1642,1284,o),
(1703,1323,o),
(1703,1391,c),
(1703,1415,o),
(1734,1561,o),
(1296,1561,c)
);
}
);
width = 2612;
}
);
note = uni003F;
unicode = 63;
},
{
glyphname = uni0028;
kernLeft = uni0028;
kernRight = uni0028;
lastChange = "2025-05-27 21:07:51 +0000";
layers = (
{
layerId = m01;
shapes = (
{
attr = {
fillColor = (0,255);
};
closed = 1;
nodes = (
(621,2141,l),
(424,1828,o),
(300,1346,o),
(300,846,c),
(300,348,o),
(416,-103,o),
(601,-416,c),
(856,-416,l),
(671,-103,o),
(555,330,o),
(555,846,c),
(555,1363,o),
(679,1828,o),
(875,2141,c)
);
}
);
width = 1007;
},
{
layerId = "F2C6FA2E-D08A-4B94-92D2-D7CA5820546A";
shapes = (
{
attr = {
fillColor = (0,255);
};
closed = 1;
nodes = (
(650,2143,l),
(453,1829,o),
(328,1349,o),
(328,848,c),
(328,348,o),
(445,-103,o),
(629,-415,c),
(693,-415,l),
(508,-103,o),
(392,331,o),
(392,848,c),
(392,1366,o),
(516,1829,o),
(713,2143,c)
);
}
);
width = 909;
},
{
layerId = "F8E60EAC-58E2-4CB8-A8B6-FD6FE89414CC";
shapes = (
{
attr = {
fillColor = (0,255);
};
closed = 1;
nodes = (
(557,2048,l),
(363,1740,o),
(240,1268,o),
(240,776,c),
(240,286,o),
(354,-157,o),
(537,-464,c),
(1322,-464,l),
(1140,-157,o),
(1025,268,o),
(1025,776,c),
(1025,1285,o),
(1148,1740,o),
(1342,2048,c)
);
}
);
width = 1382;
}
);
note = uni0028;
unicode = 40;
},
{
glyphname = uni0029;
kernLeft = uni0029;
kernRight = uni0029;
lastChange = "2025-05-27 21:05:55 +0000";
layers = (
{
layerId = m01;
shapes = (
{
attr = {
fillColor = (0,255);
};
closed = 1;
nodes = (
(328,1828,o),
(452,1363,o),
(452,846,c),
(452,330,o),
(336,-103,o),
(151,-416,c),
(406,-416,l),
(591,-103,o),
(707,348,o),
(707,846,c),
(707,1346,o),
(583,1828,o),
(386,2141,c),
(132,2141,l)
);
}
);
width = 1007;
},
{
layerId = "F2C6FA2E-D08A-4B94-92D2-D7CA5820546A";
shapes = (
{
attr = {
fillColor = (0,255);
};
closed = 1;
nodes = (
(393,1829,o),
(517,1366,o),
(517,848,c),
(517,331,o),
(401,-103,o),
(216,-415,c),
(280,-415,l),
(464,-103,o),
(581,348,o),
(581,848,c),
(581,1349,o),
(456,1829,o),
(259,2143,c),
(196,2143,l)
);
}
);
width = 909;
},
{
layerId = "F8E60EAC-58E2-4CB8-A8B6-FD6FE89414CC";
shapes = (
{
attr = {
fillColor = (0,255);
};
closed = 1;
nodes = (
(234,1740,o),
(357,1285,o),
(357,776,c),
(357,268,o),
(242,-157,o),
(60,-464,c),
(845,-464,l),
(1028,-157,o),
(1142,286,o),
(1142,776,c),
(1142,1268,o),
(1019,1740,o),
(825,2048,c),
(40,2048,l)
);
}
);
width = 1382;
}
);
note = uni0029;
unicode = 41;
},
{
glyphname = uni005B;
kernLeft = uni0028;
kernRight = uni0028;
lastChange = "2025-03-20 14:29:40 +0000";
layers = (
{
layerId = m01;
shapes = (
{
closed = 1;
nodes = (
(332,-314,l),
(594,-314,l),
(594,2395,l),
(332,2395,l)
);
},
{
closed = 1;
nodes = (
(332,-314,l),
(935,-314,l),
(935,-85,l),
(332,-85,l)
);
},
{
closed = 1;
nodes = (
(332,2166,l),
(935,2166,l),
(935,2395,l),
(332,2395,l)
);
}
);
width = 1031;
},
{
layerId = "F2C6FA2E-D08A-4B94-92D2-D7CA5820546A";
shapes = (
{
closed = 1;
nodes = (
(352,-464,l),
(421,-464,l),
(421,2395,l),
(352,2395,l)
);
},
{
closed = 1;
nodes = (
(352,-464,l),
(779,-464,l),
(779,-414,l),
(352,-414,l)
);
},
{
closed = 1;
nodes = (
(352,2344,l),
(779,2344,l),
(779,2395,l),
(352,2395,l)
);
}
);
width = 963;
},
{
layerId = "F8E60EAC-58E2-4CB8-A8B6-FD6FE89414CC";
shapes = (
{
closed = 1;
nodes = (
(276,-464,l),
(964,-464,l),
(964,2395,l),
(276,2395,l)
);
},
{
closed = 1;
nodes = (
(724,-464,l),
(1361,-464,l),
(1361,53,l),
(724,53,l)
);
},
{
closed = 1;
nodes = (
(724,1877,l),
(1361,1877,l),
(1361,2395,l),
(724,2395,l)
);
}
);
width = 1405;
}
);
note = uni005B;
unicode = 91;
},
{
glyphname = uni005D;
kernLeft = uni0029;
kernRight = uni0029;
lastChange = "2025-03-20 14:31:21 +0000";
layers = (
{
layerId = m01;
shapes = (
{
closed = 1;
nodes = (
(437,2395,l),
(437,-314,l),
(699,-314,l),
(699,2395,l)
);
},
{
closed = 1;
nodes = (
(96,-85,l),
(96,-314,l),
(699,-314,l),
(699,-85,l)
);
},
{
closed = 1;
nodes = (
(96,2395,l),
(96,2166,l),
(699,2166,l),
(699,2395,l)
);
}
);
width = 1031;
},
{
layerId = "F2C6FA2E-D08A-4B94-92D2-D7CA5820546A";
shapes = (
{
closed = 1;
nodes = (
(547,2395,l),
(547,-464,l),
(616,-464,l),
(616,2395,l)
);
},
{
closed = 1;
nodes = (
(189,-414,l),
(189,-464,l),
(616,-464,l),
(616,-414,l)
);
},
{
closed = 1;
nodes = (
(189,2395,l),
(189,2344,l),
(616,2344,l),
(616,2395,l)
);
}
);
width = 968;
},
{
layerId = "F8E60EAC-58E2-4CB8-A8B6-FD6FE89414CC";
shapes = (
{
closed = 1;
nodes = (
(441,2395,l),
(441,-464,l),
(1129,-464,l),
(1129,2395,l)
);
},
{
closed = 1;
nodes = (
(44,53,l),
(44,-464,l),
(681,-464,l),
(681,53,l)
);
},
{
closed = 1;
nodes = (
(44,2395,l),
(44,1877,l),
(681,1877,l),
(681,2395,l)
);
}
);
width = 1405;
}
);
note = uni005D;
unicode = 93;
},
{
glyphname = uni007B;
kernLeft = uni0028;
kernRight = uni0028;
layers = (
{
layerId = m01;
shapes = (
{
closed = 1;
nodes = (
(469,910,o),
(579,1002,o),
(620,1130,o),
(620,1208,qs),
(620,1608,ls),
(620,1725,o),
(675,1876,o),
(808,1948,o),
(924,1948,q),
(924,2144,l),
(777,2144,o),
(577,2080,o),
(457,1948,o),
(404,1746,o),
(404,1608,qs),
(404,1288,ls),
(404,1124,o),
(271,984,o),
(104,984,q),
(104,860,l),
(266,860,o)
);
},
{
closed = 1;
nodes = (
(808,-220,o),
(675,-147,o),
(620,3,o),
(620,120,qs),
(620,520,ls),
(620,598,o),
(579,726,o),
(469,818,o),
(266,868,o),
(104,868,q),
(104,744,l),
(271,744,o),
(404,604,o),
(404,440,qs),
(404,120,ls),
(404,-18,o),
(457,-220,o),
(577,-352,o),
(777,-416,o),
(924,-416,q),
(924,-220,l)
);
},
{
closed = 1;
nodes = (
(340,984,l),
(104,984,l),
(104,744,l),
(340,744,l)
);
}
);
width = 1020;
},
{
layerId = "F2C6FA2E-D08A-4B94-92D2-D7CA5820546A";
shapes = (
{
closed = 1;
nodes = (
(422,871,o),
(506,956,o),
(544,1093,o),
(544,1192,qs),
(544,1716,ls),
(544,1844,o),
(607,2005,o),
(740,2081,o),
(844,2080,q),
(844,2144,l),
(751,2144,o),
(614,2092,o),
(524,1986,o),
(480,1825,o),
(480,1716,qs),
(480,1192,ls),
(480,1020,o),
(357,897,o),
(184,896,q),
(184,832,l),
(284,832,o)
);
},
{
closed = 1;
nodes = (
(740,-352,o),
(607,-277,o),
(544,-116,o),
(544,12,qs),
(544,536,ls),
(544,635,o),
(506,772,o),
(422,856,o),
(284,895,o),
(184,896,q),
(184,832,l),
(357,831,o),
(480,708,o),
(480,536,qs),
(480,12,ls),
(480,-97,o),
(524,-258,o),
(614,-364,o),
(751,-416,o),
(844,-416,q),
(844,-352,l)
);
},
{
closed = 1;
nodes = (
(400,896,l),
(184,896,l),
(184,832,l),
(400,832,l)
);
}
);
width = 888;
},
{
layerId = "F8E60EAC-58E2-4CB8-A8B6-FD6FE89414CC";
shapes = (
{
closed = 1;
nodes = (
(677,848,o),
(857,962,o),
(924,1105,o),
(924,1180,qs),
(924,1400,ls),
(924,1484,o),
(960,1594,o),
(1076,1648,o),
(1196,1648,q),
(1196,2048,l),
(1042,2048,o),
(752,2027,o),
(523,1925,o),
(388,1688,o),
(388,1472,qs),
(388,1316,ls),
(388,1169,o),
(252,1032,o),
(76,1032,q),
(76,780,l),
(343,780,o)
);
},
{
closed = 1;
nodes = (
(1076,-64,o),
(960,-10,o),
(924,101,o),
(924,184,qs),
(924,404,ls),
(924,479,o),
(857,622,o),
(677,736,o),
(343,804,o),
(76,804,q),
(76,552,l),
(252,552,o),
(388,415,o),
(388,268,qs),
(388,112,ls),
(388,-104,o),
(523,-341,o),
(752,-443,o),
(1042,-464,o),
(1196,-464,q),
(1196,-64,l)
);
},
{
closed = 1;
nodes = (
(516,1032,l),
(76,1032,l),
(76,552,l),
(516,552,l)
);
}
);
width = 1240;
}
);
note = uni007B;
unicode = 123;
},
{
glyphname = uni007D;
kernLeft = uni0029;
kernRight = uni0029;
layers = (
{
layerId = m01;
shapes = (
{
closed = 1;
nodes = (
(551,818,o),
(441,726,o),
(400,598,o),
(400,520,qs),
(400,120,ls),
(400,3,o),
(345,-147,o),
(212,-220,o),
(96,-220,q),
(96,-416,l),
(243,-416,o),
(443,-352,o),
(563,-220,o),
(616,-18,o),
(616,120,qs),
(616,440,ls),
(616,604,o),
(749,744,o),
(916,744,q),
(916,868,l),
(754,868,o)
);
},
{
closed = 1;
nodes = (
(212,1948,o),
(345,1876,o),
(400,1725,o),
(400,1608,qs),
(400,1208,ls),
(400,1130,o),
(441,1002,o),
(551,910,o),
(754,860,o),
(916,860,q),
(916,984,l),
(749,984,o),
(616,1124,o),
(616,1288,qs),
(616,1608,ls),
(616,1746,o),
(563,1948,o),
(443,2080,o),
(243,2144,o),
(96,2144,q),
(96,1948,l)
);
},
{
closed = 1;
nodes = (
(680,744,l),
(916,744,l),
(916,984,l),
(680,984,l)
);
}
);
width = 1020;
},
{
layerId = "F2C6FA2E-D08A-4B94-92D2-D7CA5820546A";
shapes = (
{
closed = 1;
nodes = (
(466,857,o),
(382,772,o),
(344,635,o),
(344,536,qs),
(344,12,ls),
(344,-116,o),
(281,-277,o),
(149,-352,o),
(44,-352,q),
(44,-416,l),
(137,-416,o),
(274,-364,o),
(364,-258,o),
(408,-97,o),
(408,12,qs),
(408,536,ls),
(408,708,o),
(531,831,o),
(704,832,q),
(704,896,l),
(604,896,o)
);
},
{
closed = 1;
nodes = (
(149,2081,o),
(281,2005,o),
(344,1844,o),
(344,1716,qs),
(344,1192,ls),
(344,1093,o),
(382,956,o),
(466,872,o),
(604,833,o),
(704,832,q),
(704,896,l),
(531,897,o),
(408,1020,o),
(408,1192,qs),
(408,1716,ls),
(408,1825,o),
(364,1986,o),
(274,2092,o),
(137,2144,o),
(44,2144,q),
(44,2080,l)
);
},
{
closed = 1;
nodes = (
(488,832,l),
(704,832,l),
(704,896,l),
(488,896,l)
);
}
);
width = 888;
},
{
layerId = "F8E60EAC-58E2-4CB8-A8B6-FD6FE89414CC";
shapes = (
{
closed = 1;
nodes = (
(563,736,o),
(383,622,o),
(316,479,o),
(316,404,qs),
(316,184,ls),
(316,101,o),
(280,-10,o),
(164,-64,o),
(44,-64,q),
(44,-464,l),
(199,-464,o),
(488,-443,o),
(717,-341,o),
(852,-104,o),
(852,112,qs),
(852,268,ls),
(852,415,o),
(989,552,o),
(1164,552,q),
(1164,804,l),
(897,804,o)
);
},
{
closed = 1;
nodes = (
(164,1648,o),
(280,1594,o),
(316,1484,o),
(316,1400,qs),
(316,1180,ls),
(316,1105,o),
(383,962,o),
(563,848,o),
(897,780,o),
(1164,780,q),
(1164,1032,l),
(989,1032,o),
(852,1169,o),
(852,1316,qs),
(852,1472,ls),
(852,1688,o),
(717,1925,o),
(488,2027,o),
(199,2048,o),
(44,2048,q),
(44,1648,l)
);
},
{
closed = 1;
nodes = (
(724,552,l),
(1164,552,l),
(1164,1032,l),
(724,1032,l)
);
}
);
width = 1240;
}
);
note = uni007D;
unicode = 125;
},
{
glyphname = uni0040;
layers = (
{
layerId = m01;
shapes = (
{
closed = 1;
nodes = (
(1723,-506,o),
(1922,-454,o),
(1984,-428,q),
(1928,-244,l),
(1892,-256,o),
(1728,-306,o),
(1514,-348,o),
(1404,-348,qs),
(1148,-348,o),
(756,-207,o),
(491,65,o),
(356,461,o),
(356,716,qs),
(356,967,o),
(491,1362,o),
(750,1639,o),
(1121,1784,o),
(1356,1784,qs),
(1547,1784,o),
(1848,1685,o),
(2072,1511,o),
(2219,1283,o),
(2292,1022,o),
(2292,888,qs),
(2292,660,o),
(2251,368,o),
(2142,228,o),
(2040,228,qs),
(1950,228,o),
(1856,356,o),
(1856,440,qs),
(1856,1344,l),
(1644,1344,l),
(1644,1232,l),
(1632,1232,l),
(1618,1276,o),
(1512,1349,o),
(1348,1386,o),
(1248,1376,qs),
(1136,1364,o),
(943,1263,o),
(800,1095,o),
(720,871,o),
(720,736,qs),
(720,594,o),
(787,349,o),
(920,164,o),
(1118,57,o),
(1248,52,qs),
(1362,48,o),
(1521,110,o),
(1620,214,o),
(1644,272,q),
(1656,272,l),
(1668,186,o),
(1798,84,o),
(1966,40,o),
(2036,40,qs),
(2195,40,o),
(2382,192,o),
(2472,441,o),
(2500,739,o),
(2500,884,qs),
(2500,1090,o),
(2357,1478,o),
(2072,1789,o),
(1649,1972,o),
(1368,1972,qs),
(1079,1972,o),
(622,1802,o),
(303,1479,o),
(136,1017,o),
(136,724,qs),
(136,421,o),
(300,-49,o),
(620,-373,o),
(1090,-540,o),
(1396,-540,qs),
(1498,-540,o)
);
},
{
closed = 1;
nodes = (
(996,395,o),
(928,620,o),
(928,748,qs),
(928,864,o),
(1013,1061,o),
(1174,1180,o),
(1288,1180,qs),
(1408,1180,o),
(1572,1104,o),
(1656,916,o),
(1656,748,qs),
(1656,582,o),
(1580,364,o),
(1414,256,o),
(1280,256,qs),
(1150,256,o)
);
}
);
width = 2636;
},
{
layerId = "F2C6FA2E-D08A-4B94-92D2-D7CA5820546A";
shapes = (
{
closed = 1;
nodes = (
(1661,-497,o),
(1872,-404,o),
(1968,-336,q),
(1928,-284,l),
(1838,-348,o),
(1641,-435,o),
(1430,-480,o),
(1320,-480,qs),
(1089,-480,o),
(685,-295,o),
(378,32,o),
(204,465,o),
(204,712,qs),
(204,960,o),
(378,1392,o),
(685,1719,o),
(1089,1904,o),
(1320,1904,qs),
(1504,1904,o),
(1837,1784,o),
(2115,1565,o),
(2319,1268,o),
(2432,910,o),
(2432,712,qs),
(2432,548,o),
(2322,289,o),
(2130,140,o),
(2008,140,qs),
(1918,140,o),
(1856,237,o),
(1856,384,qs),
(1856,1356,l),
(1792,1356,l),
(1792,1036,l),
(1784,1036,l),
(1736,1138,o),
(1586,1291,o),
(1398,1376,o),
(1292,1376,qs),
(1174,1376,o),
(967,1273,o),
(812,1091,o),
(724,850,o),
(724,712,qs),
(724,574,o),
(812,333,o),
(967,151,o),
(1174,48,o),
(1292,48,qs),
(1398,48,o),
(1586,133,o),
(1736,284,o),
(1784,384,q),
(1792,384,l),
(1792,270,o),
(1833,135,o),
(1928,76,o),
(2008,76,qs),
(2115,76,o),
(2293,171,o),
(2424,344,o),
(2496,576,o),
(2496,712,qs),
(2496,973,o),
(2313,1429,o),
(1989,1773,o),
(1563,1968,o),
(1320,1968,qs),
(1076,1968,o),
(648,1773,o),
(323,1429,o),
(140,973,o),
(140,712,qs),
(140,453,o),
(323,-3,o),
(648,-348,o),
(1076,-544,o),
(1320,-544,qs),
(1436,-544,o)
);
},
{
closed = 1;
nodes = (
(925,274,o),
(788,546,o),
(788,712,qs),
(788,878,o),
(925,1150,o),
(1154,1312,o),
(1292,1312,qs),
(1430,1312,o),
(1657,1150,o),
(1792,878,o),
(1792,712,qs),
(1792,545,o),
(1657,273,o),
(1431,112,o),
(1292,112,qs),
(1154,112,o)
);
}
);
width = 2636;
},
{
layerId = "F8E60EAC-58E2-4CB8-A8B6-FD6FE89414CC";
shapes = (
{
closed = 1;
nodes = (
(2054,-581,o),
(2281,-510,o),
(2344,-468,q),
(2216,-108,l),
(2151,-136,o),
(1963,-181,o),
(1739,-208,o),
(1620,-208,qs),
(1384,-208,o),
(1019,-89,o),
(770,143,o),
(641,487,o),
(640,712,qs),
(641,903,o),
(756,1248,o),
(996,1517,o),
(1369,1672,o),
(1628,1672,qs),
(1741,1672,o),
(1995,1641,o),
(2236,1548,o),
(2432,1365,o),
(2549,1064,o),
(2548,840,qs),
(2549,666,o),
(2498,441,o),
(2415,332,o),
(2368,332,qs),
(2343,332,o),
(2306,372,o),
(2304,432,qs),
(2304,1456,l),
(1924,1456,l),
(1924,1344,l),
(1908,1344,l),
(1889,1388,o),
(1729,1465,o),
(1501,1498,o),
(1380,1476,qs),
(1288,1460,o),
(1087,1362,o),
(914,1180,o),
(805,900,o),
(804,700,qs),
(805,501,o),
(915,218,o),
(1098,38,o),
(1318,-52,o),
(1428,-60,qs),
(1541,-68,o),
(1769,-22,o),
(1937,70,o),
(1960,132,q),
(1972,132,l),
(1983,74,o),
(2021,-30,o),
(2149,-86,o),
(2296,-72,qs),
(2460,-57,o),
(2715,63,o),
(2891,279,o),
(2981,594,o),
(2980,804,qs),
(2981,1112,o),
(2792,1588,o),
(2437,1915,o),
(1938,2084,o),
(1628,2084,qs),
(1284,2084,o),
(750,1880,o),
(383,1507,o),
(193,996,o),
(192,688,qs),
(193,379,o),
(383,-107,o),
(743,-447,o),
(1260,-624,o),
(1588,-624,qs),
(1757,-624,o)
);
},
{
closed = 1;
nodes = (
(1306,455,o),
(1241,620,o),
(1240,712,qs),
(1241,824,o),
(1320,975,o),
(1471,1052,o),
(1580,1052,qs),
(1711,1052,o),
(1840,957,o),
(1883,804,o),
(1884,716,qs),
(1887,600,o),
(1834,437,o),
(1703,352,o),
(1588,352,qs),
(1457,352,o)
);
}
);
width = 3080;
}
);
note = uni0040;
unicode = 64;
},
{
glyphname = uni0023;
lastChange = "2025-03-20 13:47:41 +0000";
layers = (
{
layerId = m01;
shapes = (
{
closed = 1;
nodes = (
(656,2048,l),
(210,0,l),
(465,0,l),
(914,2048,l)
);
},
{
closed = 1;
nodes = (
(1376,2048,l),
(930,0,l),
(1185,0,l),
(1634,2048,l)
);
},
{
closed = 1;
nodes = (
(178,1205,l),
(1697,1205,l),
(1752,1456,l),
(233,1456,l)
);
},
{
closed = 1;
nodes = (
(48,565,l),
(1570,565,l),
(1624,816,l),
(103,816,l)
);
}
);
width = 1800;
},
{
layerId = "F2C6FA2E-D08A-4B94-92D2-D7CA5820546A";
shapes = (
{
closed = 1;
nodes = (
(721,2048,l),
(274,0,l),
(336,0,l),
(786,2048,l)
);
},
{
closed = 1;
nodes = (
(1442,2048,l),
(992,0,l),
(1057,0,l),
(1504,2048,l)
);
},
{
closed = 1;
nodes = (
(191,1326,l),
(1709,1326,l),
(1722,1374,l),
(205,1374,l)
);
},
{
closed = 1;
nodes = (
(64,687,l),
(1581,687,l),
(1595,735,l),
(77,735,l)
);
}
);
width = 1786;
},
{
layerId = "F8E60EAC-58E2-4CB8-A8B6-FD6FE89414CC";
shapes = (
{
closed = 1;
nodes = (
(721,2048,l),
(273,0,l),
(913,0,l),
(1361,2048,l)
);
},
{
closed = 1;
nodes = (
(1824,2048,l),
(1377,0,l),
(2016,0,l),
(2464,2048,l)
);
},
{
closed = 1;
nodes = (
(176,1045,l),
(2529,1044,l),
(2648,1534,l),
(295,1537,l)
);
},
{
closed = 1;
nodes = (
(16,358,l),
(2369,357,l),
(2488,847,l),
(135,848,l)
);
}
);
width = 2664;
}
);
note = uni0023;
unicode = 35;
},
{
glyphname = uni002F;
kernLeft = uni002F;
lastChange = "2025-05-25 13:27:24 +0000";
layers = (
{
layerId = m01;
shapes = (
{
closed = 1;
nodes = (
(768,2048,l),
(32,-210,l),
(305,-210,l),
(1041,2048,l)
);
}
);
width = 1073;
},
{
layerId = "F2C6FA2E-D08A-4B94-92D2-D7CA5820546A";
shapes = (
{
closed = 1;
nodes = (
(781,2048,l),
(45,-210,l),
(107,-210,l),
(843,2048,l)
);
}
);
width = 888;
},
{
layerId = "F8E60EAC-58E2-4CB8-A8B6-FD6FE89414CC";
shapes = (
{
closed = 1;
nodes = (
(771,2048,l),
(32,-210,l),
(833,-210,l),
(1572,2048,l)
);
}
);
width = 1604;
}
);
note = uni002F;
unicode = 47;
},
{
glyphname = uni007C;
kernLeft = uni0042;
kernRight = uni018E;
layers = (
{
layerId = m01;
shapes = (
{
closed = 1;
nodes = (
(360,-660,l),
(560,-660,l),
(560,2708,l),
(360,2708,l)
);
}
);
width = 920;
},
{
layerId = "F2C6FA2E-D08A-4B94-92D2-D7CA5820546A";
shapes = (
{
closed = 1;
nodes = (
(352,-660,l),
(416,-660,l),
(416,2708,l),
(352,2708,l)
);
}
);
width = 768;
},
{
layerId = "F8E60EAC-58E2-4CB8-A8B6-FD6FE89414CC";
shapes = (
{
closed = 1;
nodes = (
(300,-660,l),
(840,-660,l),
(840,2708,l),
(300,2708,l)
);
}
);
width = 1140;
}
);
note = uni007C;
unicode = 124;
},
{
glyphname = uni00A6;
layers = (
{
layerId = m01;
shapes = (
{
closed = 1;
nodes = (
(484,-384,l),
(484,552,l),
(264,552,l),
(264,-384,l)
);
},
{
closed = 1;
nodes = (
(264,1116,l),
(484,1116,l),
(484,2048,l),
(264,2048,l)
);
}
);
width = 748;
},
{
layerId = "F2C6FA2E-D08A-4B94-92D2-D7CA5820546A";
shapes = (
{
closed = 1;
nodes = (
(294,-384,l),
(294,532,l),
(230,532,l),
(230,-384,l)
);
},
{
closed = 1;
nodes = (
(230,1136,l),
(294,1136,l),
(294,2048,l),
(230,2048,l)
);
}
);
width = 525;
},
{
layerId = "F8E60EAC-58E2-4CB8-A8B6-FD6FE89414CC";
shapes = (
{
closed = 1;
nodes = (
(804,-384,l),
(804,584,l),
(316,584,l),
(316,-384,l)
);
},
{
closed = 1;
nodes = (
(316,1084,l),
(804,1084,l),
(804,2048,l),
(316,2048,l)
);
}
);
width = 1120;
}
);
note = uni00A6;
unicode = 166;
},
{
glyphname = uni005C;
kernLeft = uni0056;
kernRight = uni0041;
lastChange = "2025-05-25 13:28:27 +0000";
layers = (
{
layerId = m01;
shapes = (
{
closed = 1;
nodes = (
(768,-210,l),
(1041,-210,l),
(305,2048,l),
(32,2048,l)
);
}
);
width = 1073;
},
{
layerId = "F2C6FA2E-D08A-4B94-92D2-D7CA5820546A";
shapes = (
{
closed = 1;
nodes = (
(781,-210,l),
(843,-210,l),
(107,2048,l),
(45,2048,l)
);
}
);
width = 888;
},
{
layerId = "F8E60EAC-58E2-4CB8-A8B6-FD6FE89414CC";
shapes = (
{
closed = 1;
nodes = (
(771,-210,l),
(1572,-210,l),
(833,2048,l),
(32,2048,l)
);
}
);
width = 1604;
}
);
note = uni005C;
unicode = 92;
},
{
glyphname = uni002D;
kernLeft = uni002D;
kernRight = uni002D;
layers = (
{
layerId = m01;
shapes = (
{
closed = 1;
nodes = (
(200,768,l),
(1096,768,l),
(1096,988,l),
(200,988,l)
);
}
);
width = 1296;
},
{
layerId = "F2C6FA2E-D08A-4B94-92D2-D7CA5820546A";
shapes = (
{
closed = 1;
nodes = (
(236,846,l),
(1000,846,l),
(1000,910,l),
(236,910,l)
);
}
);
width = 1236;
},
{
layerId = "F8E60EAC-58E2-4CB8-A8B6-FD6FE89414CC";
shapes = (
{
closed = 1;
nodes = (
(188,608,l),
(1148,608,l),
(1148,1024,l),
(188,1024,l)
);
}
);
width = 1336;
}
);
note = uni002D;
unicode = 45;
},
{
glyphname = uni2012;
layers = (
{
layerId = m01;
shapes = (
{
closed = 1;
nodes = (
(0,768,l),
(1824,768,l),
(1824,988,l),
(0,988,l)
);
}
);
width = 1824;
},
{
layerId = "F2C6FA2E-D08A-4B94-92D2-D7CA5820546A";
shapes = (
{
closed = 1;
nodes = (
(0,846,l),
(1664,846,l),
(1664,910,l),
(0,910,l)
);
}
);
width = 1664;
},
{
layerId = "F8E60EAC-58E2-4CB8-A8B6-FD6FE89414CC";
shapes = (
{
closed = 1;
nodes = (
(0,608,l),
(1984,608,l),
(1984,1024,l),
(0,1024,l)
);
}
);
width = 1984;
}
);
note = uni2012;
unicode = 8210;
},
{
glyphname = uni25E6;
kernLeft = uni2022;
layers = (
{
layerId = m01;
shapes = (
{
closed = 1;
nodes = (
(1113,495,o),
(1232,695,o),
(1232,816,qs),
(1232,938,o),
(1113,1137,o),
(914,1256,o),
(792,1256,qs),
(671,1256,o),
(471,1137,o),
(352,938,o),
(352,816,qs),
(352,695,o),
(471,495,o),
(671,376,o),
(792,376,qs),
(914,376,o)
);
},
{
closed = 1;
nodes = (
(528,707,o),
(528,816,qs),
(528,926,o),
(683,1080,o),
(792,1080,qs),
(902,1080,o),
(1056,926,o),
(1056,816,qs),
(1056,707,o),
(902,552,o),
(792,552,qs),
(683,552,o)
);
}
);
width = 1584;
},
{
layerId = "F2C6FA2E-D08A-4B94-92D2-D7CA5820546A";
shapes = (
{
closed = 1;
nodes = (
(978,630,o),
(1048,746,o),
(1048,816.314,qs),
(1048,887.209,o),
(978.396,1002.848,o),
(862,1072,o),
(792,1072,qs),
(721,1072,o),
(605.013,1002.77,o),
(536,887,o),
(536,816.223,qs),
(536,746.027,o),
(605,630,o),
(721,560,o),
(792,560,qs),
(862,560,o)
);
},
{
closed = 1;
nodes = (
(600,737,o),
(600,816.193,qs),
(600,896.113,o),
(713,1008,o),
(792.193,1008,qs),
(872.113,1008,o),
(984,896,o),
(984,816,qs),
(984,736.727,o),
(872,624,o),
(792,624,qs),
(712.727,624,o)
);
}
);
width = 1584;
},
{
layerId = "F8E60EAC-58E2-4CB8-A8B6-FD6FE89414CC";
shapes = (
{
closed = 1;
nodes = (
(881,495,o),
(1000,695,o),
(1000,816,qs),
(1000,938,o),
(881,1137,o),
(682,1256,o),
(560,1256,qs),
(439,1256,o),
(239,1137,o),
(120,938,o),
(120,816,qs),
(120,695,o),
(239,495,o),
(439,376,o),
(560,376,qs),
(682,376,o)
);
},
{
closed = 1;
nodes = (
(380,742,o),
(380,815.662,qs),
(380,890,o),
(486,996,o),
(559.662,996,qs),
(634,996,o),
(740,890,o),
(740,816,qs),
(740,741.682,o),
(634,636,o),
(560,636,qs),
(485.682,636,o)
);
}
);
width = 1120;
}
);
note = uni25E6;
unicode = 9702;
},
{
glyphname = uni2043;
kernLeft = uni2022;
layers = (
{
layerId = m01;
shapes = (
{
closed = 1;
nodes = (
(424,706,l),
(1160,706,l),
(1160,926,l),
(424,926,l)
);
}
);
width = 1584;
},
{
layerId = "F2C6FA2E-D08A-4B94-92D2-D7CA5820546A";
shapes = (
{
closed = 1;
nodes = (
(520,784,l),
(1064,784,l),
(1064,848,l),
(520,848,l)
);
}
);
width = 1584;
},
{
layerId = "F8E60EAC-58E2-4CB8-A8B6-FD6FE89414CC";
shapes = (
{
closed = 1;
nodes = (
(144,608,l),
(976,608,l),
(976,1024,l),
(144,1024,l)
);
}
);
width = 1120;
}
);
note = uni2043;
unicode = 8259;
},
{
glyphname = uni002D.case;
kernLeft = uni002D;
kernRight = uni002D;
layers = (
{
layerId = m01;
shapes = (
{
closed = 1;
nodes = (
(200,914,l),
(1096,914,l),
(1096,1134,l),
(200,1134,l)
);
}
);
width = 1296;
},
{
layerId = "F2C6FA2E-D08A-4B94-92D2-D7CA5820546A";
shapes = (
{
closed = 1;
nodes = (
(236,992,l),
(1000,992,l),
(1000,1056,l),
(236,1056,l)
);
}
);
width = 1236;
},
{
layerId = "F8E60EAC-58E2-4CB8-A8B6-FD6FE89414CC";
shapes = (
{
closed = 1;
nodes = (
(188,816,l),
(1148,816,l),
(1148,1232,l),
(188,1232,l)
);
}
);
width = 1336;
}
);
note = uni002D.case;
},
{
glyphname = uni0027;
kernLeft = uni0027;
kernRight = uni0027;
layers = (
{
layerId = m01;
shapes = (
{
closed = 1;
nodes = (
(200,1344,l),
(420,1344,l),
(420,2048,l),
(200,2048,l)
);
}
);
width = 624;
},
{
layerId = "F2C6FA2E-D08A-4B94-92D2-D7CA5820546A";
shapes = (
{
closed = 1;
nodes = (
(256,1408,l),
(320,1408,l),
(320,2048,l),
(256,2048,l)
);
}
);
width = 576;
},
{
layerId = "F8E60EAC-58E2-4CB8-A8B6-FD6FE89414CC";
shapes = (
{
closed = 1;
nodes = (
(100,1220,l),
(460,1220,l),
(460,2048,l),
(100,2048,l)
);
}
);
width = 564;
}
);
note = uni0027;
unicode = 39;
},
{
glyphname = uni2032;
layers = (
{
layerId = m01;
shapes = (
{
closed = 1;
nodes = (
(480,2048,l),
(212,2048,l),
(140,1312,l),
(312,1312,l)
);
}
);
width = 620;
},
{
layerId = "F2C6FA2E-D08A-4B94-92D2-D7CA5820546A";
shapes = (
{
closed = 1;
nodes = (
(300,2048,l),
(228,2048,l),
(156,1372,l),
(200,1372,l)
);
}
);
width = 456;
},
{
layerId = "F8E60EAC-58E2-4CB8-A8B6-FD6FE89414CC";
shapes = (
{
closed = 1;
nodes = (
(716,2048,l),
(252,2048,l),
(180,1216,l),
(548,1216,l)
);
}
);
width = 896;
},
{
associatedMasterId = m01;
layerId = "168C9F6F-5AB3-4882-87E1-A0AF169EEF18";
name = "slnt=-10";
shapes = (
{
closed = 1;
nodes = (
(692,2048,l),
(424,2048,l),
(232,1312,l),
(404,1312,l)
);
}
);
width = 620;
},
{
associatedMasterId = m01;
layerId = "A63CEEAC-DCD7-43B5-BF36-B41225E8F437";
name = "slnt=-10, Thin";
shapes = (
{
closed = 1;
nodes = (
(512,2048,l),
(440,2048,l),
(256,1372,l),
(300,1372,l)
);
}
);
width = 456;
},
{
associatedMasterId = m01;
layerId = "FB56432E-7888-4908-8FE7-7C15C45E8DD8";
name = "slnt=-10, Black";
shapes = (
{
closed = 1;
nodes = (
(928,2048,l),
(464,2048,l),
(256,1216,l),
(624,1216,l)
);
}
);
width = 896;
}
);
note = uni2032;
unicode = 8242;
},
{
glyphname = uni2033;
lastChange = "2025-05-27 21:52:09 +0000";
layers = (
{
layerId = m01;
shapes = (
{
closed = 1;
nodes = (
(241,2048,l),
(70,1370,l),
(241,1370,l),
(533,2048,l)
);
},
{
closed = 1;
nodes = (
(747,2048,l),
(577,1370,l),
(747,1370,l),
(1040,2048,l)
);
}
);
width = 1110;
},
{
layerId = "F2C6FA2E-D08A-4B94-92D2-D7CA5820546A";
shapes = (
{
closed = 1;
nodes = (
(266,2048,l),
(90,1370,l),
(154,1370,l),
(362,2048,l)
);
},
{
closed = 1;
nodes = (
(633,2048,l),
(457,1370,l),
(521,1370,l),
(728,2048,l)
);
}
);
width = 818;
},
{
layerId = "F8E60EAC-58E2-4CB8-A8B6-FD6FE89414CC";
shapes = (
{
closed = 1;
nodes = (
(276,2048,l),
(90,1313,l),
(801,1313,l),
(1122,2048,l)
);
},
{
closed = 1;
nodes = (
(1273,2048,l),
(1088,1313,l),
(1799,1313,l),
(2120,2048,l)
);
}
);
width = 2210;
}
);
note = uni2033;
unicode = 8243;
},
{
glyphname = uni2035;
layers = (
{
layerId = m01;
shapes = (
{
closed = 1;
nodes = (
(140,2048,l),
(308,1312,l),
(480,1312,l),
(408,2048,l)
);
}
);
width = 620;
},
{
layerId = "F2C6FA2E-D08A-4B94-92D2-D7CA5820546A";
shapes = (
{
closed = 1;
nodes = (
(156,2048,l),
(256,1372,l),
(300,1372,l),
(228,2048,l)
);
}
);
width = 456;
},
{
layerId = "F8E60EAC-58E2-4CB8-A8B6-FD6FE89414CC";
shapes = (
{
closed = 1;
nodes = (
(180,2048,l),
(348,1216,l),
(716,1216,l),
(644,2048,l)
);
}
);
width = 896;
}
);
note = uni2035;
unicode = 8245;
},
{
glyphname = uni02B9;
layers = (
{
layerId = m01;
shapes = (
{
closed = 1;
nodes = (
(476,2048,l),
(196,2048,l),
(276,1264,l),
(396,1264,l)
);
}
);
width = 672;
},
{
layerId = "F2C6FA2E-D08A-4B94-92D2-D7CA5820546A";
shapes = (
{
closed = 1;
nodes = (
(320,2048,l),
(240,2048,l),
(256,1376,l),
(304,1376,l)
);
}
);
width = 560;
},
{
layerId = "F8E60EAC-58E2-4CB8-A8B6-FD6FE89414CC";
shapes = (
{
closed = 1;
nodes = (
(616,2048,l),
(112,2048,l),
(216,1152,l),
(516,1152,l)
);
}
);
width = 728;
}
);
note = uni02B9;
unicode = 697;
},
{
glyphname = uni002C;
kernLeft = uni002C;
kernRight = uni002C;
lastChange = "2025-07-23 19:21:17 +0000";
layers = (
{
layerId = m01;
shapes = (
{
closed = 1;
nodes = (
(257,301,l),
(80,-353,l),
(227,-353,l),
(534,301,l)
);
}
);
width = 594;
},
{
layerId = "F2C6FA2E-D08A-4B94-92D2-D7CA5820546A";
shapes = (
{
closed = 1;
nodes = (
(251,105,l),
(90,-351,l),
(144,-351,l),
(338,105,l)
);
}
);
width = 418;
},
{
layerId = "F8E60EAC-58E2-4CB8-A8B6-FD6FE89414CC";
shapes = (
{
closed = 1;
nodes = (
(238,525,l),
(60,-351,l),
(742,-351,l),
(1049,525,l)
);
}
);
width = 1089;
}
);
note = uni002C;
unicode = 44;
},
{
glyphname = uni002E;
kernLeft = uni002C;
kernRight = uni002C;
lastChange = "2025-07-17 08:47:32 +0000";
layers = (
{
layerId = m01;
shapes = (
{
closed = 1;
nodes = (
(50,0,l),
(347,0,l),
(347,300,l),
(50,300,l)
);
}
);
width = 397;
},
{
layerId = "F2C6FA2E-D08A-4B94-92D2-D7CA5820546A";
shapes = (
{
closed = 1;
nodes = (
(124,0,l),
(222,0,l),
(222,98,l),
(124,98,l)
);
}
);
width = 346;
},
{
layerId = "F8E60EAC-58E2-4CB8-A8B6-FD6FE89414CC";
shapes = (
{
closed = 1;
nodes = (
(80,0,l),
(896,0,l),
(896,524,l),
(80,524,l)
);
}
);
width = 976;
}
);
note = uni002E;
unicode = 46;
},
{
glyphname = uni003A;
kernLeft = uni003A;
kernRight = uni003A;
lastChange = "2025-05-18 21:07:20 +0000";
layers = (
{
layerId = m01;
shapes = (
{
closed = 1;
nodes = (
(104,0,l),
(411,0,l),
(411,310,l),
(104,310,l)
);
},
{
closed = 1;
nodes = (
(104,1174,l),
(411,1174,l),
(411,1483,l),
(104,1483,l)
);
}
);
width = 515;
},
{
layerId = "F2C6FA2E-D08A-4B94-92D2-D7CA5820546A";
shapes = (
{
closed = 1;
nodes = (
(124,0,l),
(222,0,l),
(222,98,l),
(124,98,l)
);
},
{
closed = 1;
nodes = (
(124,1275,l),
(222,1275,l),
(222,1373,l),
(124,1373,l)
);
}
);
width = 346;
},
{
layerId = "F8E60EAC-58E2-4CB8-A8B6-FD6FE89414CC";
shapes = (
{
closed = 1;
nodes = (
(80,0,l),
(896,0,l),
(896,524,l),
(80,524,l)
);
},
{
closed = 1;
nodes = (
(80,959,l),
(896,959,l),
(896,1483,l),
(80,1483,l)
);
}
);
width = 976;
}
);
note = uni003A;
unicode = 58;
},
{
glyphname = uni003A.case;
kernLeft = uni003A;
layers = (
{
layerId = m01;
shapes = (
{
closed = 1;
nodes = (
(519,311,o),
(568,393,o),
(568,442,qs),
(568,516,o),
(462,622,o),
(388,622,qs),
(314,622,o),
(208,516,o),
(208,442,qs),
(208,368,o),
(314,262,o),
(388,262,qs),
(438,262,o)
);
},
{
closed = 1;
nodes = (
(519,1347,o),
(568,1429,o),
(568,1478,qs),
(568,1552,o),
(462,1658,o),
(388,1658,qs),
(314,1658,o),
(208,1552,o),
(208,1478,qs),
(208,1404,o),
(314,1298,o),
(388,1298,qs),
(438,1298,o)
);
}
);
width = 776;
},
{
layerId = "F2C6FA2E-D08A-4B94-92D2-D7CA5820546A";
shapes = (
{
closed = 1;
nodes = (
(409,417,o),
(428,450.176,o),
(428,470,qs),
(428,499.6,o),
(385.6,542,o),
(356,542,qs),
(326.4,542,o),
(284,499.6,o),
(284,470,qs),
(284,440.4,o),
(326,398,o),
(355.961,398,qs),
(376.205,398,o)
);
},
{
closed = 1;
nodes = (
(409,1461,o),
(428,1494.176,o),
(428,1514,qs),
(428,1543.6,o),
(385.6,1586,o),
(356,1586,qs),
(326.4,1586,o),
(284,1543.6,o),
(284,1514,qs),
(284,1484.4,o),
(326,1442,o),
(355.961,1442,qs),
(376.205,1442,o)
);
}
);
width = 712;
},
{
layerId = "F8E60EAC-58E2-4CB8-A8B6-FD6FE89414CC";
shapes = (
{
closed = 1;
nodes = (
(640,297,o),
(719,424,o),
(720,502,qs),
(719,616,o),
(550,778,o),
(440,778,qs),
(324,778,o),
(159,616,o),
(160,502,qs),
(159,385,o),
(324,222,o),
(440,222,qs),
(514,222,o)
);
},
{
closed = 1;
nodes = (
(640,1281,o),
(719,1408,o),
(720,1486,qs),
(719,1600,o),
(550,1762,o),
(440,1762,qs),
(324,1762,o),
(159,1600,o),
(160,1486,qs),
(159,1369,o),
(324,1206,o),
(440,1206,qs),
(514,1206,o)
);
}
);
width = 880;
}
);
note = uni003A.case;
},
{
glyphname = uni003B;
kernLeft = uni003A;
kernRight = uni003A;
lastChange = "2025-03-20 14:04:54 +0000";
layers = (
{
layerId = m01;
shapes = (
{
closed = 1;
nodes = (
(365,1176,l),
(672,1176,l),
(672,1483,l),
(365,1483,l)
);
},
{
closed = 1;
nodes = (
(365,314,l),
(188,-350,l),
(365,-350,l),
(672,314,l)
);
}
);
width = 856;
},
{
layerId = "F2C6FA2E-D08A-4B94-92D2-D7CA5820546A";
shapes = (
{
closed = 1;
nodes = (
(405,1275,l),
(502,1275,l),
(502,1373,l),
(405,1373,l)
);
},
{
closed = 1;
nodes = (
(405,99,l),
(244,-357,l),
(308,-357,l),
(502,99,l)
);
}
);
width = 766;
},
{
layerId = "F8E60EAC-58E2-4CB8-A8B6-FD6FE89414CC";
shapes = (
{
closed = 1;
nodes = (
(314,964,l),
(1125,964,l),
(1125,1483,l),
(314,1483,l)
);
},
{
closed = 1;
nodes = (
(314,525,l),
(136,-351,l),
(818,-351,l),
(1125,525,l)
);
}
);
width = 1265;
}
);
note = uni003B;
unicode = 59;
},
{
glyphname = uni2039;
kernLeft = uni2039;
kernRight = uni2039;
layers = (
{
layerId = m01;
shapes = (
{
closed = 1;
nodes = (
(188,840,l),
(188,820,l),
(592,220,l),
(800,220,l),
(416,840,l)
);
},
{
closed = 1;
nodes = (
(188,848,l),
(188,828,l),
(416,828,l),
(800,1448,l),
(592,1448,l)
);
}
);
width = 1008;
},
{
layerId = "F2C6FA2E-D08A-4B94-92D2-D7CA5820546A";
shapes = (
{
closed = 1;
nodes = (
(232,840,l),
(232,820,l),
(636,220,l),
(712,220,l),
(296,840,l)
);
},
{
closed = 1;
nodes = (
(232,848,l),
(232,828,l),
(296,828,l),
(712,1448,l),
(636,1448,l)
);
}
);
width = 968;
},
{
layerId = "F8E60EAC-58E2-4CB8-A8B6-FD6FE89414CC";
shapes = (
{
closed = 1;
nodes = (
(148,840,l),
(148,820,l),
(552,220,l),
(1056,220,l),
(672,840,l)
);
},
{
closed = 1;
nodes = (
(148,848,l),
(148,828,l),
(672,828,l),
(1056,1448,l),
(552,1448,l)
);
}
);
width = 1168;
}
);
note = uni2039;
unicode = 8249;
},
{
glyphname = uni203A;
kernLeft = uni203A;
kernRight = uni203A;
layers = (
{
layerId = m01;
shapes = (
{
closed = 1;
nodes = (
(800,820,l),
(800,840,l),
(572,840,l),
(188,220,l),
(396,220,l)
);
},
{
closed = 1;
nodes = (
(800,828,l),
(800,848,l),
(396,1448,l),
(188,1448,l),
(572,828,l)
);
}
);
width = 1008;
},
{
layerId = "F2C6FA2E-D08A-4B94-92D2-D7CA5820546A";
shapes = (
{
closed = 1;
nodes = (
(736,820,l),
(736,840,l),
(672,840,l),
(256,220,l),
(332,220,l)
);
},
{
closed = 1;
nodes = (
(736,828,l),
(736,848,l),
(332,1448,l),
(256,1448,l),
(672,828,l)
);
}
);
width = 968;
},
{
layerId = "F8E60EAC-58E2-4CB8-A8B6-FD6FE89414CC";
shapes = (
{
closed = 1;
nodes = (
(1020,820,l),
(1020,840,l),
(496,840,l),
(112,220,l),
(616,220,l)
);
},
{
closed = 1;
nodes = (
(1020,828,l),
(1020,848,l),
(616,1448,l),
(112,1448,l),
(496,828,l)
);
}
);
width = 1168;
}
);
note = uni203A;
unicode = 8250;
},
{
glyphname = uni003C;
layers = (
{
layerId = m01;
shapes = (
{
closed = 1;
nodes = (
(1572,320,l),
(584,796,l),
(592,780,l),
(592,820,l),
(584,804,l),
(1572,1280,l),
(1572,1536,l),
(284,880,l),
(284,720,l),
(1572,64,l)
);
}
);
width = 1856;
},
{
layerId = "F2C6FA2E-D08A-4B94-92D2-D7CA5820546A";
shapes = (
{
closed = 1;
nodes = (
(1444,132,l),
(408,804,l),
(420,784,l),
(420,816,l),
(408,796,l),
(1444,1468,l),
(1444,1544,l),
(348,832,l),
(348,768,l),
(1444,56,l)
);
}
);
width = 1792;
},
{
layerId = "F8E60EAC-58E2-4CB8-A8B6-FD6FE89414CC";
shapes = (
{
closed = 1;
nodes = (
(1720,500,l),
(772,828,l),
(788,804,l),
(788,860,l),
(772,836,l),
(1720,1164,l),
(1720,1668,l),
(232,1072,l),
(232,592,l),
(1720,-4,l)
);
}
);
width = 1952;
}
);
note = uni003C;
unicode = 60;
},
{
glyphname = uni003E;
layers = (
{
layerId = m01;
shapes = (
{
closed = 1;
nodes = (
(284,1536,l),
(284,1280,l),
(1272,804,l),
(1264,820,l),
(1264,780,l),
(1272,796,l),
(284,320,l),
(284,64,l),
(1572,720,l),
(1572,880,l)
);
}
);
width = 1856;
},
{
layerId = "F2C6FA2E-D08A-4B94-92D2-D7CA5820546A";
shapes = (
{
closed = 1;
nodes = (
(348,1544,l),
(348,1468,l),
(1384,796,l),
(1372,816,l),
(1372,784,l),
(1384,804,l),
(348,132,l),
(348,56,l),
(1444,768,l),
(1444,832,l)
);
}
);
width = 1792;
},
{
layerId = "F8E60EAC-58E2-4CB8-A8B6-FD6FE89414CC";
shapes = (
{
closed = 1;
nodes = (
(232,1668,l),
(232,1164,l),
(1180,836,l),
(1164,860,l),
(1164,804,l),
(1180,828,l),
(232,500,l),
(232,-4,l),
(1720,592,l),
(1720,1072,l)
);
}
);
width = 1952;
}
);
note = uni003E;
unicode = 62;
},
{
glyphname = uni2264;
kernLeft = uni2264;
kernRight = uni2264;
layers = (
{
layerId = m01;
shapes = (
{
closed = 1;
nodes = (
(284,320,l),
(284,96,l),
(1572,96,l),
(1572,320,l)
);
},
{
closed = 1;
nodes = (
(1572,724,l),
(672,1020,l),
(680,1004,l),
(680,1044,l),
(672,1028,l),
(1572,1324,l),
(1572,1568,l),
(284,1104,l),
(284,944,l),
(1572,480,l)
);
}
);
width = 1856;
},
{
layerId = "F2C6FA2E-D08A-4B94-92D2-D7CA5820546A";
shapes = (
{
closed = 1;
nodes = (
(336,192,l),
(336,128,l),
(1456,128,l),
(1456,192,l)
);
},
{
closed = 1;
nodes = (
(1456,452,l),
(400,964,l),
(416,944,l),
(416,976,l),
(400,956,l),
(1456,1468,l),
(1456,1540,l),
(336,996,l),
(336,924,l),
(1456,380,l)
);
}
);
width = 1792;
},
{
layerId = "F8E60EAC-58E2-4CB8-A8B6-FD6FE89414CC";
shapes = (
{
closed = 1;
nodes = (
(232,480,l),
(232,64,l),
(1720,64,l),
(1720,480,l)
);
},
{
closed = 1;
nodes = (
(1720,924,l),
(772,1100,l),
(788,1076,l),
(788,1132,l),
(772,1108,l),
(1720,1284,l),
(1720,1668,l),
(232,1344,l),
(232,864,l),
(1720,540,l)
);
}
);
width = 1952;
}
);
note = uni2264;
unicode = 8804;
},
{
glyphname = uni2265;
kernLeft = uni2264;
kernRight = uni2264;
layers = (
{
layerId = m01;
shapes = (
{
closed = 1;
nodes = (
(1572,320,l),
(284,320,l),
(284,96,l),
(1572,96,l)
);
},
{
closed = 1;
nodes = (
(284,1568,l),
(284,1324,l),
(1184,1028,l),
(1176,1044,l),
(1176,1004,l),
(1184,1020,l),
(284,724,l),
(284,480,l),
(1572,944,l),
(1572,1104,l)
);
}
);
width = 1856;
},
{
layerId = "F2C6FA2E-D08A-4B94-92D2-D7CA5820546A";
shapes = (
{
closed = 1;
nodes = (
(1456,192,l),
(336,192,l),
(336,128,l),
(1456,128,l)
);
},
{
closed = 1;
nodes = (
(336,1540,l),
(336,1468,l),
(1392,956,l),
(1376,976,l),
(1376,944,l),
(1392,964,l),
(336,452,l),
(336,380,l),
(1456,924,l),
(1456,996,l)
);
}
);
width = 1792;
},
{
layerId = "F8E60EAC-58E2-4CB8-A8B6-FD6FE89414CC";
shapes = (
{
closed = 1;
nodes = (
(1720,480,l),
(232,480,l),
(232,64,l),
(1720,64,l)
);
},
{
closed = 1;
nodes = (
(232,1668,l),
(232,1284,l),
(1180,1108,l),
(1164,1132,l),
(1164,1076,l),
(1180,1100,l),
(232,924,l),
(232,540,l),
(1720,864,l),
(1720,1344,l)
);
}
);
width = 1952;
}
);
note = uni2265;
unicode = 8805;
},
{
glyphname = uni003D;
kernLeft = uni2264;
kernRight = uni2264;
layers = (
{
layerId = m01;
shapes = (
{
closed = 1;
nodes = (
(1544,1204,l),
(312,1204,l),
(312,988,l),
(1544,988,l)
);
},
{
closed = 1;
nodes = (
(1544,612,l),
(312,612,l),
(312,396,l),
(1544,396,l)
);
}
);
width = 1856;
},
{
layerId = "F2C6FA2E-D08A-4B94-92D2-D7CA5820546A";
shapes = (
{
closed = 1;
nodes = (
(1372,1100,l),
(420,1100,l),
(420,1036,l),
(1372,1036,l)
);
},
{
closed = 1;
nodes = (
(1372,564,l),
(420,564,l),
(420,500,l),
(1372,500,l)
);
}
);
width = 1792;
},
{
layerId = "F8E60EAC-58E2-4CB8-A8B6-FD6FE89414CC";
shapes = (
{
closed = 1;
nodes = (
(1716,1412,l),
(236,1412,l),
(236,964,l),
(1716,964,l)
);
},
{
closed = 1;
nodes = (
(1716,700,l),
(236,700,l),
(236,252,l),
(1716,252,l)
);
}
);
width = 1952;
}
);
note = uni003D;
unicode = 61;
},
{
glyphname = uni2260;
kernLeft = uni2264;
kernRight = uni2264;
layers = (
{
layerId = m01;
shapes = (
{
closed = 1;
nodes = (
(744,64,l),
(1336,1536,l),
(1112,1536,l),
(520,64,l)
);
},
{
closed = 1;
nodes = (
(1544,1204,l),
(312,1204,l),
(312,988,l),
(1544,988,l)
);
},
{
closed = 1;
nodes = (
(1544,612,l),
(312,612,l),
(312,396,l),
(1544,396,l)
);
}
);
width = 1856;
},
{
layerId = "F2C6FA2E-D08A-4B94-92D2-D7CA5820546A";
shapes = (
{
closed = 1;
nodes = (
(628,64,l),
(1236,1536,l),
(1168,1536,l),
(560,64,l)
);
},
{
closed = 1;
nodes = (
(1372,1100,l),
(420,1100,l),
(420,1036,l),
(1372,1036,l)
);
},
{
closed = 1;
nodes = (
(1372,564,l),
(420,564,l),
(420,500,l),
(1372,500,l)
);
}
);
width = 1792;
},
{
layerId = "F8E60EAC-58E2-4CB8-A8B6-FD6FE89414CC";
shapes = (
{
closed = 1;
nodes = (
(932,64,l),
(1500,1600,l),
(1032,1600,l),
(464,64,l)
);
},
{
closed = 1;
nodes = (
(1716,1412,l),
(236,1412,l),
(236,964,l),
(1716,964,l)
);
},
{
closed = 1;
nodes = (
(1716,700,l),
(236,700,l),
(236,252,l),
(1716,252,l)
);
}
);
width = 1952;
}
);
note = uni2260;
unicode = 8800;
},
{
glyphname = uni002B;
kernLeft = uni002D;
kernRight = uni002D;
layers = (
{
layerId = m01;
shapes = (
{
closed = 1;
nodes = (
(1040,1460,l),
(816,1460,l),
(816,140,l),
(1040,140,l)
);
},
{
closed = 1;
nodes = (
(1588,912,l),
(268,912,l),
(268,688,l),
(1588,688,l)
);
}
);
width = 1856;
},
{
layerId = "F2C6FA2E-D08A-4B94-92D2-D7CA5820546A";
shapes = (
{
closed = 1;
nodes = (
(928,1380,l),
(864,1380,l),
(864,220,l),
(928,220,l)
);
},
{
closed = 1;
nodes = (
(1476,832,l),
(316,832,l),
(316,768,l),
(1476,768,l)
);
}
);
width = 1792;
},
{
layerId = "F8E60EAC-58E2-4CB8-A8B6-FD6FE89414CC";
shapes = (
{
closed = 1;
nodes = (
(1200,1572,l),
(752,1572,l),
(752,92,l),
(1200,92,l)
);
},
{
closed = 1;
nodes = (
(1716,1056,l),
(236,1056,l),
(236,608,l),
(1716,608,l)
);
}
);
width = 1952;
}
);
note = uni002B;
unicode = 43;
},
{
glyphname = uni2212;
kernLeft = uni002D;
kernRight = uni002D;
layers = (
{
layerId = m01;
shapes = (
{
closed = 1;
nodes = (
(288,688,l),
(1568,688,l),
(1568,912,l),
(288,912,l)
);
}
);
width = 1856;
},
{
layerId = "F2C6FA2E-D08A-4B94-92D2-D7CA5820546A";
shapes = (
{
closed = 1;
nodes = (
(316,768,l),
(1476,768,l),
(1476,832,l),
(316,832,l)
);
}
);
width = 1792;
},
{
layerId = "F8E60EAC-58E2-4CB8-A8B6-FD6FE89414CC";
shapes = (
{
closed = 1;
nodes = (
(236,608,l),
(1716,608,l),
(1716,1056,l),
(236,1056,l)
);
}
);
width = 1952;
}
);
note = uni2212;
unicode = 8722;
},
{
glyphname = uni00D7;
kernLeft = uni2022;
layers = (
{
layerId = m01;
shapes = (
{
closed = 1;
nodes = (
(440,1440,l),
(288,1288,l),
(1416,160,l),
(1568,312,l)
);
},
{
closed = 1;
nodes = (
(1416,1440,l),
(288,312,l),
(440,160,l),
(1568,1288,l)
);
}
);
width = 1856;
},
{
layerId = "F2C6FA2E-D08A-4B94-92D2-D7CA5820546A";
shapes = (
{
closed = 1;
nodes = (
(355,1387,l),
(309,1341,l),
(1437,213,l),
(1483,259,l)
);
},
{
closed = 1;
nodes = (
(1437,1387,l),
(309,259,l),
(355,213,l),
(1483,1341,l)
);
}
);
width = 1792;
},
{
layerId = "F8E60EAC-58E2-4CB8-A8B6-FD6FE89414CC";
shapes = (
{
closed = 1;
nodes = (
(524,1620,l),
(188,1280,l),
(1428,44,l),
(1764,380,l)
);
},
{
closed = 1;
nodes = (
(1428,1620,l),
(188,380,l),
(524,44,l),
(1764,1280,l)
);
}
);
width = 1952;
}
);
note = uni00D7;
unicode = 215;
},
{
glyphname = uni00F7;
kernLeft = uni002D;
kernRight = uni002D;
layers = (
{
layerId = m01;
shapes = (
{
closed = 1;
nodes = (
(288,688,l),
(1568,688,l),
(1568,912,l),
(288,912,l)
);
},
{
closed = 1;
nodes = (
(1104,209,o),
(1104,284,qs),
(1104,356,o),
(1000,460,o),
(928,460,qs),
(853,460,o),
(748,356,o),
(748,284,qs),
(748,209,o),
(853,104,o),
(928,104,qs),
(1000,104,o)
);
},
{
closed = 1;
nodes = (
(1104,1245,o),
(1104,1320,qs),
(1104,1392,o),
(1000,1496,o),
(928,1496,qs),
(853,1496,o),
(748,1392,o),
(748,1320,qs),
(748,1270,o),
(796,1188,o),
(878,1140,o),
(928,1140,qs),
(1000,1140,o)
);
}
);
width = 1856;
},
{
layerId = "F2C6FA2E-D08A-4B94-92D2-D7CA5820546A";
shapes = (
{
closed = 1;
nodes = (
(316,768,l),
(1476,768,l),
(1476,832,l),
(316,832,l)
);
},
{
closed = 1;
nodes = (
(968,314,o),
(968,344.478,qs),
(968,373.737,o),
(925.737,416,o),
(896.478,416,qs),
(866,416,o),
(824,373.737,o),
(824,344.478,qs),
(824,314,o),
(866,272,o),
(896.478,272,qs),
(925.737,272,o)
);
},
{
closed = 1;
nodes = (
(968,1226,o),
(968,1256.478,qs),
(968,1285.737,o),
(925.737,1328,o),
(896.478,1328,qs),
(866,1328,o),
(824,1285.664,o),
(824,1256.354,qs),
(824,1236,o),
(843.2,1203.2,o),
(876,1184,o),
(896.354,1184,qs),
(925.664,1184,o)
);
}
);
width = 1792;
},
{
layerId = "F8E60EAC-58E2-4CB8-A8B6-FD6FE89414CC";
shapes = (
{
closed = 1;
nodes = (
(236,624,l),
(1716,624,l),
(1716,1040,l),
(236,1040,l)
);
},
{
closed = 1;
nodes = (
(1256,134,o),
(1256,252,qs),
(1256,368,o),
(1092,532,o),
(976,532,qs),
(858,532,o),
(692,368,o),
(692,252,qs),
(692,134,o),
(858,-32,o),
(976,-32,qs),
(1092,-32,o)
);
},
{
closed = 1;
nodes = (
(1256,1299,o),
(1256,1416,qs),
(1256,1533,o),
(1093,1696,o),
(976,1696,qs),
(859,1696,o),
(692,1533,o),
(692,1416,qs),
(692,1338,o),
(769,1209,o),
(898,1132,o),
(976,1132,qs),
(1093,1132,o)
);
}
);
width = 1952;
}
);
note = uni00F7;
unicode = 247;
},
{
glyphname = uni00B1;
kernLeft = uni2264;
kernRight = uni2264;
layers = (
{
layerId = m01;
shapes = (
{
closed = 1;
nodes = (
(1572,320,l),
(284,320,l),
(284,96,l),
(1572,96,l)
);
},
{
closed = 1;
nodes = (
(1572,1128,l),
(284,1128,l),
(284,904,l),
(1572,904,l)
);
},
{
closed = 1;
nodes = (
(1040,1536,l),
(816,1536,l),
(816,496,l),
(1040,496,l)
);
}
);
width = 1856;
},
{
layerId = "F2C6FA2E-D08A-4B94-92D2-D7CA5820546A";
shapes = (
{
closed = 1;
nodes = (
(1476,256,l),
(316,256,l),
(316,192,l),
(1476,192,l)
);
},
{
closed = 1;
nodes = (
(1476,1024,l),
(316,1024,l),
(316,960,l),
(1476,960,l)
);
},
{
closed = 1;
nodes = (
(928,1536,l),
(864,1536,l),
(864,448,l),
(928,448,l)
);
}
);
width = 1792;
},
{
layerId = "F8E60EAC-58E2-4CB8-A8B6-FD6FE89414CC";
shapes = (
{
closed = 1;
nodes = (
(1720,480,l),
(232,480,l),
(232,64,l),
(1720,64,l)
);
},
{
closed = 1;
nodes = (
(1720,1312,l),
(232,1312,l),
(232,912,l),
(1720,912,l)
);
},
{
closed = 1;
nodes = (
(1200,1616,l),
(752,1616,l),
(752,608,l),
(1200,608,l)
);
}
);
width = 1952;
}
);
note = uni00B1;
unicode = 177;
},
{
glyphname = uni007E;
kernLeft = uni002D;
kernRight = uni002D;
layers = (
{
layerId = m01;
shapes = (
{
closed = 1;
nodes = (
(446,739,o),
(551,852,o),
(632,852,qs),
(685,852,o),
(775,800,o),
(848,736,qs),
(958,641,o),
(1126,552,o),
(1228,552,qs),
(1330,552,o),
(1514,644,o),
(1627,846,o),
(1624,1012,q),
(1408,1012,l),
(1410,893,o),
(1310,768,o),
(1224,768,qs),
(1171,768,o),
(1082,820,o),
(1008,884,qs),
(899,979,o),
(730,1068,o),
(628,1068,qs),
(526,1068,o),
(343,976,o),
(229,774,o),
(232,608,q),
(448,608,l)
);
}
);
width = 1856;
},
{
layerId = "F2C6FA2E-D08A-4B94-92D2-D7CA5820546A";
shapes = (
{
closed = 1;
nodes = (
(342,761,o),
(505,885,o),
(624,884,qs),
(712,883,o),
(839,817,o),
(900,776,qs),
(960,736,o),
(1092,665,o),
(1180,664,qs),
(1265,664,o),
(1407,731,o),
(1507,850,o),
(1528,928,q),
(1464,944,l),
(1440,849,o),
(1285,727,o),
(1180,728,qs),
(1107,729,o),
(995,788,o),
(936,828,qs),
(875,869,o),
(727,947,o),
(624,948,qs),
(529,949,o),
(375,878,o),
(276,753,o),
(264,672,q),
(328,664,l)
);
}
);
width = 1792;
},
{
layerId = "F8E60EAC-58E2-4CB8-A8B6-FD6FE89414CC";
shapes = (
{
closed = 1;
nodes = (
(601,637,o),
(685,740,o),
(748,740,qs),
(798,740,o),
(861,693,o),
(916,644,qs),
(1018,554,o),
(1195,476,o),
(1292,476,qs),
(1445,476,o),
(1655,641,o),
(1757,943,o),
(1748,1148,q),
(1348,1148,l),
(1352,1027,o),
(1265,924,o),
(1204,924,qs),
(1152,924,o),
(1079,979,o),
(1032,1020,qs),
(922,1118,o),
(749,1188,o),
(660,1188,qs),
(502,1188,o),
(293,1023,o),
(196,721,o),
(204,516,q),
(604,516,l)
);
}
);
width = 1952;
}
);
note = uni007E;
unicode = 126;
},
{
glyphname = uni003C.case;
layers = (
{
layerId = m01;
shapes = (
{
closed = 1;
nodes = (
(1572,512,l),
(584,988,l),
(592,972,l),
(592,1012,l),
(584,996,l),
(1572,1472,l),
(1572,1728,l),
(284,1072,l),
(284,912,l),
(1572,256,l)
);
}
);
width = 1856;
},
{
layerId = "F2C6FA2E-D08A-4B94-92D2-D7CA5820546A";
shapes = (
{
closed = 1;
nodes = (
(1444,356,l),
(408,1028,l),
(420,1008,l),
(420,1040,l),
(408,1020,l),
(1444,1692,l),
(1444,1768,l),
(348,1056,l),
(348,992,l),
(1444,280,l)
);
}
);
width = 1792;
},
{
layerId = "F8E60EAC-58E2-4CB8-A8B6-FD6FE89414CC";
shapes = (
{
closed = 1;
nodes = (
(1720,692,l),
(772,1020,l),
(788,996,l),
(788,1052,l),
(772,1028,l),
(1720,1356,l),
(1720,1860,l),
(232,1264,l),
(232,784,l),
(1720,188,l)
);
}
);
width = 1952;
}
);
note = uni003C.case;
},
{
glyphname = uni003E.case;
layers = (
{
layerId = m01;
shapes = (
{
closed = 1;
nodes = (
(284,1728,l),
(284,1472,l),
(1272,996,l),
(1264,1012,l),
(1264,972,l),
(1272,988,l),
(284,512,l),
(284,256,l),
(1572,912,l),
(1572,1072,l)
);
}
);
width = 1856;
},
{
layerId = "F2C6FA2E-D08A-4B94-92D2-D7CA5820546A";
shapes = (
{
closed = 1;
nodes = (
(348,1768,l),
(348,1692,l),
(1384,1020,l),
(1372,1040,l),
(1372,1008,l),
(1384,1028,l),
(348,356,l),
(348,280,l),
(1444,992,l),
(1444,1056,l)
);
}
);
width = 1792;
},
{
layerId = "F8E60EAC-58E2-4CB8-A8B6-FD6FE89414CC";
shapes = (
{
closed = 1;
nodes = (
(232,1860,l),
(232,1356,l),
(1180,1028,l),
(1164,1052,l),
(1164,996,l),
(1180,1020,l),
(232,692,l),
(232,188,l),
(1720,784,l),
(1720,1264,l)
);
}
);
width = 1952;
}
);
note = uni003E.case;
},
{
glyphname = uni003D.case;
kernLeft = uni2264;
kernRight = uni2264;
layers = (
{
layerId = m01;
shapes = (
{
closed = 1;
nodes = (
(1544,1428,l),
(312,1428,l),
(312,1212,l),
(1544,1212,l)
);
},
{
closed = 1;
nodes = (
(1544,836,l),
(312,836,l),
(312,620,l),
(1544,620,l)
);
}
);
width = 1856;
},
{
layerId = "F2C6FA2E-D08A-4B94-92D2-D7CA5820546A";
shapes = (
{
closed = 1;
nodes = (
(1372,1324,l),
(420,1324,l),
(420,1260,l),
(1372,1260,l)
);
},
{
closed = 1;
nodes = (
(1372,788,l),
(420,788,l),
(420,724,l),
(1372,724,l)
);
}
);
width = 1792;
},
{
layerId = "F8E60EAC-58E2-4CB8-A8B6-FD6FE89414CC";
shapes = (
{
closed = 1;
nodes = (
(1716,1604,l),
(236,1604,l),
(236,1156,l),
(1716,1156,l)
);
},
{
closed = 1;
nodes = (
(1716,892,l),
(236,892,l),
(236,444,l),
(1716,444,l)
);
}
);
width = 1952;
}
);
note = uni003D.case;
},
